SplineFontDB: 3.2
FontName: OCRA-LEA
FullName: OCRA-LEA
FamilyName: OCRA-LEA
Weight: Book
Copyright: Digitized data copyright © The Monotype Corporation 1991-1995. All rights reserved.
Version: 1.80
ItalicAngle: 0
UnderlinePosition: -171
UnderlineWidth: 170
Ascent: 1638
Descent: 410
InvalidEm: 0
sfntRevision: 0x0001cccd
LayerCount: 2
Layer: 0 1 "Back" 1
Layer: 1 1 "Fore" 0
XUID: [1021 400 1947487990 23742]
StyleMap: 0x0040
FSType: 8
OS2Version: 1
OS2_WeightWidthSlopeOnly: 0
OS2_UseTypoMetrics: 0
CreationTime: 799348004
ModificationTime: 1613643855
PfmFamily: 17
TTFWeight: 400
TTFWidth: 5
LineGap: 0
VLineGap: 0
Panose: 2 1 5 9 2 1 2 1 3 3
OS2TypoAscent: 1329
OS2TypoAOffset: 0
OS2TypoDescent: -360
OS2TypoDOffset: 0
OS2TypoLinegap: 502
OS2WinAscent: 1757
OS2WinAOffset: 0
OS2WinDescent: 362
OS2WinDOffset: 0
HheadAscent: 1757
HheadAOffset: 0
HheadDescent: -362
HheadDOffset: 0
OS2SubXSize: 1434
OS2SubYSize: 1331
OS2SubXOff: 0
OS2SubYOff: 178
OS2SupXSize: 1434
OS2SupYSize: 1331
OS2SupXOff: 0
OS2SupYOff: 483
OS2StrikeYSize: 125
OS2StrikeYPos: 530
OS2FamilyClass: 2063
OS2Vendor: 'MONO'
OS2CodePages: 20000001.00000000
OS2UnicodeRanges: 00000003.00000000.00000000.00000000
DEI: 91125
TtTable: prep
PUSHW_1
 -64
PUSHB_4
 202
 21
 24
 54
PUSHW_1
 -64
NPUSHB
 9
 201
 21
 24
 54
 128
 196
 224
 196
 2
PUSHW_1
 -64
PUSHB_6
 196
 10
 11
 54
 135
 127
PUSHW_1
 1000
PUSHB_7
 31
 147
 127
 50
 31
 129
 127
PUSHW_1
 1000
NPUSHB
 56
 31
 144
 127
 160
 127
 2
 31
 194
 1
 111
 194
 127
 194
 2
 127
 190
 1
 0
 183
 1
 0
 183
 96
 183
 144
 183
 160
 183
 4
 0
 181
 144
 181
 160
 181
 3
 30
 120
 22
 29
 119
 22
 28
 118
 22
 27
 117
 22
 26
 116
 22
 25
 115
 22
 112
 22
PUSHW_1
 2048
NPUSHB
 24
 29
 108
 111
 22
 23
 28
 108
 111
 23
 27
 108
 111
 25
 107
 110
 22
 27
 107
 110
 127
 114
 26
 106
 20
PUSHW_1
 2048
NPUSHB
 255
 29
 102
 105
 20
 21
 28
 102
 105
 21
 27
 102
 105
 25
 101
 104
 20
 27
 101
 104
 133
 113
 26
 153
 67
 250
 33
 151
 67
 250
 33
 147
 67
 250
 33
 145
 67

StartChar: .notdef
Encoding: 65536 -1 0
Width: 2048
Flags: W
LayerCount: 2
Fore
SplineSet
256 0 m 1,0,-1
 256 1536 l 1,1,-1
 1792 1536 l 1,2,-1
 1792 0 l 1,3,-1
 256 0 l 1,0,-1
384 128 m 1,4,-1
 1664 128 l 1,5,-1
 1664 1408 l 1,6,-1
 384 1408 l 1,7,-1
 384 128 l 1,4,-1
EndSplineSet
EndChar

StartChar: dagger
Encoding: 8224 8224 4
Width: 1237
Flags: W
LayerCount: 2
Fore
SplineSet
705 989 m 1,0,-1
 961 989 l 2,1,2
 996 989 996 989 1021.5 964.5 c 128,-1,3
 1047 940 1047 940 1047 905 c 256,4,5
 1047 870 1047 870 1021.5 845.5 c 128,-1,6
 996 821 996 821 961 821 c 2,7,-1
 705 821 l 1,8,-1
 705 86 l 2,9,10
 705 51 705 51 679.5 25.5 c 128,-1,11
 654 0 654 0 618 0 c 0,12,13
 584 0 584 0 559.5 25.5 c 128,-1,14
 535 51 535 51 535 86 c 2,15,-1
 535 821 l 1,16,-1
 276 821 l 2,17,18
 242 821 242 821 217.5 846 c 128,-1,19
 193 871 193 871 193 905 c 0,20,21
 193 940 193 940 217.5 964.5 c 128,-1,22
 242 989 242 989 276 989 c 2,23,-1
 535 989 l 1,24,-1
 535 1247 l 2,25,26
 535 1282 535 1282 560 1305.5 c 128,-1,27
 585 1329 585 1329 621 1329 c 0,28,29
 655 1329 655 1329 680 1305.5 c 128,-1,30
 705 1282 705 1282 705 1247 c 2,31,-1
 705 989 l 1,0,-1
EndSplineSet
EndChar

StartChar: bullet
Encoding: 8226 8226 5
Width: 1237
Flags: W
LayerCount: 2
Fore
SplineSet
961 502 m 2,0,1
 961 432 961 432 910.5 381 c 128,-1,2
 860 330 860 330 793 330 c 2,3,-1
 444 330 l 2,4,5
 378 330 378 330 329.5 380 c 128,-1,6
 281 430 281 430 281 498 c 2,7,-1
 281 793 l 2,8,9
 281 862 281 862 331 913.5 c 128,-1,10
 381 965 381 965 449 965 c 2,11,-1
 788 965 l 2,12,13
 859 965 859 965 910 914 c 128,-1,14
 961 863 961 863 961 793 c 2,15,-1
 961 502 l 2,0,1
EndSplineSet
EndChar

StartChar: trademark
Encoding: 8482 8482 6
Width: 1237
Flags: W
LayerCount: 2
Fore
SplineSet
574 1186 m 2,0,-1
 441 1186 l 1,1,-1
 441 788 l 2,2,3
 441 756 441 756 420 736 c 128,-1,4
 399 716 399 716 369 716 c 256,5,6
 339 716 339 716 318 736 c 128,-1,7
 297 756 297 756 297 788 c 2,8,-1
 297 1186 l 1,9,-1
 164 1186 l 2,10,11
 131 1186 131 1186 111.5 1206.5 c 128,-1,12
 92 1227 92 1227 92 1257 c 0,13,14
 92 1288 92 1288 111.5 1308.5 c 128,-1,15
 131 1329 131 1329 164 1329 c 2,16,-1
 574 1329 l 2,17,18
 607 1329 607 1329 626.5 1308.5 c 128,-1,19
 646 1288 646 1288 646 1257 c 0,20,21
 646 1227 646 1227 626.5 1206.5 c 128,-1,22
 607 1186 607 1186 574 1186 c 2,0,-1
1248 788 m 2,23,24
 1248 756 1248 756 1227 736 c 128,-1,25
 1206 716 1206 716 1176 716 c 256,26,27
 1146 716 1146 716 1125 736 c 128,-1,28
 1104 756 1104 756 1104 788 c 2,29,-1
 1104 1106 l 1,30,-1
 1014 1038 l 2,31,32
 994 1023 994 1023 971 1023 c 0,33,34
 949 1023 949 1023 928 1038 c 2,35,-1
 838 1106 l 1,36,-1
 838 788 l 2,37,38
 838 756 838 756 817 736 c 128,-1,39
 796 716 796 716 766 716 c 256,40,41
 736 716 736 716 715.5 736 c 128,-1,42
 695 756 695 756 695 788 c 2,43,-1
 695 1249 l 2,44,45
 695 1329 695 1329 753 1329 c 0,46,47
 780 1329 780 1329 809 1307 c 2,48,-1
 971 1186 l 1,49,-1
 1133 1307 l 2,50,51
 1163 1329 1163 1329 1190 1329 c 0,52,53
 1248 1329 1248 1329 1248 1249 c 2,54,-1
 1248 788 l 2,23,24
EndSplineSet
EndChar

StartChar: notequal
Encoding: 8800 8800 7
Width: 1237
Flags: W
LayerCount: 2
Fore
SplineSet
680 606 m 1,0,-1
 967 606 l 2,1,2
 1001 606 1001 606 1026 581 c 128,-1,3
 1051 556 1051 556 1051 522 c 0,4,5
 1051 487 1051 487 1026.5 461.5 c 128,-1,6
 1002 436 1002 436 967 436 c 2,7,-1
 618 436 l 1,8,-1
 532 201 l 2,9,10
 514 146 514 146 454 146 c 0,11,12
 419 146 419 146 393.5 170.5 c 128,-1,13
 368 195 368 195 368 231 c 0,14,15
 368 246 368 246 373 258 c 2,16,-1
 438 436 l 1,17,-1
 287 436 l 2,18,19
 253 436 253 436 228 461.5 c 128,-1,20
 203 487 203 487 203 522 c 256,21,22
 203 557 203 557 228 581.5 c 128,-1,23
 253 606 253 606 287 606 c 2,24,-1
 500 606 l 1,25,-1
 569 799 l 1,26,-1
 287 799 l 2,27,28
 253 799 253 799 228 824 c 128,-1,29
 203 849 203 849 203 883 c 256,30,31
 203 917 203 917 228 942 c 128,-1,32
 253 967 253 967 287 967 c 2,33,-1
 631 967 l 1,34,-1
 719 1206 l 2,35,36
 740 1261 740 1261 797 1261 c 0,37,38
 829 1261 829 1261 856.5 1236.5 c 128,-1,39
 884 1212 884 1212 884 1175 c 0,40,41
 884 1161 884 1161 879 1147 c 2,42,-1
 813 967 l 1,43,-1
 967 967 l 2,44,45
 1002 967 1002 967 1026.5 942.5 c 128,-1,46
 1051 918 1051 918 1051 883 c 256,47,48
 1051 848 1051 848 1026.5 823.5 c 128,-1,49
 1002 799 1002 799 967 799 c 2,50,-1
 752 799 l 1,51,-1
 680 606 l 1,0,-1
EndSplineSet
EndChar

StartChar: infinity
Encoding: 8734 8734 8
Width: 1237
Flags: W
LayerCount: 2
Fore
SplineSet
1059 307 m 2,0,1
 1059 252 1059 252 999 190.5 c 128,-1,2
 939 129 939 129 881 129 c 2,3,-1
 731 129 l 1,4,-1
 618 254 l 1,5,-1
 506 129 l 1,6,-1
 356 129 l 2,7,8
 299 129 299 129 239.5 189 c 128,-1,9
 180 249 180 249 180 307 c 2,10,-1
 180 451 l 2,11,12
 180 511 180 511 239.5 569 c 128,-1,13
 299 627 299 627 356 627 c 2,14,-1
 508 627 l 1,15,-1
 618 506 l 1,16,-1
 729 627 l 1,17,-1
 881 627 l 2,18,19
 939 627 939 627 999 567.5 c 128,-1,20
 1059 508 1059 508 1059 451 c 2,21,-1
 1059 307 l 2,0,1
889 307 m 2,22,-1
 889 451 l 2,23,24
 889 457 889 457 881 457 c 2,25,-1
 805 457 l 1,26,-1
 735 379 l 1,27,-1
 807 299 l 1,28,-1
 881 299 l 2,29,30
 889 299 889 299 889 307 c 2,22,-1
504 379 m 1,31,-1
 432 457 l 1,32,-1
 356 457 l 2,33,34
 350 457 350 457 350 451 c 2,35,-1
 350 307 l 2,36,37
 350 299 350 299 356 299 c 2,38,-1
 430 299 l 1,39,-1
 504 379 l 1,31,-1
EndSplineSet
EndChar

StartChar: lessequal
Encoding: 8804 8804 9
Width: 1237
Flags: W
LayerCount: 2
Fore
SplineSet
401 809 m 1,0,-1
 1020 444 l 2,1,2
 1057 421 1057 421 1057 374 c 0,3,4
 1057 337 1057 337 1031.5 312.5 c 128,-1,5
 1006 288 1006 288 974 288 c 0,6,7
 949 288 949 288 920 305 c 2,8,-1
 258 696 l 2,9,10
 207 725 207 725 207 776 c 2,11,-1
 207 842 l 2,12,13
 207 891 207 891 258 922 c 2,14,-1
 920 1313 l 2,15,16
 947 1330 947 1330 974 1330 c 0,17,18
 1006 1330 1006 1330 1031.5 1305 c 128,-1,19
 1057 1280 1057 1280 1057 1244 c 0,20,21
 1057 1198 1057 1198 1020 1176 c 2,22,-1
 401 809 l 1,0,-1
975 168 m 2,23,24
 1010 168 1010 168 1035.5 143.5 c 128,-1,25
 1061 119 1061 119 1061 84 c 256,26,27
 1061 49 1061 49 1035.5 24.5 c 128,-1,28
 1010 0 1010 0 975 0 c 2,29,-1
 291 0 l 2,30,31
 257 0 257 0 232 24.5 c 128,-1,32
 207 49 207 49 207 84 c 256,33,34
 207 119 207 119 232 143.5 c 128,-1,35
 257 168 257 168 291 168 c 2,36,-1
 975 168 l 2,23,24
EndSplineSet
EndChar

StartChar: greaterequal
Encoding: 8805 8805 10
Width: 1237
Flags: W
LayerCount: 2
Fore
SplineSet
1055 776 m 2,0,1
 1055 725 1055 725 1006 696 c 2,2,-1
 344 305 l 2,3,4
 315 288 315 288 289 288 c 0,5,6
 257 288 257 288 231.5 311.5 c 128,-1,7
 206 335 206 335 206 372 c 0,8,9
 206 420 206 420 244 442 c 2,10,-1
 862 809 l 1,11,-1
 244 1174 l 2,12,13
 206 1197 206 1197 206 1245 c 0,14,15
 206 1283 206 1283 231.5 1306.5 c 128,-1,16
 257 1330 257 1330 289 1330 c 0,17,18
 314 1330 314 1330 344 1313 c 2,19,-1
 1006 922 l 2,20,21
 1055 893 1055 893 1055 842 c 2,22,-1
 1055 776 l 2,0,1
971 168 m 2,23,24
 1005 168 1005 168 1030 143.5 c 128,-1,25
 1055 119 1055 119 1055 84 c 256,26,27
 1055 49 1055 49 1030 24.5 c 128,-1,28
 1005 0 1005 0 971 0 c 2,29,-1
 287 0 l 2,30,31
 251 0 251 0 226 24.5 c 128,-1,32
 201 49 201 49 201 84 c 256,33,34
 201 119 201 119 226 143.5 c 128,-1,35
 251 168 251 168 287 168 c 2,36,-1
 971 168 l 2,23,24
EndSplineSet
EndChar

StartChar: partialdiff
Encoding: 8706 8706 11
Width: 1237
Flags: W
LayerCount: 2
Fore
SplineSet
1053 307 m 2,0,1
 1053 194 1053 194 946.5 98 c 128,-1,2
 840 2 840 2 727 2 c 2,3,-1
 530 2 l 2,4,5
 415 2 415 2 310 99.5 c 128,-1,6
 205 197 205 197 205 307 c 2,7,-1
 205 662 l 2,8,9
 205 772 205 772 307.5 869.5 c 128,-1,10
 410 967 410 967 530 967 c 2,11,-1
 614 967 l 1,12,-1
 395 1186 l 2,13,14
 371 1210 371 1210 371 1245 c 256,15,16
 371 1280 371 1280 395.5 1304.5 c 128,-1,17
 420 1329 420 1329 455 1329 c 0,18,19
 489 1329 489 1329 514 1305 c 2,20,-1
 985 834 l 2,21,22
 1053 766 1053 766 1053 662 c 2,23,-1
 1053 307 l 2,0,1
885 313 m 2,24,-1
 885 653 l 2,25,26
 885 703 885 703 854 727 c 2,27,-1
 795 774 l 2,28,29
 765 799 765 799 725 799 c 2,30,-1
 551 799 l 2,31,32
 494 799 494 799 463 772 c 2,33,-1
 406 723 l 2,34,35
 375 697 375 697 375 655 c 2,36,-1
 375 315 l 2,37,38
 375 269 375 269 408 242 c 2,39,-1
 471 188 l 2,40,41
 492 170 492 170 530 170 c 2,42,-1
 725 170 l 2,43,44
 768 170 768 170 803 201 c 2,45,-1
 854 246 l 2,46,47
 885 270 885 270 885 313 c 2,24,-1
EndSplineSet
EndChar

StartChar: summation
Encoding: 8721 8721 12
Width: 1237
Flags: W
LayerCount: 2
Fore
SplineSet
410 168 m 1,0,-1
 971 168 l 2,1,2
 1005 168 1005 168 1030 143.5 c 128,-1,3
 1055 119 1055 119 1055 84 c 256,4,5
 1055 49 1055 49 1029.5 24.5 c 128,-1,6
 1004 0 1004 0 969 0 c 2,7,-1
 207 0 l 1,8,-1
 207 168 l 1,9,-1
 545 666 l 1,10,-1
 207 1159 l 1,11,-1
 207 1329 l 1,12,-1
 969 1329 l 2,13,14
 1004 1329 1004 1329 1029.5 1303.5 c 128,-1,15
 1055 1278 1055 1278 1055 1243 c 0,16,17
 1055 1209 1055 1209 1029.5 1184 c 128,-1,18
 1004 1159 1004 1159 969 1159 c 2,19,-1
 410 1159 l 1,20,-1
 688 750 l 2,21,22
 727 698 727 698 727 666 c 0,23,24
 727 637 727 637 688 580 c 2,25,-1
 410 168 l 1,0,-1
EndSplineSet
EndChar

StartChar: product
Encoding: 8719 8719 13
Width: 1237
Flags: W
LayerCount: 2
Fore
SplineSet
205 1161 m 1,0,-1
 119 1161 l 2,1,2
 85 1161 85 1161 60 1186 c 128,-1,3
 35 1211 35 1211 35 1245 c 0,4,5
 35 1280 35 1280 60 1304.5 c 128,-1,6
 85 1329 85 1329 119 1329 c 2,7,-1
 1137 1329 l 2,8,9
 1172 1329 1172 1329 1197.5 1304.5 c 128,-1,10
 1223 1280 1223 1280 1223 1245 c 256,11,12
 1223 1210 1223 1210 1197.5 1185.5 c 128,-1,13
 1172 1161 1172 1161 1137 1161 c 2,14,-1
 1053 1161 l 1,15,-1
 1053 86 l 2,16,17
 1053 51 1053 51 1027.5 25.5 c 128,-1,18
 1002 0 1002 0 967 0 c 256,19,20
 932 0 932 0 907.5 25.5 c 128,-1,21
 883 51 883 51 883 86 c 2,22,-1
 883 1161 l 1,23,-1
 375 1161 l 1,24,-1
 375 86 l 2,25,26
 375 51 375 51 349.5 25.5 c 128,-1,27
 324 0 324 0 289 0 c 256,28,29
 254 0 254 0 229.5 25.5 c 128,-1,30
 205 51 205 51 205 86 c 2,31,-1
 205 1161 l 1,0,-1
EndSplineSet
EndChar

StartChar: pi
Encoding: 960 960 14
Width: 1237
Flags: W
LayerCount: 2
Fore
SplineSet
246 797 m 1,0,-1
 160 797 l 2,1,2
 126 797 126 797 101 821.5 c 128,-1,3
 76 846 76 846 76 881 c 0,4,5
 76 915 76 915 101 940 c 128,-1,6
 126 965 126 965 160 965 c 2,7,-1
 1096 965 l 2,8,9
 1131 965 1131 965 1156.5 940.5 c 128,-1,10
 1182 916 1182 916 1182 881 c 256,11,12
 1182 846 1182 846 1156.5 821.5 c 128,-1,13
 1131 797 1131 797 1096 797 c 2,14,-1
 1012 797 l 1,15,-1
 1012 86 l 2,16,17
 1012 51 1012 51 986.5 25.5 c 128,-1,18
 961 0 961 0 926 0 c 256,19,20
 891 0 891 0 866.5 25.5 c 128,-1,21
 842 51 842 51 842 86 c 2,22,-1
 842 797 l 1,23,-1
 416 797 l 1,24,-1
 416 86 l 2,25,26
 416 51 416 51 390.5 25.5 c 128,-1,27
 365 0 365 0 330 0 c 256,28,29
 295 0 295 0 270.5 25.5 c 128,-1,30
 246 51 246 51 246 86 c 2,31,-1
 246 797 l 1,0,-1
EndSplineSet
EndChar

StartChar: integral
Encoding: 8747 8747 15
Width: 1237
Flags: W
LayerCount: 2
Fore
SplineSet
1049 977 m 2,0,1
 1049 942 1049 942 1024.5 917.5 c 128,-1,2
 1000 893 1000 893 965 893 c 0,3,4
 929 893 929 893 905 917.5 c 128,-1,5
 881 942 881 942 881 977 c 2,6,-1
 881 1157 l 1,7,-1
 713 1157 l 1,8,-1
 713 -360 l 1,9,-1
 207 -360 l 1,10,-1
 207 -10 l 2,11,12
 207 25 207 25 231.5 49.5 c 128,-1,13
 256 74 256 74 291 74 c 256,14,15
 326 74 326 74 350.5 49.5 c 128,-1,16
 375 25 375 25 375 -10 c 2,17,-1
 375 -190 l 1,18,-1
 543 -190 l 1,19,-1
 543 1329 l 1,20,-1
 1049 1329 l 1,21,-1
 1049 977 l 2,0,1
EndSplineSet
EndChar

StartChar: uni2126
Encoding: 8486 8486 16
Width: 1237
Flags: W
LayerCount: 2
Fore
SplineSet
893 168 m 1,0,-1
 969 168 l 2,1,2
 1003 168 1003 168 1028 143.5 c 128,-1,3
 1053 119 1053 119 1053 84 c 256,4,5
 1053 49 1053 49 1027.5 24.5 c 128,-1,6
 1002 0 1002 0 967 0 c 2,7,-1
 719 0 l 1,8,-1
 719 168 l 2,9,10
 719 190 719 190 735 231 c 2,11,-1
 858 539 l 2,12,13
 883 604 883 604 883 664 c 2,14,-1
 883 1016 l 2,15,16
 883 1067 883 1067 854 1090 c 2,17,-1
 795 1137 l 2,18,19
 765 1161 765 1161 725 1161 c 2,20,-1
 551 1161 l 2,21,22
 494 1161 494 1161 463 1135 c 2,23,-1
 406 1085 l 2,24,25
 375 1060 375 1060 375 1018 c 2,26,-1
 375 664 l 2,27,28
 375 600 375 600 399 539 c 2,29,-1
 522 231 l 1,30,31
 539 201 539 201 539 168 c 2,32,-1
 539 0 l 1,33,-1
 291 0 l 2,34,35
 255 0 255 0 230 24.5 c 128,-1,36
 205 49 205 49 205 84 c 256,37,38
 205 119 205 119 230 143.5 c 128,-1,39
 255 168 255 168 289 168 c 2,40,-1
 365 168 l 1,41,-1
 242 475 l 2,42,43
 205 564 205 564 205 662 c 2,44,-1
 205 1024 l 2,45,46
 205 1136 205 1136 308.5 1232.5 c 128,-1,47
 412 1329 412 1329 530 1329 c 2,48,-1
 727 1329 l 2,49,50
 822 1329 822 1329 884.5 1283 c 128,-1,51
 947 1237 947 1237 1000 1179.5 c 128,-1,52
 1053 1122 1053 1122 1053 1024 c 2,53,-1
 1053 662 l 2,54,55
 1053 574 1053 574 1014 475 c 2,56,-1
 893 168 l 1,0,-1
EndSplineSet
EndChar

StartChar: radical
Encoding: 8730 8730 17
Width: 1237
Flags: W
LayerCount: 2
Fore
SplineSet
1110 1159 m 2,0,-1
 1059 1159 l 1,1,-1
 705 74 l 2,2,3
 680 1 680 1 626 1 c 0,4,5
 577 1 577 1 547 63 c 2,6,-1
 432 305 l 1,7,-1
 387 305 l 2,8,9
 349 305 349 305 326 329.5 c 128,-1,10
 303 354 303 354 303 390 c 256,11,12
 303 426 303 426 326 450.5 c 128,-1,13
 349 475 349 475 387 475 c 2,14,-1
 487 475 l 2,15,16
 543 475 543 475 565 428 c 2,17,-1
 612 330 l 1,18,-1
 920 1272 l 2,19,20
 939 1329 939 1329 999 1329 c 2,21,-1
 1110 1329 l 2,22,23
 1148 1329 1148 1329 1171.5 1304.5 c 128,-1,24
 1195 1280 1195 1280 1195 1244 c 256,25,26
 1195 1208 1195 1208 1171.5 1183.5 c 128,-1,27
 1148 1159 1148 1159 1110 1159 c 2,0,-1
EndSplineSet
EndChar

StartChar: approxequal
Encoding: 8776 8776 18
Width: 1237
Flags: W
LayerCount: 2
Fore
SplineSet
1061 858 m 2,0,-1
 909 766 l 2,1,2
 881 752 881 752 864 752 c 2,3,-1
 811 752 l 2,4,5
 803 752 803 752 784 758 c 2,6,-1
 528 844 l 1,7,-1
 504 844 l 1,8,-1
 377 766 l 2,9,10
 354 752 354 752 330 752 c 0,11,12
 296 752 296 752 271 779 c 128,-1,13
 246 806 246 806 246 840 c 0,14,15
 246 884 246 884 287 909 c 2,16,-1
 438 1001 l 2,17,18
 457 1014 457 1014 483 1014 c 2,19,-1
 537 1014 l 2,20,21
 551 1014 551 1014 563 1010 c 2,22,-1
 825 922 l 1,23,-1
 840 922 l 1,24,-1
 971 1001 l 2,25,26
 994 1016 994 1016 1017 1016 c 0,27,28
 1052 1016 1052 1016 1077 989 c 128,-1,29
 1102 962 1102 962 1102 927 c 0,30,31
 1102 883 1102 883 1061 858 c 2,0,-1
1061 498 m 2,32,-1
 909 406 l 2,33,34
 881 391 881 391 864 391 c 2,35,-1
 811 391 l 2,36,37
 803 391 803 391 784 397 c 2,38,-1
 528 483 l 1,39,-1
 504 483 l 1,40,-1
 377 406 l 2,41,42
 354 391 354 391 330 391 c 0,43,44
 296 391 296 391 271 418 c 128,-1,45
 246 445 246 445 246 480 c 0,46,47
 246 524 246 524 287 549 c 2,48,-1
 438 641 l 2,49,50
 457 653 457 653 483 653 c 2,51,-1
 537 653 l 2,52,53
 551 653 551 653 563 649 c 2,54,-1
 825 561 l 1,55,-1
 840 561 l 1,56,-1
 971 641 l 2,57,58
 994 655 994 655 1017 655 c 0,59,60
 1052 655 1052 655 1077 628 c 128,-1,61
 1102 601 1102 601 1102 567 c 0,62,63
 1102 523 1102 523 1061 498 c 2,32,-1
EndSplineSet
EndChar

StartChar: uni2206
Encoding: 8710 8710 19
Width: 1237
Flags: W
LayerCount: 2
Fore
SplineSet
1057 0 m 1,0,-1
 209 0 l 1,1,-1
 209 395 l 1,2,-1
 549 1266 l 2,3,4
 574 1329 574 1329 633 1329 c 0,5,6
 690 1329 690 1329 715 1266 c 2,7,-1
 1057 395 l 1,8,-1
 1057 0 l 1,0,-1
889 170 m 1,9,-1
 889 362 l 1,10,-1
 633 1012 l 1,11,-1
 377 360 l 1,12,-1
 377 170 l 1,13,-1
 889 170 l 1,9,-1
EndSplineSet
EndChar

StartChar: ellipsis
Encoding: 8230 8230 20
Width: 1237
Flags: W
LayerCount: 2
Fore
SplineSet
1118 86 m 2,0,1
 1118 51 1118 51 1093.5 26.5 c 128,-1,2
 1069 2 1069 2 1034 2 c 2,3,-1
 950 2 l 2,4,5
 915 2 915 2 890.5 26.5 c 128,-1,6
 866 51 866 51 866 86 c 2,7,-1
 866 158 l 2,8,9
 868 193 868 193 893 218.5 c 128,-1,10
 918 244 918 244 952 244 c 2,11,-1
 1032 244 l 2,12,13
 1067 244 1067 244 1092.5 219 c 128,-1,14
 1118 194 1118 194 1118 160 c 2,15,-1
 1118 86 l 2,0,1
745 86 m 2,16,17
 745 51 745 51 721 26.5 c 128,-1,18
 697 2 697 2 662 2 c 2,19,-1
 578 2 l 2,20,21
 542 2 542 2 518 26.5 c 128,-1,22
 494 51 494 51 494 86 c 2,23,-1
 494 158 l 2,24,25
 495 193 495 193 520 218.5 c 128,-1,26
 545 244 545 244 580 244 c 2,27,-1
 659 244 l 2,28,29
 694 244 694 244 719.5 219 c 128,-1,30
 745 194 745 194 745 160 c 2,31,-1
 745 86 l 2,16,17
373 86 m 2,32,33
 373 51 373 51 348.5 26.5 c 128,-1,34
 324 2 324 2 289 2 c 2,35,-1
 205 2 l 2,36,37
 170 2 170 2 145.5 26.5 c 128,-1,38
 121 51 121 51 121 86 c 2,39,-1
 121 158 l 2,40,41
 122 193 122 193 147 218.5 c 128,-1,42
 172 244 172 244 207 244 c 2,43,-1
 287 244 l 2,44,45
 322 244 322 244 347.5 219 c 128,-1,46
 373 194 373 194 373 160 c 2,47,-1
 373 86 l 2,32,33
EndSplineSet
EndChar

StartChar: endash
Encoding: 8211 8211 21
Width: 1237
Flags: W
LayerCount: 2
Fore
SplineSet
842 752 m 2,0,1
 877 752 877 752 902.5 727.5 c 128,-1,2
 928 703 928 703 928 668 c 256,3,4
 928 633 928 633 902.5 608.5 c 128,-1,5
 877 584 877 584 842 584 c 2,6,-1
 393 584 l 2,7,8
 359 584 359 584 334 608.5 c 128,-1,9
 309 633 309 633 309 668 c 0,10,11
 309 702 309 702 334 727 c 128,-1,12
 359 752 359 752 393 752 c 2,13,-1
 842 752 l 2,0,1
EndSplineSet
EndChar

StartChar: emdash
Encoding: 8212 8212 22
Width: 1237
Flags: W
LayerCount: 2
Fore
SplineSet
1151 752 m 2,0,1
 1186 752 1186 752 1211.5 727.5 c 128,-1,2
 1237 703 1237 703 1237 668 c 256,3,4
 1237 633 1237 633 1211.5 608.5 c 128,-1,5
 1186 584 1186 584 1151 584 c 2,6,-1
 84 584 l 2,7,8
 50 584 50 584 25 608.5 c 128,-1,9
 0 633 0 633 0 668 c 0,10,11
 0 702 0 702 25 727 c 128,-1,12
 50 752 50 752 84 752 c 2,13,-1
 1151 752 l 2,0,1
EndSplineSet
EndChar

StartChar: quotedblleft
Encoding: 8220 8220 23
Width: 1237
Flags: W
LayerCount: 2
Fore
SplineSet
907 893 m 1,0,-1
 993 893 l 2,1,2
 1028 893 1028 893 1052.5 867.5 c 128,-1,3
 1077 842 1077 842 1077 807 c 0,4,5
 1077 773 1077 773 1052 748 c 128,-1,6
 1027 723 1027 723 993 723 c 2,7,-1
 823 723 l 2,8,9
 788 723 788 723 763.5 748.5 c 128,-1,10
 739 774 739 774 739 809 c 2,11,-1
 739 1245 l 2,12,13
 739 1280 739 1280 763.5 1304.5 c 128,-1,14
 788 1329 788 1329 823 1329 c 256,15,16
 858 1329 858 1329 882.5 1304.5 c 128,-1,17
 907 1280 907 1280 907 1245 c 2,18,-1
 907 893 l 1,0,-1
397 893 m 1,19,-1
 483 893 l 2,20,21
 518 893 518 893 542.5 867.5 c 128,-1,22
 567 842 567 842 567 807 c 0,23,24
 567 773 567 773 542 748 c 128,-1,25
 517 723 517 723 483 723 c 2,26,-1
 313 723 l 2,27,28
 278 723 278 723 253.5 748.5 c 128,-1,29
 229 774 229 774 229 809 c 2,30,-1
 229 1245 l 2,31,32
 229 1280 229 1280 253.5 1304.5 c 128,-1,33
 278 1329 278 1329 313 1329 c 0,34,35
 349 1329 349 1329 373 1304.5 c 128,-1,36
 397 1280 397 1280 397 1245 c 2,37,-1
 397 893 l 1,19,-1
EndSplineSet
EndChar

StartChar: quotedblright
Encoding: 8221 8221 24
Width: 1237
Flags: W
LayerCount: 2
Fore
SplineSet
1008 807 m 2,0,1
 1008 772 1008 772 983.5 747.5 c 128,-1,2
 959 723 959 723 924 723 c 0,3,4
 888 723 888 723 864 747.5 c 128,-1,5
 840 772 840 772 840 807 c 2,6,-1
 840 1159 l 1,7,-1
 754 1159 l 2,8,9
 719 1159 719 1159 694.5 1184.5 c 128,-1,10
 670 1210 670 1210 670 1245 c 0,11,12
 670 1279 670 1279 695 1304 c 128,-1,13
 720 1329 720 1329 754 1329 c 2,14,-1
 924 1329 l 2,15,16
 959 1329 959 1329 983.5 1304 c 128,-1,17
 1008 1279 1008 1279 1008 1243 c 2,18,-1
 1008 807 l 2,0,1
498 807 m 2,19,20
 498 772 498 772 473.5 747.5 c 128,-1,21
 449 723 449 723 414 723 c 256,22,23
 379 723 379 723 354.5 747.5 c 128,-1,24
 330 772 330 772 330 807 c 2,25,-1
 330 1159 l 1,26,-1
 244 1159 l 2,27,28
 209 1159 209 1159 184.5 1184.5 c 128,-1,29
 160 1210 160 1210 160 1245 c 0,30,31
 160 1279 160 1279 185 1304 c 128,-1,32
 210 1329 210 1329 244 1329 c 2,33,-1
 414 1329 l 2,34,35
 449 1329 449 1329 473.5 1304 c 128,-1,36
 498 1279 498 1279 498 1243 c 2,37,-1
 498 807 l 2,19,20
EndSplineSet
EndChar

StartChar: quoteleft
Encoding: 8216 8216 25
Width: 1237
Flags: W
LayerCount: 2
Fore
SplineSet
522 893 m 1,0,-1
 778 893 l 2,1,2
 813 893 813 893 837.5 867.5 c 128,-1,3
 862 842 862 842 862 807 c 0,4,5
 862 773 862 773 837 748 c 128,-1,6
 812 723 812 723 778 723 c 2,7,-1
 438 723 l 2,8,9
 403 723 403 723 378.5 748.5 c 128,-1,10
 354 774 354 774 354 809 c 2,11,-1
 354 1245 l 2,12,13
 354 1280 354 1280 378.5 1304.5 c 128,-1,14
 403 1329 403 1329 438 1329 c 256,15,16
 473 1329 473 1329 497.5 1304.5 c 128,-1,17
 522 1280 522 1280 522 1245 c 2,18,-1
 522 893 l 1,0,-1
EndSplineSet
EndChar

StartChar: quoteright
Encoding: 8217 8217 26
Width: 1237
Flags: W
LayerCount: 2
Fore
SplineSet
883 807 m 2,0,1
 883 772 883 772 858.5 747.5 c 128,-1,2
 834 723 834 723 799 723 c 256,3,4
 764 723 764 723 739.5 747.5 c 128,-1,5
 715 772 715 772 715 807 c 2,6,-1
 715 1159 l 1,7,-1
 459 1159 l 2,8,9
 424 1159 424 1159 399.5 1184.5 c 128,-1,10
 375 1210 375 1210 375 1245 c 0,11,12
 375 1279 375 1279 400 1304 c 128,-1,13
 425 1329 425 1329 459 1329 c 2,14,-1
 799 1329 l 2,15,16
 834 1329 834 1329 858.5 1304 c 128,-1,17
 883 1279 883 1279 883 1243 c 2,18,-1
 883 807 l 2,0,1
EndSplineSet
EndChar

StartChar: lozenge
Encoding: 9674 9674 27
Width: 1237
Flags: W
LayerCount: 2
Fore
SplineSet
1059 666 m 1,0,-1
 700 61 l 2,1,2
 663 0 663 0 618 0 c 0,3,4
 571 0 571 0 535 61 c 2,5,-1
 176 664 l 1,6,-1
 535 1268 l 2,7,8
 571 1329 571 1329 618 1329 c 0,9,10
 664 1329 664 1329 700 1268 c 2,11,-1
 1059 666 l 1,0,-1
864 664 m 1,12,-1
 618 1073 l 1,13,-1
 373 666 l 1,14,-1
 618 256 l 1,15,-1
 864 664 l 1,12,-1
EndSplineSet
EndChar

StartChar: Ydieresis
Encoding: 376 376 28
Width: 1237
Flags: W
LayerCount: 2
Fore
SplineSet
1049 1466 m 2,0,1
 1049 1431 1049 1431 1024.5 1406.5 c 0,2,3
 1000 1382 1000 1382 965 1382 c 0,4,5
 929 1382 929 1382 905 1406.5 c 0,6,7
 881 1431 881 1431 881 1466 c 2,8,-1
 881 1609 l 2,9,10
 881 1645 881 1645 905.5 1670 c 0,11,12
 930 1695 930 1695 965 1695 c 0,13,14
 999 1695 999 1695 1024 1670 c 0,15,16
 1049 1645 1049 1645 1049 1609 c 2,17,-1
 1049 1466 l 2,0,1
371 1466 m 2,18,19
 371 1431 371 1431 346.5 1406.5 c 0,20,21
 322 1382 322 1382 287 1382 c 256,22,23
 252 1382 252 1382 227.5 1406.5 c 0,24,25
 203 1431 203 1431 203 1466 c 2,26,-1
 203 1609 l 2,27,28
 203 1644 203 1644 227.5 1668.5 c 0,29,30
 252 1693 252 1693 287 1693 c 256,31,32
 322 1693 322 1693 346.5 1668.5 c 0,33,34
 371 1644 371 1644 371 1609 c 2,35,-1
 371 1466 l 2,18,19
717 637 m 1,36,-1
 717 84 l 2,37,38
 717 49 717 49 692 24.5 c 0,39,40
 667 0 667 0 633 0 c 0,41,42
 597 0 597 0 572 24.5 c 0,43,44
 547 49 547 49 547 84 c 2,45,-1
 547 637 l 1,46,-1
 209 1065 l 1,47,-1
 209 1243 l 2,48,49
 209 1279 209 1279 233.5 1304 c 0,50,51
 258 1329 258 1329 293 1329 c 256,52,53
 328 1329 328 1329 353.5 1303.5 c 0,54,55
 379 1278 379 1278 379 1243 c 2,56,-1
 379 1128 l 1,57,-1
 631 803 l 1,58,-1
 887 1126 l 1,59,-1
 887 1243 l 2,60,61
 887 1278 887 1278 912 1303.5 c 0,62,63
 937 1329 937 1329 971 1329 c 0,64,65
 1004 1329 1004 1329 1029.5 1305.5 c 0,66,67
 1055 1282 1055 1282 1055 1243 c 2,68,-1
 1055 1067 l 1,69,-1
 717 637 l 1,36,-1
EndSplineSet
EndChar

StartChar: fraction
Encoding: 8725 8725 29
Width: 1237
Flags: W
LayerCount: 2
Fore
SplineSet
1238 1192 m 2,0,-1
 148 35 l 2,1,2
 125 10 125 10 96 10 c 0,3,4
 66 10 66 10 43 33.5 c 128,-1,5
 20 57 20 57 20 86 c 0,6,7
 20 114 20 114 41 137 c 2,8,-1
 1131 1294 l 2,9,10
 1154 1319 1154 1319 1183 1319 c 0,11,12
 1213 1319 1213 1319 1236 1296 c 128,-1,13
 1259 1273 1259 1273 1259 1243 c 0,14,15
 1259 1215 1259 1215 1238 1192 c 2,0,-1
EndSplineSet
EndChar

StartChar: Euro
Encoding: 8364 8364 30
Width: 1237
Flags: W
LayerCount: 2
Fore
SplineSet
453 439 m 1,0,1
 552 237 552 237 564.5 214 c 128,-1,2
 577 191 577 191 599 181 c 128,-1,3
 621 171 621 171 676 171 c 2,4,-1
 956 171 l 2,5,6
 993 171 993 171 1017.5 149 c 128,-1,7
 1042 127 1042 127 1042 85 c 0,8,9
 1042 45 1042 45 1017 22.5 c 128,-1,10
 992 0 992 0 956 0 c 2,11,-1
 655 0 l 2,12,13
 561 0 561 0 501 38.5 c 128,-1,14
 441 77 441 77 401 156 c 2,15,-1
 260 439 l 1,16,-1
 175 439 l 2,17,18
 135 439 135 439 111.5 462 c 128,-1,19
 88 485 88 485 88 525 c 256,20,21
 88 565 88 565 111.5 588 c 128,-1,22
 135 611 135 611 175 611 c 2,23,-1
 197 611 l 1,24,25
 193 644 193 644 193 663 c 0,26,27
 193 690 193 690 197 726 c 1,28,-1
 175 726 l 2,29,30
 135 726 135 726 111.5 749 c 128,-1,31
 88 772 88 772 88 812 c 256,32,33
 88 852 88 852 111.5 875 c 128,-1,34
 135 898 135 898 175 898 c 2,35,-1
 264 898 l 1,36,-1
 404 1179 l 2,37,38
 427 1226 427 1226 461 1262.5 c 128,-1,39
 495 1299 495 1299 543.5 1317 c 128,-1,40
 592 1335 592 1335 665 1335 c 2,41,-1
 956 1335 l 2,42,43
 993 1335 993 1335 1017.5 1313 c 128,-1,44
 1042 1291 1042 1291 1042 1250 c 0,45,46
 1042 1210 1042 1210 1017 1187 c 128,-1,47
 992 1164 992 1164 956 1164 c 2,48,-1
 670 1164 l 2,49,50
 594 1164 594 1164 577.5 1138.5 c 128,-1,51
 561 1113 561 1113 453 898 c 1,52,-1
 868 898 l 2,53,54
 909 898 909 898 932 875 c 128,-1,55
 955 852 955 852 955 812 c 256,56,57
 955 772 955 772 932 749 c 128,-1,58
 909 726 909 726 868 726 c 2,59,-1
 374 726 l 1,60,61
 365 695 365 695 365 663 c 0,62,63
 365 641 365 641 372 611 c 1,64,-1
 822 611 l 2,65,66
 862 611 862 611 885 588 c 128,-1,67
 908 565 908 565 908 525 c 256,68,69
 908 485 908 485 885 462 c 128,-1,70
 862 439 862 439 822 439 c 2,71,-1
 453 439 l 1,0,1
EndSplineSet
EndChar

StartChar: guilsinglleft
Encoding: 8249 8249 31
Width: 1237
Flags: W
LayerCount: 2
Fore
SplineSet
764 305 m 2,0,1
 772 287 772 287 772 269 c 0,2,3
 772 233 772 233 745.5 209.5 c 128,-1,4
 719 186 719 186 686 186 c 0,5,6
 632 186 632 186 610 233 c 2,7,-1
 469 539 l 2,8,9
 461 559 461 559 461 575 c 0,10,11
 461 595 461 595 469 612 c 2,12,-1
 610 918 l 2,13,14
 634 965 634 965 686 965 c 0,15,16
 719 965 719 965 745.5 941.5 c 128,-1,17
 772 918 772 918 772 882 c 0,18,19
 772 864 772 864 764 846 c 2,20,-1
 639 575 l 1,21,-1
 764 305 l 2,0,1
EndSplineSet
EndChar

StartChar: guilsinglright
Encoding: 8250 8250 32
Width: 1237
Flags: W
LayerCount: 2
Fore
SplineSet
604 575 m 1,0,-1
 479 846 l 2,1,2
 471 863 471 863 471 882 c 0,3,4
 471 918 471 918 497.5 941.5 c 128,-1,5
 524 965 524 965 557 965 c 0,6,7
 611 965 611 965 633 918 c 2,8,-1
 774 612 l 2,9,10
 782 592 782 592 782 575 c 0,11,12
 782 556 782 556 774 539 c 2,13,-1
 633 233 l 2,14,15
 609 186 609 186 557 186 c 0,16,17
 524 186 524 186 497.5 209.5 c 128,-1,18
 471 233 471 233 471 269 c 0,19,20
 471 287 471 287 479 305 c 2,21,-1
 604 575 l 1,0,-1
EndSplineSet
EndChar

StartChar: uniF001
Encoding: 61441 61441 33
Width: 1237
Flags: W
LayerCount: 2
Fore
SplineSet
1053 84 m 2,0,1
 1053 49 1053 49 1028 24.5 c 128,-1,2
 1003 0 1003 0 969 0 c 0,3,4
 933 0 933 0 908 24.5 c 128,-1,5
 883 49 883 49 883 84 c 2,6,-1
 883 797 l 1,7,-1
 375 797 l 1,8,-1
 375 84 l 2,9,10
 375 49 375 49 350 24.5 c 128,-1,11
 325 0 325 0 291 0 c 0,12,13
 255 0 255 0 230 24.5 c 128,-1,14
 205 49 205 49 205 84 c 2,15,-1
 205 797 l 1,16,-1
 119 797 l 2,17,18
 84 797 84 797 59.5 822 c 128,-1,19
 35 847 35 847 35 881 c 0,20,21
 35 914 35 914 57.5 939.5 c 128,-1,22
 80 965 80 965 119 965 c 2,23,-1
 207 965 l 1,24,-1
 207 1030 l 2,25,26
 207 1159 207 1159 295.5 1244 c 128,-1,27
 384 1329 384 1329 516 1329 c 2,28,-1
 713 1329 l 2,29,30
 748 1329 748 1329 772.5 1304 c 128,-1,31
 797 1279 797 1279 797 1243 c 0,32,33
 797 1209 797 1209 772 1184 c 128,-1,34
 747 1159 747 1159 713 1159 c 2,35,-1
 516 1159 l 2,36,37
 456 1159 456 1159 416.5 1123 c 128,-1,38
 377 1087 377 1087 377 1030 c 2,39,-1
 377 965 l 1,40,-1
 969 965 l 2,41,42
 1004 965 1004 965 1028.5 939.5 c 128,-1,43
 1053 914 1053 914 1053 879 c 2,44,-1
 1053 84 l 2,0,1
EndSplineSet
EndChar

StartChar: uniF002
Encoding: 61442 61442 34
Width: 1237
Flags: W
LayerCount: 2
Fore
SplineSet
1053 84 m 2,0,1
 1053 49 1053 49 1028 24.5 c 128,-1,2
 1003 0 1003 0 969 0 c 0,3,4
 933 0 933 0 908 24.5 c 128,-1,5
 883 49 883 49 883 84 c 2,6,-1
 883 1159 l 1,7,-1
 516 1159 l 2,8,9
 456 1159 456 1159 416.5 1123 c 128,-1,10
 377 1087 377 1087 377 1030 c 2,11,-1
 377 965 l 1,12,-1
 545 965 l 2,13,14
 579 966 579 966 604 941 c 128,-1,15
 629 916 629 916 629 881 c 0,16,17
 629 847 629 847 604 822 c 128,-1,18
 579 797 579 797 545 797 c 2,19,-1
 375 797 l 1,20,-1
 375 84 l 2,21,22
 375 49 375 49 350 24.5 c 128,-1,23
 325 0 325 0 291 0 c 0,24,25
 255 0 255 0 230 24.5 c 128,-1,26
 205 49 205 49 205 84 c 2,27,-1
 205 797 l 1,28,-1
 119 797 l 2,29,30
 84 797 84 797 59.5 822 c 128,-1,31
 35 847 35 847 35 881 c 0,32,33
 35 914 35 914 57.5 939.5 c 128,-1,34
 80 965 80 965 119 965 c 2,35,-1
 207 965 l 1,36,-1
 207 1030 l 2,37,38
 207 1159 207 1159 295.5 1244 c 128,-1,39
 384 1329 384 1329 516 1329 c 2,40,-1
 969 1329 l 2,41,42
 1003 1329 1003 1329 1028 1304 c 128,-1,43
 1053 1279 1053 1279 1053 1245 c 2,44,-1
 1053 84 l 2,0,1
EndSplineSet
EndChar

StartChar: daggerdbl
Encoding: 8225 8225 35
Width: 1237
Flags: W
LayerCount: 2
Fore
SplineSet
705 508 m 1,0,-1
 961 508 l 2,1,2
 996 508 996 508 1021.5 483.5 c 128,-1,3
 1047 459 1047 459 1047 424 c 256,4,5
 1047 389 1047 389 1021.5 364.5 c 128,-1,6
 996 340 996 340 961 340 c 2,7,-1
 705 340 l 1,8,-1
 705 82 l 2,9,10
 705 48 705 48 680 24 c 128,-1,11
 655 0 655 0 621 0 c 0,12,13
 585 0 585 0 560 23.5 c 128,-1,14
 535 47 535 47 535 82 c 2,15,-1
 535 340 l 1,16,-1
 276 340 l 2,17,18
 242 340 242 340 217.5 364.5 c 128,-1,19
 193 389 193 389 193 424 c 256,20,21
 193 459 193 459 217.5 483.5 c 128,-1,22
 242 508 242 508 276 508 c 2,23,-1
 535 508 l 1,24,-1
 535 821 l 1,25,-1
 276 821 l 2,26,27
 242 821 242 821 217.5 846 c 128,-1,28
 193 871 193 871 193 905 c 0,29,30
 193 940 193 940 217.5 964.5 c 128,-1,31
 242 989 242 989 276 989 c 2,32,-1
 535 989 l 1,33,-1
 535 1247 l 2,34,35
 535 1282 535 1282 560 1305.5 c 128,-1,36
 585 1329 585 1329 621 1329 c 0,37,38
 655 1329 655 1329 680 1305.5 c 128,-1,39
 705 1282 705 1282 705 1247 c 2,40,-1
 705 989 l 1,41,-1
 961 989 l 2,42,43
 996 989 996 989 1021.5 964.5 c 128,-1,44
 1047 940 1047 940 1047 905 c 256,45,46
 1047 870 1047 870 1021.5 845.5 c 128,-1,47
 996 821 996 821 961 821 c 2,48,-1
 705 821 l 1,49,-1
 705 508 l 1,0,-1
EndSplineSet
EndChar

StartChar: periodcentered
Encoding: 8729 8729 36
Width: 1237
Flags: W
LayerCount: 2
Fore
SplineSet
797 737 m 2,0,1
 797 702 797 702 772.5 676.5 c 128,-1,2
 748 651 748 651 713 651 c 2,3,-1
 541 651 l 2,4,5
 506 651 506 651 481.5 676 c 128,-1,6
 457 701 457 701 457 735 c 2,7,-1
 457 881 l 2,8,9
 457 916 457 916 482 940.5 c 128,-1,10
 507 965 507 965 543 965 c 2,11,-1
 713 965 l 2,12,13
 747 965 747 965 772 940 c 128,-1,14
 797 915 797 915 797 881 c 2,15,-1
 797 737 l 2,0,1
EndSplineSet
EndChar

StartChar: quotesinglbase
Encoding: 8218 8218 37
Width: 1237
Flags: W
LayerCount: 2
Fore
SplineSet
883 86 m 2,0,1
 883 51 883 51 858.5 26.5 c 128,-1,2
 834 2 834 2 799 2 c 256,3,4
 764 2 764 2 739.5 26.5 c 128,-1,5
 715 51 715 51 715 86 c 2,6,-1
 715 438 l 1,7,-1
 459 438 l 2,8,9
 424 438 424 438 399.5 463.5 c 128,-1,10
 375 489 375 489 375 524 c 0,11,12
 375 558 375 558 400 583 c 128,-1,13
 425 608 425 608 459 608 c 2,14,-1
 799 608 l 2,15,16
 834 608 834 608 858.5 583 c 128,-1,17
 883 558 883 558 883 522 c 2,18,-1
 883 86 l 2,0,1
EndSplineSet
EndChar

StartChar: quotedblbase
Encoding: 8222 8222 38
Width: 1237
Flags: W
LayerCount: 2
Fore
SplineSet
1008 86 m 2,0,1
 1008 51 1008 51 983.5 26.5 c 128,-1,2
 959 2 959 2 924 2 c 0,3,4
 888 2 888 2 864 26.5 c 128,-1,5
 840 51 840 51 840 86 c 2,6,-1
 840 438 l 1,7,-1
 754 438 l 2,8,9
 719 438 719 438 694.5 463.5 c 128,-1,10
 670 489 670 489 670 524 c 0,11,12
 670 558 670 558 695 583 c 128,-1,13
 720 608 720 608 754 608 c 2,14,-1
 924 608 l 2,15,16
 959 608 959 608 983.5 583 c 128,-1,17
 1008 558 1008 558 1008 522 c 2,18,-1
 1008 86 l 2,0,1
498 86 m 2,19,20
 498 51 498 51 473.5 26.5 c 128,-1,21
 449 2 449 2 414 2 c 256,22,23
 379 2 379 2 354.5 26.5 c 128,-1,24
 330 51 330 51 330 86 c 2,25,-1
 330 438 l 1,26,-1
 244 438 l 2,27,28
 209 438 209 438 184.5 463.5 c 128,-1,29
 160 489 160 489 160 524 c 0,30,31
 160 558 160 558 185 583 c 128,-1,32
 210 608 210 608 244 608 c 2,33,-1
 414 608 l 2,34,35
 449 608 449 608 473.5 583 c 128,-1,36
 498 558 498 558 498 522 c 2,37,-1
 498 86 l 2,19,20
EndSplineSet
EndChar

StartChar: perthousand
Encoding: 8240 8240 39
Width: 1237
Flags: W
LayerCount: 2
Fore
SplineSet
1028 1184 m 2,0,-1
 348 420 l 2,1,2
 327 395 327 395 293 395 c 0,3,4
 260 395 260 395 232.5 419.5 c 128,-1,5
 205 444 205 444 205 478 c 0,6,7
 205 513 205 513 227 539 c 2,8,-1
 907 1305 l 2,9,10
 928 1330 928 1330 965 1330 c 0,11,12
 1000 1330 1000 1330 1025.5 1306.5 c 128,-1,13
 1051 1283 1051 1283 1051 1248 c 0,14,15
 1051 1210 1051 1210 1028 1184 c 2,0,-1
543 1098 m 2,16,17
 543 1063 543 1063 518 1037.5 c 128,-1,18
 493 1012 493 1012 459 1012 c 2,19,-1
 285 1012 l 2,20,21
 251 1012 251 1012 227 1037 c 128,-1,22
 203 1062 203 1062 203 1096 c 2,23,-1
 203 1243 l 2,24,25
 203 1278 203 1278 228 1303.5 c 128,-1,26
 253 1329 253 1329 287 1329 c 2,27,-1
 457 1329 l 2,28,29
 492 1329 492 1329 517.5 1303.5 c 128,-1,30
 543 1278 543 1278 543 1243 c 2,31,-1
 543 1098 l 2,16,17
1049 84 m 2,32,33
 1049 49 1049 49 1024.5 24.5 c 128,-1,34
 1000 0 1000 0 965 0 c 2,35,-1
 793 0 l 2,36,37
 758 0 758 0 734.5 24 c 128,-1,38
 711 48 711 48 711 84 c 2,39,-1
 711 231 l 2,40,41
 711 267 711 267 735 291 c 128,-1,42
 759 315 759 315 795 315 c 2,43,-1
 965 315 l 2,44,45
 1000 315 1000 315 1024.5 291 c 128,-1,46
 1049 267 1049 267 1049 231 c 2,47,-1
 1049 84 l 2,32,33
541 84 m 2,48,49
 541 49 541 49 516.5 24.5 c 128,-1,50
 492 0 492 0 457 0 c 2,51,-1
 285 0 l 2,52,53
 250 0 250 0 226.5 24 c 128,-1,54
 203 48 203 48 203 84 c 2,55,-1
 203 231 l 2,56,57
 203 267 203 267 227.5 291 c 128,-1,58
 252 315 252 315 287 315 c 2,59,-1
 457 315 l 2,60,61
 492 315 492 315 516.5 291 c 128,-1,62
 541 267 541 267 541 231 c 2,63,-1
 541 84 l 2,48,49
EndSplineSet
EndChar

StartChar: uniF000
Encoding: 61440 61440 40
Width: 1237
Flags: W
LayerCount: 2
Fore
SplineSet
961 502 m 2,0,1
 961 432 961 432 910.5 381 c 128,-1,2
 860 330 860 330 793 330 c 2,3,-1
 444 330 l 2,4,5
 378 330 378 330 329.5 380 c 128,-1,6
 281 430 281 430 281 498 c 2,7,-1
 281 793 l 2,8,9
 281 862 281 862 331 913.5 c 128,-1,10
 381 965 381 965 449 965 c 2,11,-1
 788 965 l 2,12,13
 859 965 859 965 910 914 c 128,-1,14
 961 863 961 863 961 793 c 2,15,-1
 961 502 l 2,0,1
EndSplineSet
EndChar

StartChar: circumflex
Encoding: 710 710 41
Width: 1237
Flags: W
LayerCount: 2
Fore
SplineSet
627 1151 m 1,0,-1
 357 1026 l 2,1,2
 340 1018 340 1018 321 1018 c 0,3,4
 285 1018 285 1018 261.5 1044.5 c 128,-1,5
 238 1071 238 1071 238 1104 c 0,6,7
 238 1158 238 1158 285 1180 c 2,8,-1
 591 1321 l 2,9,10
 611 1329 611 1329 627 1329 c 0,11,12
 647 1329 647 1329 664 1321 c 2,13,-1
 970 1180 l 2,14,15
 1017 1156 1017 1156 1017 1104 c 0,16,17
 1017 1071 1017 1071 993.5 1044.5 c 128,-1,18
 970 1018 970 1018 934 1018 c 0,19,20
 916 1018 916 1018 898 1026 c 2,21,-1
 627 1151 l 1,0,-1
EndSplineSet
EndChar

StartChar: tilde
Encoding: 732 732 42
Width: 1237
Flags: W
LayerCount: 2
Fore
SplineSet
1061 1171 m 2,0,-1
 909 1079 l 2,1,2
 881 1065 881 1065 864 1065 c 2,3,-1
 811 1065 l 2,4,5
 803 1065 803 1065 784 1071 c 2,6,-1
 528 1157 l 1,7,-1
 504 1157 l 1,8,-1
 377 1079 l 2,9,10
 354 1065 354 1065 330 1065 c 0,11,12
 296 1065 296 1065 271 1092 c 128,-1,13
 246 1119 246 1119 246 1154 c 0,14,15
 246 1198 246 1198 287 1223 c 2,16,-1
 438 1315 l 2,17,18
 457 1327 457 1327 483 1327 c 2,19,-1
 537 1327 l 2,20,21
 551 1327 551 1327 563 1323 c 2,22,-1
 825 1235 l 1,23,-1
 840 1235 l 1,24,-1
 971 1315 l 2,25,26
 994 1329 994 1329 1017 1329 c 0,27,28
 1052 1329 1052 1329 1077 1302 c 128,-1,29
 1102 1275 1102 1275 1102 1240 c 0,30,31
 1102 1196 1102 1196 1061 1171 c 2,0,-1
EndSplineSet
EndChar

StartChar: macron
Encoding: 713 713 43
Width: 1237
Flags: W
LayerCount: 2
Fore
SplineSet
889 1329 m 2,0,1
 924 1329 924 1329 949.5 1304.5 c 128,-1,2
 975 1280 975 1280 975 1245 c 256,3,4
 975 1210 975 1210 949.5 1185.5 c 128,-1,5
 924 1161 924 1161 889 1161 c 2,6,-1
 369 1161 l 2,7,8
 335 1161 335 1161 310 1186 c 128,-1,9
 285 1211 285 1211 285 1245 c 0,10,11
 285 1280 285 1280 310 1304.5 c 128,-1,12
 335 1329 335 1329 369 1329 c 2,13,-1
 889 1329 l 2,0,1
EndSplineSet
EndChar

StartChar: breve
Encoding: 728 728 44
Width: 1237
Flags: W
LayerCount: 2
Fore
SplineSet
922 1329 m 0,0,1
 957 1329 957 1329 982.5 1307.5 c 128,-1,2
 1008 1286 1008 1286 1008 1257 c 0,3,4
 1008 1190 1008 1190 887 1104 c 128,-1,5
 766 1018 766 1018 618 1018 c 0,6,7
 471 1018 471 1018 350 1104 c 128,-1,8
 229 1190 229 1190 229 1257 c 0,9,10
 229 1286 229 1286 254.5 1307.5 c 128,-1,11
 280 1329 280 1329 315 1329 c 0,12,13
 356 1329 356 1329 381 1305 c 0,14,15
 490 1188 490 1188 618 1188 c 0,16,17
 747 1188 747 1188 856 1305 c 0,18,19
 881 1329 881 1329 922 1329 c 0,0,1
EndSplineSet
EndChar

StartChar: dotaccent
Encoding: 729 729 45
Width: 1237
Flags: W
LayerCount: 2
Fore
SplineSet
702 1102 m 2,0,1
 702 1067 702 1067 678 1042.5 c 128,-1,2
 654 1018 654 1018 618 1018 c 0,3,4
 583 1018 583 1018 559 1042.5 c 128,-1,5
 535 1067 535 1067 535 1102 c 2,6,-1
 535 1245 l 2,7,8
 535 1280 535 1280 559 1304.5 c 128,-1,9
 583 1329 583 1329 618 1329 c 0,10,11
 654 1329 654 1329 678 1304.5 c 128,-1,12
 702 1280 702 1280 702 1245 c 2,13,-1
 702 1102 l 2,0,1
EndSplineSet
EndChar

StartChar: ring
Encoding: 730 730 46
Width: 1237
Flags: W
LayerCount: 2
Fore
SplineSet
811 1165 m 2,0,1
 811 1109 811 1109 757.5 1060.5 c 128,-1,2
 704 1012 704 1012 647 1012 c 2,3,-1
 590 1012 l 2,4,5
 533 1012 533 1012 480.5 1060 c 128,-1,6
 428 1108 428 1108 428 1165 c 2,7,-1
 428 1239 l 2,8,9
 428 1296 428 1296 479.5 1344.5 c 128,-1,10
 531 1393 531 1393 590 1393 c 2,11,-1
 647 1393 l 2,12,13
 705 1393 705 1393 758 1344 c 128,-1,14
 811 1295 811 1295 811 1239 c 2,15,-1
 811 1165 l 2,0,1
700 1178 m 2,16,-1
 700 1227 l 2,17,18
 700 1246 700 1246 675.5 1264 c 128,-1,19
 651 1282 651 1282 641 1282 c 2,20,-1
 604 1282 l 2,21,22
 585 1282 585 1282 562 1262.5 c 128,-1,23
 539 1243 539 1243 539 1229 c 2,24,-1
 539 1178 l 2,25,26
 539 1158 539 1158 551 1149 c 2,27,-1
 575 1130 l 2,28,29
 584 1122 584 1122 598 1122 c 2,30,-1
 641 1122 l 2,31,32
 659 1122 659 1122 688 1153 c 1,33,34
 700 1157 700 1157 700 1178 c 2,16,-1
EndSplineSet
EndChar

StartChar: hungarumlaut
Encoding: 733 733 47
Width: 1237
Flags: W
LayerCount: 2
Fore
SplineSet
946 1188 m 2,0,-1
 798 1040 l 2,1,2
 774 1016 774 1016 739 1016 c 256,3,4
 704 1016 704 1016 679.5 1040.5 c 128,-1,5
 655 1065 655 1065 655 1100 c 256,6,7
 655 1135 655 1135 679 1159 c 2,8,-1
 827 1307 l 2,9,10
 851 1331 851 1331 886 1331 c 256,11,12
 921 1331 921 1331 945.5 1306.5 c 128,-1,13
 970 1282 970 1282 970 1247 c 256,14,15
 970 1212 970 1212 946 1188 c 2,0,-1
606 1188 m 2,16,-1
 458 1040 l 2,17,18
 434 1016 434 1016 399 1016 c 256,19,20
 364 1016 364 1016 339.5 1040.5 c 128,-1,21
 315 1065 315 1065 315 1100 c 256,22,23
 315 1135 315 1135 339 1159 c 2,24,-1
 487 1307 l 2,25,26
 511 1331 511 1331 546 1331 c 256,27,28
 581 1331 581 1331 605.5 1306.5 c 128,-1,29
 630 1282 630 1282 630 1247 c 256,30,31
 630 1212 630 1212 606 1188 c 2,16,-1
EndSplineSet
EndChar

StartChar: ogonek
Encoding: 731 731 48
Width: 1237
Flags: W
LayerCount: 2
Fore
SplineSet
522 -190 m 1,0,-1
 778 -190 l 2,1,2
 813 -190 813 -190 837.5 -215.5 c 128,-1,3
 862 -241 862 -241 862 -276 c 0,4,5
 862 -310 862 -310 837 -335 c 128,-1,6
 812 -360 812 -360 778 -360 c 2,7,-1
 438 -360 l 2,8,9
 403 -360 403 -360 378.5 -335 c 128,-1,10
 354 -310 354 -310 354 -274 c 2,11,-1
 354 0 l 1,12,-1
 522 0 l 1,13,-1
 522 -190 l 1,0,-1
EndSplineSet
EndChar

StartChar: caron
Encoding: 711 711 49
Width: 1237
Flags: W
LayerCount: 2
Fore
SplineSet
627 1196 m 1,0,-1
 898 1321 l 2,1,2
 915 1329 915 1329 934 1329 c 0,3,4
 970 1329 970 1329 993.5 1302.5 c 128,-1,5
 1017 1276 1017 1276 1017 1243 c 0,6,7
 1017 1189 1017 1189 970 1167 c 2,8,-1
 664 1026 l 2,9,10
 644 1018 644 1018 627 1018 c 0,11,12
 608 1018 608 1018 591 1026 c 2,13,-1
 285 1167 l 2,14,15
 238 1191 238 1191 238 1243 c 0,16,17
 238 1276 238 1276 261.5 1302.5 c 128,-1,18
 285 1329 285 1329 321 1329 c 0,19,20
 339 1329 339 1329 357 1321 c 2,21,-1
 627 1196 l 1,0,-1
EndSplineSet
EndChar

StartChar: minus
Encoding: 8722 8722 50
Width: 1237
Flags: W
LayerCount: 2
Fore
SplineSet
961 752 m 2,0,1
 996 752 996 752 1021.5 727.5 c 128,-1,2
 1047 703 1047 703 1047 668 c 256,3,4
 1047 633 1047 633 1021.5 608.5 c 128,-1,5
 996 584 996 584 961 584 c 2,6,-1
 276 584 l 2,7,8
 242 584 242 584 217.5 608.5 c 128,-1,9
 193 633 193 633 193 668 c 0,10,11
 193 702 193 702 217.5 727 c 128,-1,12
 242 752 242 752 276 752 c 2,13,-1
 961 752 l 2,0,1
EndSplineSet
EndChar

StartChar: uniF003
Encoding: 61443 61443 51
Width: 1237
Flags: W
LayerCount: 2
Fore
SplineSet
901 841 m 2,0,-1
 881 841 l 1,1,-1
 881 768 l 2,2,3
 881 734 881 734 859.5 714 c 128,-1,4
 838 694 838 694 807 694 c 256,5,6
 776 694 776 694 754.5 714 c 128,-1,7
 733 734 733 734 733 768 c 2,8,-1
 733 841 l 1,9,-1
 469 841 l 2,10,11
 395 841 395 841 395 915 c 2,12,-1
 395 1255 l 2,13,14
 395 1289 395 1289 416.5 1309 c 128,-1,15
 438 1329 438 1329 469 1329 c 256,16,17
 500 1329 500 1329 521.5 1309 c 128,-1,18
 543 1289 543 1289 543 1255 c 2,19,-1
 543 989 l 1,20,-1
 733 989 l 1,21,-1
 733 1235 l 2,22,23
 733 1268 733 1268 754.5 1288 c 128,-1,24
 776 1308 776 1308 807 1308 c 256,25,26
 838 1308 838 1308 859.5 1288 c 128,-1,27
 881 1268 881 1268 881 1235 c 2,28,-1
 881 989 l 1,29,-1
 901 989 l 2,30,31
 935 989 935 989 955 967.5 c 128,-1,32
 975 946 975 946 975 915 c 256,33,34
 975 884 975 884 955 862.5 c 128,-1,35
 935 841 935 841 901 841 c 2,0,-1
EndSplineSet
EndChar

StartChar: Amacron
Encoding: 256 256 52
Width: 1237
Flags: W
LayerCount: 2
Fore
SplineSet
889 1597.5 m 6,0,1
 924 1597.5 924 1597.5 949.5 1573 c 132,-1,2
 975 1548.5 975 1548.5 975 1513.5 c 260,3,4
 975 1478.5 975 1478.5 949.5 1454 c 132,-1,5
 924 1429.5 924 1429.5 889 1429.5 c 6,6,-1
 369 1429.5 l 6,7,8
 335 1429.5 335 1429.5 310 1454.5 c 132,-1,9
 285 1479.5 285 1479.5 285 1513.5 c 4,10,11
 285 1548.5 285 1548.5 310 1573 c 132,-1,12
 335 1597.5 335 1597.5 369 1597.5 c 6,13,-1
 889 1597.5 l 6,0,1
212 117 m 2,14,-1
 552 1266 l 2,15,16
 572 1329 572 1329 636 1329 c 0,17,18
 698 1329 698 1329 714 1276 c 2,19,-1
 1049 109 l 2,20,21
 1053 96 1053 96 1053 84 c 0,22,23
 1053 49 1053 49 1029 24.5 c 128,-1,24
 1005 0 1005 0 974 0 c 0,25,26
 908 0 908 0 890 61 c 2,27,-1
 822 289 l 1,28,-1
 439 289 l 1,29,-1
 365 45 l 2,30,31
 362 29 362 29 340 14.5 c 128,-1,32
 318 0 318 0 292 0 c 0,33,34
 255 0 255 0 231 25 c 128,-1,35
 207 50 207 50 207 86 c 0,36,37
 207 101 207 101 212 117 c 2,14,-1
634 940 m 1,38,-1
 490 459 l 1,39,-1
 773 459 l 1,40,-1
 634 940 l 1,38,-1
EndSplineSet
EndChar

StartChar: amacron
Encoding: 257 257 53
Width: 1237
Flags: W
LayerCount: 2
Fore
SplineSet
889 1283 m 6,0,1
 924 1283 924 1283 949.5 1258.5 c 132,-1,2
 975 1234 975 1234 975 1199 c 260,3,4
 975 1164 975 1164 949.5 1139.5 c 132,-1,5
 924 1115 924 1115 889 1115 c 6,6,-1
 369 1115 l 6,7,8
 335 1115 335 1115 310 1140 c 132,-1,9
 285 1165 285 1165 285 1199 c 4,10,11
 285 1234 285 1234 310 1258.5 c 132,-1,12
 335 1283 335 1283 369 1283 c 6,13,-1
 889 1283 l 6,0,1
457 606 m 2,14,-1
 786 606 l 2,15,16
 813 606 813 606 864 594 c 1,17,-1
 862 713 l 2,18,19
 862 748 862 748 837.5 772.5 c 128,-1,20
 813 797 813 797 778 797 c 2,21,-1
 459 797 l 2,22,23
 425 797 425 797 400 822 c 128,-1,24
 375 847 375 847 375 881 c 0,25,26
 375 916 375 916 399.5 940.5 c 128,-1,27
 424 965 424 965 459 965 c 2,28,-1
 778 965 l 2,29,30
 882 965 882 965 955.5 892 c 128,-1,31
 1029 819 1029 819 1032 713 c 2,32,-1
 1053 84 l 2,33,34
 1053 49 1053 49 1028 24.5 c 128,-1,35
 1003 0 1003 0 969 0 c 0,36,37
 933 0 933 0 908 24.5 c 128,-1,38
 883 49 883 49 883 84 c 1,39,-1
 741 0 l 1,40,-1
 457 0 l 2,41,42
 351 0 351 0 277 74 c 128,-1,43
 203 148 203 148 203 254 c 2,44,-1
 203 352 l 2,45,46
 203 457 203 457 277.5 531.5 c 128,-1,47
 352 606 352 606 457 606 c 2,14,-1
877 279 m 1,48,-1
 872 350 l 2,49,50
 871 386 871 386 847 410 c 128,-1,51
 823 434 823 434 788 434 c 2,52,-1
 457 434 l 2,53,54
 422 434 422 434 397.5 409.5 c 128,-1,55
 373 385 373 385 373 350 c 2,56,-1
 373 256 l 2,57,58
 373 222 373 222 398 197 c 128,-1,59
 423 172 423 172 457 172 c 2,60,-1
 694 172 l 1,61,-1
 877 279 l 1,48,-1
EndSplineSet
EndChar

StartChar: Abreve
Encoding: 258 258 54
Width: 1237
Flags: W
LayerCount: 2
Fore
SplineSet
941 1747 m 4,0,1
 976 1747 976 1747 1001.5 1725.5 c 132,-1,2
 1027 1704 1027 1704 1027 1675 c 4,3,4
 1027 1608 1027 1608 906 1522 c 132,-1,5
 785 1436 785 1436 637 1436 c 4,6,7
 490 1436 490 1436 369 1522 c 132,-1,8
 248 1608 248 1608 248 1675 c 4,9,10
 248 1704 248 1704 273.5 1725.5 c 132,-1,11
 299 1747 299 1747 334 1747 c 4,12,13
 375 1747 375 1747 400 1723 c 4,14,15
 509 1606 509 1606 637 1606 c 4,16,17
 766 1606 766 1606 875 1723 c 4,18,19
 900 1747 900 1747 941 1747 c 4,0,1
212 117 m 2,20,-1
 552 1266 l 2,21,22
 572 1329 572 1329 636 1329 c 0,23,24
 698 1329 698 1329 714 1276 c 2,25,-1
 1049 109 l 2,26,27
 1053 96 1053 96 1053 84 c 0,28,29
 1053 49 1053 49 1029 24.5 c 128,-1,30
 1005 0 1005 0 974 0 c 0,31,32
 908 0 908 0 890 61 c 2,33,-1
 822 289 l 1,34,-1
 439 289 l 1,35,-1
 365 45 l 2,36,37
 362 29 362 29 340 14.5 c 128,-1,38
 318 0 318 0 292 0 c 0,39,40
 255 0 255 0 231 25 c 128,-1,41
 207 50 207 50 207 86 c 0,42,43
 207 101 207 101 212 117 c 2,20,-1
634 940 m 1,44,-1
 490 459 l 1,45,-1
 773 459 l 1,46,-1
 634 940 l 1,44,-1
EndSplineSet
EndChar

StartChar: abreve
Encoding: 259 259 55
Width: 1237
Flags: W
LayerCount: 2
Fore
SplineSet
941 1408 m 4,0,1
 976 1408 976 1408 1001.5 1386.5 c 132,-1,2
 1027 1365 1027 1365 1027 1336 c 4,3,4
 1027 1269 1027 1269 906 1183 c 132,-1,5
 785 1097 785 1097 637 1097 c 4,6,7
 490 1097 490 1097 369 1183 c 132,-1,8
 248 1269 248 1269 248 1336 c 4,9,10
 248 1365 248 1365 273.5 1386.5 c 132,-1,11
 299 1408 299 1408 334 1408 c 4,12,13
 375 1408 375 1408 400 1384 c 4,14,15
 509 1267 509 1267 637 1267 c 4,16,17
 766 1267 766 1267 875 1384 c 4,18,19
 900 1408 900 1408 941 1408 c 4,0,1
457 606 m 2,20,-1
 786 606 l 2,21,22
 813 606 813 606 864 594 c 1,23,-1
 862 713 l 2,24,25
 862 748 862 748 837.5 772.5 c 128,-1,26
 813 797 813 797 778 797 c 2,27,-1
 459 797 l 2,28,29
 425 797 425 797 400 822 c 128,-1,30
 375 847 375 847 375 881 c 0,31,32
 375 916 375 916 399.5 940.5 c 128,-1,33
 424 965 424 965 459 965 c 2,34,-1
 778 965 l 2,35,36
 882 965 882 965 955.5 892 c 128,-1,37
 1029 819 1029 819 1032 713 c 2,38,-1
 1053 84 l 2,39,40
 1053 49 1053 49 1028 24.5 c 128,-1,41
 1003 0 1003 0 969 0 c 0,42,43
 933 0 933 0 908 24.5 c 128,-1,44
 883 49 883 49 883 84 c 1,45,-1
 741 0 l 1,46,-1
 457 0 l 2,47,48
 351 0 351 0 277 74 c 128,-1,49
 203 148 203 148 203 254 c 2,50,-1
 203 352 l 2,51,52
 203 457 203 457 277.5 531.5 c 128,-1,53
 352 606 352 606 457 606 c 2,20,-1
877 279 m 1,54,-1
 872 350 l 2,55,56
 871 386 871 386 847 410 c 128,-1,57
 823 434 823 434 788 434 c 2,58,-1
 457 434 l 2,59,60
 422 434 422 434 397.5 409.5 c 128,-1,61
 373 385 373 385 373 350 c 2,62,-1
 373 256 l 2,63,64
 373 222 373 222 398 197 c 128,-1,65
 423 172 423 172 457 172 c 2,66,-1
 694 172 l 1,67,-1
 877 279 l 1,54,-1
EndSplineSet
EndChar

StartChar: Aogonek
Encoding: 260 260 56
Width: 1237
Flags: W
LayerCount: 2
Fore
SplineSet
1053 84 m 1,0,-1
 1053 -68 l 1,1,-1
 1153 -68 l 2,2,3
 1188 -68 1188 -68 1212.5 -93.5 c 128,-1,4
 1237 -119 1237 -119 1237 -154 c 0,5,6
 1237 -188 1237 -188 1212 -213 c 128,-1,7
 1187 -238 1187 -238 1153 -238 c 2,8,-1
 969 -238 l 2,9,-1
 909.5 -213 l 0,10,11
 885 -198 885 -198 885 -152 c 2,12,-1
 885 84 l 1,13,-1
 1053 84 l 1,0,-1
212 117 m 2,14,-1
 552 1266 l 2,15,16
 572 1329 572 1329 636 1329 c 0,17,18
 698 1329 698 1329 714 1276 c 2,19,-1
 1049 109 l 2,20,21
 1053 96 1053 96 1053 84 c 0,22,23
 1053 49 1053 49 1029 24.5 c 128,-1,24
 1005 0 1005 0 974 0 c 0,25,26
 908 0 908 0 890 61 c 2,27,-1
 822 289 l 1,28,-1
 439 289 l 1,29,-1
 365 45 l 2,30,31
 362 29 362 29 340 14.5 c 128,-1,32
 318 0 318 0 292 0 c 0,33,34
 255 0 255 0 231 25 c 128,-1,35
 207 50 207 50 207 86 c 0,36,37
 207 101 207 101 212 117 c 2,14,-1
634 940 m 1,38,-1
 490 459 l 1,39,-1
 773 459 l 1,40,-1
 634 940 l 1,38,-1
EndSplineSet
EndChar

StartChar: aogonek
Encoding: 261 261 57
Width: 1237
Flags: W
LayerCount: 2
Fore
SplineSet
1053 84 m 5,0,-1
 1053 -106 l 5,1,-1
 1173 -106 l 6,2,3
 1208 -106 1208 -106 1232.5 -131.5 c 132,-1,4
 1257 -157 1257 -157 1257 -192 c 4,5,6
 1257 -226 1257 -226 1232 -251 c 132,-1,7
 1207 -276 1207 -276 1173 -276 c 6,8,-1
 969 -276 l 6,9,10
 954 -276 954 -276 909.5 -251 c 4,11,12
 885 -237 885 -237 885 -190 c 6,13,-1
 885 84 l 5,14,-1
 1053 84 l 5,0,-1
457 606 m 2,15,-1
 786 606 l 2,16,17
 813 606 813 606 864 594 c 1,18,-1
 862 713 l 2,19,20
 862 748 862 748 837.5 772.5 c 128,-1,21
 813 797 813 797 778 797 c 2,22,-1
 459 797 l 2,23,24
 425 797 425 797 400 822 c 128,-1,25
 375 847 375 847 375 881 c 0,26,27
 375 916 375 916 399.5 940.5 c 128,-1,28
 424 965 424 965 459 965 c 2,29,-1
 778 965 l 2,30,31
 882 965 882 965 955.5 892 c 128,-1,32
 1029 819 1029 819 1032 713 c 2,33,-1
 1053 84 l 6,34,35
 1053 49 1053 49 1028 24.5 c 132,-1,36
 1003 0 1003 0 969 0 c 4,37,38
 933 0 933 0 908 24.5 c 132,-1,39
 883 49 883 49 883 84 c 5,40,-1
 741 0 l 1,41,-1
 457 0 l 2,42,43
 351 0 351 0 277 74 c 128,-1,44
 203 148 203 148 203 254 c 2,45,-1
 203 352 l 2,46,47
 203 457 203 457 277.5 531.5 c 128,-1,48
 352 606 352 606 457 606 c 2,15,-1
877 279 m 1,49,-1
 872 350 l 2,50,51
 871 386 871 386 847 410 c 128,-1,52
 823 434 823 434 788 434 c 2,53,-1
 457 434 l 2,54,55
 422 434 422 434 397.5 409.5 c 128,-1,56
 373 385 373 385 373 350 c 2,57,-1
 373 256 l 2,58,59
 373 222 373 222 398 197 c 128,-1,60
 423 172 423 172 457 172 c 2,61,-1
 694 172 l 1,62,-1
 877 279 l 1,49,-1
EndSplineSet
EndChar

StartChar: Cacute
Encoding: 262 262 58
Width: 1237
Flags: W
LayerCount: 2
Fore
SplineSet
735 1685 m 2,0,1
 753 1693 753 1693 772 1693 c 0,2,3
 808 1693 808 1693 831 1666.5 c 0,4,5
 854 1640 854 1640 854 1607 c 0,6,7
 854 1553 854 1553 807 1531 c 2,8,-1
 502 1390 l 2,9,10
 484 1382 484 1382 465 1382 c 0,11,12
 429 1382 429 1382 406 1408.5 c 0,13,14
 383 1435 383 1435 383 1468 c 0,15,16
 383 1522 383 1522 430 1544 c 2,17,-1
 735 1685 l 2,0,1
668 168 m 2,18,-1
 971 168 l 2,19,20
 1006 168 1006 168 1031.5 143.5 c 0,21,22
 1057 119 1057 119 1057 84 c 256,23,24
 1057 49 1057 49 1031.5 24.5 c 0,25,26
 1006 0 1006 0 971 0 c 2,27,-1
 657 0 l 2,28,29
 597 0 597 0 533 38 c 0,30,31
 469 76 469 76 444 123 c 2,32,-1
 250 498 l 2,33,34
 211 579 211 579 211 664 c 0,35,36
 211 758 211 758 248 827 c 2,37,-1
 444 1198 l 2,38,39
 472 1250 472 1250 531 1289.5 c 0,40,41
 590 1329 590 1329 645 1329 c 2,42,-1
 977 1329 l 2,43,44
 1012 1329 1012 1329 1036.5 1304 c 0,45,46
 1061 1279 1061 1279 1061 1245 c 0,47,48
 1061 1210 1061 1210 1036.5 1184.5 c 0,49,50
 1012 1159 1012 1159 977 1159 c 2,51,-1
 657 1159 l 2,52,53
 617 1159 617 1159 592 1112 c 2,54,-1
 406 764 l 2,55,56
 384 723 384 723 384 667 c 0,57,58
 384 608 384 608 408 563 c 2,59,-1
 586 221 l 2,60,61
 611 168 611 168 668 168 c 2,18,-1
EndSplineSet
EndChar

StartChar: Dcroat
Encoding: 272 272 59
Width: 1237
Flags: W
LayerCount: 2
Fore
SplineSet
375 1159 m 1,0,-1
 289 1159 l 2,1,2
 254 1159 254 1159 229.5 1184.5 c 128,-1,3
 205 1210 205 1210 205 1245 c 0,4,5
 205 1279 205 1279 229.5 1304 c 128,-1,6
 254 1329 254 1329 289 1329 c 2,7,-1
 621 1329 l 2,8,9
 686 1328 686 1328 747.5 1287 c 128,-1,10
 809 1246 809 1246 838 1188 c 2,11,-1
 1004 852 l 2,12,13
 1051 761 1051 761 1051 662 c 0,14,15
 1051 570 1051 570 1001 473 c 2,16,-1
 834 141 l 2,17,18
 802 77 802 77 742 38.5 c 128,-1,19
 682 0 682 0 608 0 c 2,20,-1
 287 0 l 2,21,22
 252 0 252 0 227.5 25 c 128,-1,23
 203 50 203 50 203 84 c 0,24,25
 203 119 203 119 227.5 144.5 c 128,-1,26
 252 170 252 170 287 170 c 2,27,-1
 375 170 l 1,28,-1
 375 584 l 5,29,-1
 287 584 l 6,30,31
 253 584 253 584 228 608.5 c 132,-1,32
 203 633 203 633 203 668 c 4,33,34
 203 702 203 702 228 727 c 132,-1,35
 253 752 253 752 287 752 c 6,36,-1
 375 752 l 5,37,-1
 375 1159 l 1,0,-1
543 168 m 1,38,-1
 602 168 l 2,39,40
 658 168 658 168 686 223 c 2,41,-1
 852 553 l 2,42,43
 883 618 883 618 883 662 c 0,44,45
 883 717 883 717 858 766 c 2,46,-1
 686 1108 l 2,47,48
 659 1159 659 1159 598 1159 c 2,49,-1
 543 1159 l 1,50,-1
 543 752 l 5,51,-1
 627 752 l 6,52,53
 662 752 662 752 687.5 727.5 c 132,-1,54
 713 703 713 703 713 668 c 260,55,56
 713 633 713 633 687.5 608.5 c 132,-1,57
 662 584 662 584 627 584 c 6,58,-1
 543 584 l 5,59,-1
 543 168 l 1,38,-1
EndSplineSet
EndChar

StartChar: cacute
Encoding: 263 263 60
Width: 1237
Flags: W
LayerCount: 2
Fore
SplineSet
858 1321 m 2,0,1
 876 1329 876 1329 895 1329 c 0,2,3
 931 1329 931 1329 954 1302.5 c 0,4,5
 977 1276 977 1276 977 1243 c 0,6,7
 977 1189 977 1189 930 1167 c 2,8,-1
 625 1026 l 2,9,10
 607 1018 607 1018 588 1018 c 0,11,12
 552 1018 552 1018 529 1044.5 c 0,13,14
 506 1071 506 1071 506 1104 c 0,15,16
 506 1158 506 1158 553 1180 c 2,17,-1
 858 1321 l 2,0,1
971 0 m 2,18,-1
 612 0 l 2,19,20
 517 0 517 0 450 57 c 2,21,-1
 287 199 l 2,22,23
 209 264 209 264 209 375 c 2,24,-1
 209 594 l 1,25,26
 205 701 205 701 297 780 c 2,27,-1
 444 907 l 2,28,29
 515 965 515 965 596 965 c 2,30,-1
 973 965 l 2,31,32
 1008 965 1008 965 1032.5 940.5 c 0,33,34
 1057 916 1057 916 1057 881 c 0,35,36
 1057 845 1057 845 1032.5 821 c 0,37,38
 1008 797 1008 797 973 797 c 2,39,-1
 612 797 l 2,40,41
 578 797 578 797 547 770 c 2,42,-1
 412 655 l 2,43,44
 379 627 379 627 379 580 c 2,45,-1
 379 375 l 2,46,47
 379 342 379 342 405 319 c 2,48,-1
 553 193 l 2,49,50
 581 168 581 168 627 168 c 2,51,-1
 971 168 l 2,52,53
 1005 168 1005 168 1030 143.5 c 0,54,55
 1055 119 1055 119 1055 84 c 256,56,57
 1055 49 1055 49 1030.5 24.5 c 0,58,59
 1006 0 1006 0 971 0 c 2,18,-1
EndSplineSet
EndChar

StartChar: Ccircumflex
Encoding: 264 264 61
Width: 1237
Flags: W
LayerCount: 2
Fore
SplineSet
668 168 m 2,0,-1
 971 168 l 2,1,2
 1006 168 1006 168 1031.5 143.5 c 0,3,4
 1057 119 1057 119 1057 84 c 256,5,6
 1057 49 1057 49 1031.5 24.5 c 0,7,8
 1006 0 1006 0 971 0 c 2,9,-1
 657 0 l 2,10,11
 597 0 597 0 533 38 c 0,12,13
 469 76 469 76 444 123 c 2,14,-1
 250 498 l 2,15,16
 211 579 211 579 211 664 c 0,17,18
 211 758 211 758 248 827 c 2,19,-1
 444 1198 l 2,20,21
 472 1250 472 1250 531 1289.5 c 0,22,23
 590 1329 590 1329 645 1329 c 2,24,-1
 977 1329 l 2,25,26
 1012 1329 1012 1329 1036.5 1304 c 0,27,28
 1061 1279 1061 1279 1061 1245 c 0,29,30
 1061 1210 1061 1210 1036.5 1184.5 c 0,31,32
 1012 1159 1012 1159 977 1159 c 2,33,-1
 657 1159 l 2,34,35
 617 1159 617 1159 592 1112 c 2,36,-1
 406 764 l 2,37,38
 384 723 384 723 384 667 c 0,39,40
 384 608 384 608 408 563 c 2,41,-1
 586 221 l 2,42,43
 611 168 611 168 668 168 c 2,0,-1
EndSplineSet
Refer: 41 710 S 1 0 0 1 117 364 2
EndChar

StartChar: ccircumflex
Encoding: 265 265 62
Width: 1237
Flags: W
LayerCount: 2
Fore
SplineSet
971 0 m 2,0,-1
 612 0 l 2,1,2
 517 0 517 0 450 57 c 2,3,-1
 287 199 l 2,4,5
 209 264 209 264 209 375 c 2,6,-1
 209 594 l 1,7,8
 205 701 205 701 297 780 c 2,9,-1
 444 907 l 2,10,11
 515 965 515 965 596 965 c 2,12,-1
 973 965 l 2,13,14
 1008 965 1008 965 1032.5 940.5 c 0,15,16
 1057 916 1057 916 1057 881 c 0,17,18
 1057 845 1057 845 1032.5 821 c 0,19,20
 1008 797 1008 797 973 797 c 2,21,-1
 612 797 l 2,22,23
 578 797 578 797 547 770 c 2,24,-1
 412 655 l 2,25,26
 379 627 379 627 379 580 c 2,27,-1
 379 375 l 2,28,29
 379 342 379 342 405 319 c 2,30,-1
 553 193 l 2,31,32
 581 168 581 168 627 168 c 2,33,-1
 971 168 l 2,34,35
 1005 168 1005 168 1030 143.5 c 0,36,37
 1055 119 1055 119 1055 84 c 256,38,39
 1055 49 1055 49 1030.5 24.5 c 0,40,41
 1006 0 1006 0 971 0 c 2,0,-1
EndSplineSet
Refer: 41 710 S 1 0 0 1 54 0 2
EndChar

StartChar: Cdotaccent
Encoding: 266 266 63
Width: 1237
Flags: W
LayerCount: 2
Fore
SplineSet
854 1477.5 m 6,0,1
 854 1444 854 1444 830 1418 c 4,2,3
 809 1396 809 1396 770 1396.5 c 4,4,5
 726 1396 726 1396 711 1421 c 4,6,7
 687 1460 687 1460 687 1477.5 c 6,8,-1
 687 1527 l 6,9,10
 687 1562 687 1562 711 1586.5 c 4,11,12
 733.595703125 1610.5078125 733.595703125 1610.5078125 770 1611 c 4,13,14
 807 1612 807 1612 830 1586.5 c 4,15,16
 854 1560 854 1560 854 1527 c 6,17,-1
 854 1477.5 l 6,0,1
668 168 m 2,18,-1
 971 168 l 2,19,20
 1006 168 1006 168 1031.5 143.5 c 128,-1,21
 1057 119 1057 119 1057 84 c 256,22,23
 1057 49 1057 49 1031.5 24.5 c 128,-1,24
 1006 0 1006 0 971 0 c 2,25,-1
 657 0 l 2,26,27
 597 0 597 0 533 38 c 128,-1,28
 469 76 469 76 444 123 c 2,29,-1
 250 498 l 2,30,31
 211 579 211 579 211 664 c 0,32,33
 211 758 211 758 248 827 c 2,34,-1
 444 1198 l 2,35,36
 472 1250 472 1250 531 1289.5 c 128,-1,37
 590 1329 590 1329 645 1329 c 2,38,-1
 977 1329 l 2,39,40
 1012 1329 1012 1329 1036.5 1304 c 128,-1,41
 1061 1279 1061 1279 1061 1245 c 0,42,43
 1061 1210 1061 1210 1036.5 1184.5 c 128,-1,44
 1012 1159 1012 1159 977 1159 c 2,45,-1
 657 1159 l 2,46,47
 617 1159 617 1159 592 1112 c 2,48,-1
 406 764 l 2,49,50
 384 723 384 723 384 667 c 0,51,52
 384 608 384 608 408 563 c 2,53,-1
 586 221 l 2,54,55
 611 168 611 168 668 168 c 2,18,-1
EndSplineSet
EndChar

StartChar: cdotaccent
Encoding: 267 267 64
Width: 1237
Flags: W
LayerCount: 2
Fore
SplineSet
826 1102 m 6,0,1
 826 1068.5 826 1068.5 802 1042.5 c 4,2,3
 781 1020.5 781 1020.5 742 1021 c 4,4,5
 698 1020.5 698 1020.5 683 1045.5 c 4,6,7
 659 1084.5 659 1084.5 659 1102 c 6,8,-1
 659 1151.5 l 6,9,10
 659 1186.5 659 1186.5 683 1211 c 4,11,12
 705.595703125 1235.0078125 705.595703125 1235.0078125 742 1235.5 c 4,13,14
 779 1236.5 779 1236.5 802 1211 c 4,15,16
 826 1184.5 826 1184.5 826 1151.5 c 6,17,-1
 826 1102 l 6,0,1
971 0 m 2,18,-1
 612 0 l 2,19,20
 517 0 517 0 450 57 c 2,21,-1
 287 199 l 2,22,23
 209 264 209 264 209 375 c 2,24,-1
 209 594 l 1,25,26
 205 701 205 701 297 780 c 2,27,-1
 444 907 l 2,28,29
 515 965 515 965 596 965 c 2,30,-1
 973 965 l 2,31,32
 1008 965 1008 965 1032.5 940.5 c 128,-1,33
 1057 916 1057 916 1057 881 c 0,34,35
 1057 845 1057 845 1032.5 821 c 128,-1,36
 1008 797 1008 797 973 797 c 2,37,-1
 612 797 l 2,38,39
 578 797 578 797 547 770 c 2,40,-1
 412 655 l 2,41,42
 379 627 379 627 379 580 c 2,43,-1
 379 375 l 2,44,45
 379 342 379 342 405 319 c 2,46,-1
 553 193 l 2,47,48
 581 168 581 168 627 168 c 2,49,-1
 971 168 l 2,50,51
 1005 168 1005 168 1030 143.5 c 128,-1,52
 1055 119 1055 119 1055 84 c 256,53,54
 1055 49 1055 49 1030.5 24.5 c 128,-1,55
 1006 0 1006 0 971 0 c 2,18,-1
EndSplineSet
EndChar

StartChar: Ccaron
Encoding: 268 268 65
Width: 1237
Flags: W
LayerCount: 2
Fore
SplineSet
668 168 m 2,0,-1
 971 168 l 2,1,2
 1006 168 1006 168 1031.5 143.5 c 0,3,4
 1057 119 1057 119 1057 84 c 256,5,6
 1057 49 1057 49 1031.5 24.5 c 0,7,8
 1006 0 1006 0 971 0 c 2,9,-1
 657 0 l 2,10,11
 597 0 597 0 533 38 c 0,12,13
 469 76 469 76 444 123 c 2,14,-1
 250 498 l 2,15,16
 211 579 211 579 211 664 c 0,17,18
 211 758 211 758 248 827 c 2,19,-1
 444 1198 l 2,20,21
 472 1250 472 1250 531 1289.5 c 0,22,23
 590 1329 590 1329 645 1329 c 2,24,-1
 977 1329 l 2,25,26
 1012 1329 1012 1329 1036.5 1304 c 0,27,28
 1061 1279 1061 1279 1061 1245 c 0,29,30
 1061 1210 1061 1210 1036.5 1184.5 c 0,31,32
 1012 1159 1012 1159 977 1159 c 2,33,-1
 657 1159 l 2,34,35
 617 1159 617 1159 592 1112 c 2,36,-1
 406 764 l 2,37,38
 384 723 384 723 384 667 c 0,39,40
 384 608 384 608 408 563 c 2,41,-1
 586 221 l 2,42,43
 611 168 611 168 668 168 c 2,0,-1
EndSplineSet
Refer: 49 711 S 1 0 0 1 123 364 2
EndChar

StartChar: ccaron
Encoding: 269 269 66
Width: 1237
Flags: W
LayerCount: 2
Fore
SplineSet
971 0 m 2,0,-1
 612 0 l 2,1,2
 517 0 517 0 450 57 c 2,3,-1
 287 199 l 2,4,5
 209 264 209 264 209 375 c 2,6,-1
 209 594 l 1,7,8
 205 701 205 701 297 780 c 2,9,-1
 444 907 l 2,10,11
 515 965 515 965 596 965 c 2,12,-1
 973 965 l 2,13,14
 1008 965 1008 965 1032.5 940.5 c 0,15,16
 1057 916 1057 916 1057 881 c 0,17,18
 1057 845 1057 845 1032.5 821 c 0,19,20
 1008 797 1008 797 973 797 c 2,21,-1
 612 797 l 2,22,23
 578 797 578 797 547 770 c 2,24,-1
 412 655 l 2,25,26
 379 627 379 627 379 580 c 2,27,-1
 379 375 l 2,28,29
 379 342 379 342 405 319 c 2,30,-1
 553 193 l 2,31,32
 581 168 581 168 627 168 c 2,33,-1
 971 168 l 2,34,35
 1005 168 1005 168 1030 143.5 c 0,36,37
 1055 119 1055 119 1055 84 c 256,38,39
 1055 49 1055 49 1030.5 24.5 c 0,40,41
 1006 0 1006 0 971 0 c 2,0,-1
EndSplineSet
Refer: 49 711 S 1 0 0 1 90 3 2
EndChar

StartChar: Dcaron
Encoding: 270 270 67
Width: 1237
Flags: W
LayerCount: 2
Fore
SplineSet
627 1556 m 5,0,-1
 898 1681 l 6,1,2
 915 1689 915 1689 934 1689 c 4,3,4
 970 1689 970 1689 993.5 1662.5 c 132,-1,5
 1017 1636 1017 1636 1017 1622 c 4,6,7
 1017 1549 1017 1549 970 1527 c 6,8,-1
 664 1386 l 6,9,10
 647 1378 647 1378 627 1378 c 4,11,12
 608.361328125 1378 608.361328125 1378 591 1386 c 6,13,-1
 285 1527 l 6,14,15
 238 1549 238 1549 238 1603 c 4,16,17
 238 1636 238 1636 261.5 1662.5 c 132,-1,18
 285 1689 285 1689 321 1689 c 4,19,20
 339.719726562 1689 339.719726562 1689 357 1681 c 6,21,-1
 627 1556 l 5,0,-1
289 1329 m 2,22,-1
 621 1329 l 2,23,24
 686 1328 686 1328 747.5 1287 c 128,-1,25
 809 1246 809 1246 838 1188 c 2,26,-1
 1004 852 l 2,27,28
 1051 761 1051 761 1051 662 c 0,29,30
 1051 570 1051 570 1001 473 c 2,31,-1
 834 141 l 2,32,33
 802 77 802 77 742 38.5 c 128,-1,34
 682 0 682 0 608 0 c 2,35,-1
 287 0 l 2,36,37
 252 0 252 0 227.5 25 c 128,-1,38
 203 50 203 50 203 84 c 0,39,40
 203 119 203 119 227.5 144.5 c 128,-1,41
 252 170 252 170 287 170 c 2,42,-1
 375 170 l 1,43,-1
 375 1159 l 1,44,-1
 289 1159 l 2,45,46
 254 1159 254 1159 229.5 1184.5 c 128,-1,47
 205 1210 205 1210 205 1245 c 0,48,49
 205 1279 205 1279 229.5 1304 c 128,-1,50
 254 1329 254 1329 289 1329 c 2,22,-1
543 1159 m 1,51,-1
 543 168 l 1,52,-1
 602 168 l 2,53,54
 658 168 658 168 686 223 c 2,55,-1
 852 553 l 2,56,57
 883 618 883 618 883 662 c 0,58,59
 883 717 883 717 858 766 c 2,60,-1
 686 1108 l 2,61,62
 659 1159 659 1159 598 1159 c 2,63,-1
 543 1159 l 1,51,-1
EndSplineSet
EndChar

StartChar: dcaron
Encoding: 271 271 68
Width: 1237
Flags: W
LayerCount: 2
Fore
SplineSet
1046.25 1319.29980469 m 6,0,-1
 1145.84960938 1319.29980469 l 6,1,2
 1166.84960938 1319.29980469 1166.84960938 1319.29980469 1181.84960938 1304 c 132,-1,3
 1196.84960938 1288.70019531 1196.84960938 1288.70019531 1196.84960938 1268.29980469 c 4,4,5
 1196.84960938 1261.70019531 1196.84960938 1261.70019531 1195.05078125 1255.70019531 c 6,6,-1
 1094.25 908.900390625 l 6,7,8
 1082.25 871.100585938 1082.25 871.100585938 1045.05078125 871.100585938 c 4,9,10
 1022.84960938 871.100585938 1022.84960938 871.100585938 1008.15039062 886.700195312 c 132,-1,11
 993.44921875 902.299804688 993.44921875 902.299804688 993.44921875 925.100585938 c 6,12,-1
 993.44921875 1262.90039062 l 6,13,14
 993.44921875 1286.90039062 993.44921875 1286.90039062 1007.55078125 1303.10058594 c 132,-1,15
 1021.65039062 1319.29980469 1021.65039062 1319.29980469 1046.25 1319.29980469 c 6,0,-1
722.150390625 848 m 1,16,-1
 722.150390625 1245 l 2,17,18
 722.150390625 1280 722.150390625 1280 746.150390625 1304.5 c 128,-1,19
 770.150390625 1329 770.150390625 1329 804.150390625 1329 c 0,20,21
 839.150390625 1329 839.150390625 1329 864.650390625 1304.5 c 128,-1,22
 890.150390625 1280 890.150390625 1280 890.150390625 1245 c 6,23,-1
 890.150390625 84 l 2,24,25
 890.150390625 49 890.150390625 49 865.150390625 24.5 c 128,-1,26
 840.150390625 0 840.150390625 0 806.150390625 0 c 0,27,28
 770.150390625 0 770.150390625 0 746.150390625 24.5 c 128,-1,29
 722.150390625 49 722.150390625 49 722.150390625 84 c 2,30,-1
 722.150390625 121 l 1,31,32
 599.150390625 0 599.150390625 0 492.150390625 0 c 2,33,-1
 349.150390625 0 l 2,34,35
 263.150390625 0 263.150390625 0 177.150390625 74 c 2,36,-1
 107.150390625 133 l 2,37,38
 83.150390625 156 83.150390625 156 61.650390625 210 c 128,-1,39
 40.150390625 264 40.150390625 264 40.150390625 311 c 2,40,-1
 40.150390625 653 l 2,41,42
 40.150390625 710 40.150390625 710 64.150390625 763.5 c 128,-1,43
 88.150390625 817 88.150390625 817 120.150390625 844 c 2,44,-1
 189.150390625 903 l 2,45,46
 263.150390625 967 263.150390625 967 363.150390625 967 c 2,47,-1
 484.150390625 967 l 2,48,49
 583.150390625 967 583.150390625 967 664.150390625 897 c 2,50,-1
 722.150390625 848 l 1,16,-1
478.150390625 797 m 2,51,-1
 361.150390625 797 l 2,52,53
 324.150390625 797 324.150390625 797 294.150390625 770 c 2,54,-1
 240.150390625 723 l 2,55,56
 212.150390625 698 212.150390625 698 212.150390625 659 c 2,57,-1
 212.150390625 303 l 2,58,59
 212.150390625 268 212.150390625 268 245.150390625 240 c 2,60,-1
 300.150390625 193 l 2,61,62
 326.150390625 170 326.150390625 170 355.150390625 170 c 2,63,-1
 492.150390625 170 l 2,64,65
 519.150390625 170 519.150390625 170 556.150390625 201 c 2,66,-1
 689.150390625 311 l 2,67,68
 722.150390625 340 722.150390625 340 722.150390625 383 c 2,69,-1
 722.150390625 565 l 2,70,71
 722.150390625 626 722.150390625 626 687.150390625 655 c 2,72,-1
 550.150390625 772 l 2,73,74
 523.150390625 797 523.150390625 797 478.150390625 797 c 2,51,-1
EndSplineSet
EndChar

StartChar: dcroat
Encoding: 273 273 69
Width: 1236
Flags: W
LayerCount: 2
Fore
SplineSet
885 1026.5 m 5,0,-1
 797 1026.5 l 6,1,2
 763 1026.5 763 1026.5 738 1051 c 132,-1,3
 713 1075.5 713 1075.5 713 1110.5 c 4,4,5
 713 1144.5 713 1144.5 738 1169.5 c 132,-1,6
 763 1194.5 763 1194.5 797 1194.5 c 6,7,-1
 1053 1194.5 l 5,8,-1
 1137 1194.5 l 6,9,10
 1172 1194.5 1172 1194.5 1197.5 1170 c 132,-1,11
 1223 1145.5 1223 1145.5 1223 1110.5 c 260,12,13
 1223 1075.5 1223 1075.5 1197.5 1051 c 132,-1,14
 1172 1026.5 1172 1026.5 1137 1026.5 c 6,15,-1
 885 1026.5 l 5,0,-1
883 848 m 1,16,-1
 883 1245 l 2,17,18
 883 1280 883 1280 907 1304.5 c 128,-1,19
 931 1329 931 1329 965 1329 c 0,20,21
 1000 1329 1000 1329 1025.5 1304.5 c 128,-1,22
 1051 1280 1051 1280 1051 1245 c 2,23,-1
 1051 84 l 2,24,25
 1051 49 1051 49 1026 24.5 c 128,-1,26
 1001 0 1001 0 967 0 c 0,27,28
 931 0 931 0 907 24.5 c 128,-1,29
 883 49 883 49 883 84 c 2,30,-1
 883 121 l 1,31,32
 760 0 760 0 653 0 c 2,33,-1
 510 0 l 2,34,35
 424 0 424 0 338 74 c 2,36,-1
 268 133 l 2,37,38
 244 156 244 156 222.5 210 c 128,-1,39
 201 264 201 264 201 311 c 2,40,-1
 201 653 l 2,41,42
 201 710 201 710 225 763.5 c 128,-1,43
 249 817 249 817 281 844 c 2,44,-1
 350 903 l 2,45,46
 424 967 424 967 524 967 c 2,47,-1
 645 967 l 2,48,49
 744 967 744 967 825 897 c 2,50,-1
 883 848 l 1,16,-1
639 797 m 2,51,-1
 522 797 l 2,52,53
 485 797 485 797 455 770 c 2,54,-1
 401 723 l 2,55,56
 373 698 373 698 373 659 c 2,57,-1
 373 303 l 2,58,59
 373 268 373 268 406 240 c 2,60,-1
 461 193 l 2,61,62
 487 170 487 170 516 170 c 2,63,-1
 653 170 l 2,64,65
 680 170 680 170 717 201 c 2,66,-1
 850 311 l 2,67,68
 883 340 883 340 883 383 c 2,69,-1
 883 565 l 2,70,71
 883 626 883 626 848 655 c 2,72,-1
 711 772 l 2,73,74
 684 797 684 797 639 797 c 2,51,-1
EndSplineSet
EndChar

StartChar: Emacron
Encoding: 274 274 70
Width: 1237
Flags: W
LayerCount: 2
Fore
SplineSet
889 1597.5 m 6,0,1
 924 1597.5 924 1597.5 949.5 1573 c 132,-1,2
 975 1548.5 975 1548.5 975 1513.5 c 260,3,4
 975 1478.5 975 1478.5 949.5 1454 c 132,-1,5
 924 1429.5 924 1429.5 889 1429.5 c 6,6,-1
 369 1429.5 l 6,7,8
 335 1429.5 335 1429.5 310 1454.5 c 132,-1,9
 285 1479.5 285 1479.5 285 1513.5 c 4,10,11
 285 1548.5 285 1548.5 310 1573 c 132,-1,12
 335 1597.5 335 1597.5 369 1597.5 c 6,13,-1
 889 1597.5 l 6,0,1
969 1159 m 2,14,-1
 375 1159 l 1,15,-1
 375 750 l 1,16,-1
 631 750 l 2,17,18
 665 750 665 750 690 725 c 128,-1,19
 715 700 715 700 715 666 c 0,20,21
 715 630 715 630 690.5 605 c 128,-1,22
 666 580 666 580 631 580 c 2,23,-1
 375 580 l 1,24,-1
 375 168 l 1,25,-1
 971 168 l 2,26,27
 1005 168 1005 168 1030 143.5 c 128,-1,28
 1055 119 1055 119 1055 84 c 256,29,30
 1055 49 1055 49 1029.5 24.5 c 128,-1,31
 1004 0 1004 0 969 0 c 2,32,-1
 207 0 l 1,33,-1
 207 1329 l 1,34,-1
 969 1329 l 2,35,36
 1004 1329 1004 1329 1029.5 1303.5 c 128,-1,37
 1055 1278 1055 1278 1055 1243 c 0,38,39
 1055 1209 1055 1209 1029.5 1184 c 128,-1,40
 1004 1159 1004 1159 969 1159 c 2,14,-1
EndSplineSet
EndChar

StartChar: emacron
Encoding: 275 275 71
Width: 1237
Flags: W
LayerCount: 2
Fore
SplineSet
889 1283 m 6,0,1
 924 1283 924 1283 949.5 1258.5 c 132,-1,2
 975 1234 975 1234 975 1199 c 260,3,4
 975 1164 975 1164 949.5 1139.5 c 132,-1,5
 924 1115 924 1115 889 1115 c 6,6,-1
 369 1115 l 6,7,8
 335 1115 335 1115 310 1140 c 132,-1,9
 285 1165 285 1165 285 1199 c 4,10,11
 285 1234 285 1234 310 1258.5 c 132,-1,12
 335 1283 335 1283 369 1283 c 6,13,-1
 889 1283 l 6,0,1
1053 649 m 2,14,-1
 1053 446 l 2,15,16
 1053 412 1053 412 1028 387 c 128,-1,17
 1003 362 1003 362 969 362 c 2,18,-1
 375 362 l 1,19,-1
 375 313 l 2,20,21
 375 270 375 270 412 240 c 2,22,-1
 461 199 l 2,23,24
 501 168 501 168 537 168 c 2,25,-1
 969 168 l 2,26,27
 1003 168 1003 168 1028 143.5 c 128,-1,28
 1053 119 1053 119 1053 84 c 0,29,30
 1053 50 1053 50 1027.5 25 c 128,-1,31
 1002 0 1002 0 969 0 c 2,32,-1
 526 0 l 2,33,34
 482 0 482 0 433.5 18.5 c 128,-1,35
 385 37 385 37 362 57 c 2,36,-1
 287 123 l 2,37,38
 252 151 252 151 228.5 201 c 128,-1,39
 205 251 205 251 205 293 c 2,40,-1
 205 678 l 2,41,42
 205 711 205 711 230.5 767 c 128,-1,43
 256 823 256 823 295 854 c 2,44,-1
 365 909 l 2,45,46
 434 965 434 965 518 965 c 2,47,-1
 754 965 l 2,48,49
 843 965 843 965 922 891 c 2,50,-1
 985 831 l 2,51,52
 1053 770 1053 770 1053 649 c 2,14,-1
377 662 m 2,53,-1
 377 532 l 1,54,-1
 887 532 l 1,55,-1
 887 649 l 2,56,57
 887 696 887 696 858 721 c 2,58,-1
 809 764 l 2,59,60
 771 795 771 795 741 795 c 2,61,-1
 530 795 l 2,62,63
 491 795 491 795 459 768 c 2,64,-1
 410 727 l 2,65,66
 377 702 377 702 377 662 c 2,53,-1
EndSplineSet
EndChar

StartChar: Ebreve
Encoding: 276 276 72
Width: 1237
Flags: W
LayerCount: 2
Fore
SplineSet
941 1747 m 4,0,1
 976 1747 976 1747 1001.5 1725.5 c 132,-1,2
 1027 1704 1027 1704 1027 1675 c 4,3,4
 1027 1608 1027 1608 906 1522 c 132,-1,5
 785 1436 785 1436 637 1436 c 4,6,7
 490 1436 490 1436 369 1522 c 132,-1,8
 248 1608 248 1608 248 1675 c 4,9,10
 248 1704 248 1704 273.5 1725.5 c 132,-1,11
 299 1747 299 1747 334 1747 c 4,12,13
 375 1747 375 1747 400 1723 c 4,14,15
 509 1606 509 1606 637 1606 c 4,16,17
 766 1606 766 1606 875 1723 c 4,18,19
 900 1747 900 1747 941 1747 c 4,0,1
969 1159 m 2,20,-1
 375 1159 l 1,21,-1
 375 750 l 1,22,-1
 631 750 l 2,23,24
 665 750 665 750 690 725 c 128,-1,25
 715 700 715 700 715 666 c 0,26,27
 715 630 715 630 690.5 605 c 128,-1,28
 666 580 666 580 631 580 c 2,29,-1
 375 580 l 1,30,-1
 375 168 l 1,31,-1
 971 168 l 2,32,33
 1005 168 1005 168 1030 143.5 c 128,-1,34
 1055 119 1055 119 1055 84 c 256,35,36
 1055 49 1055 49 1029.5 24.5 c 128,-1,37
 1004 0 1004 0 969 0 c 2,38,-1
 207 0 l 1,39,-1
 207 1329 l 1,40,-1
 969 1329 l 2,41,42
 1004 1329 1004 1329 1029.5 1303.5 c 128,-1,43
 1055 1278 1055 1278 1055 1243 c 0,44,45
 1055 1209 1055 1209 1029.5 1184 c 128,-1,46
 1004 1159 1004 1159 969 1159 c 2,20,-1
EndSplineSet
EndChar

StartChar: ebreve
Encoding: 277 277 73
Width: 1237
Flags: W
LayerCount: 2
Fore
SplineSet
941 1408 m 4,0,1
 976 1408 976 1408 1001.5 1386.5 c 132,-1,2
 1027 1365 1027 1365 1027 1336 c 4,3,4
 1027 1269 1027 1269 906 1183 c 132,-1,5
 785 1097 785 1097 637 1097 c 4,6,7
 490 1097 490 1097 369 1183 c 132,-1,8
 248 1269 248 1269 248 1336 c 4,9,10
 248 1365 248 1365 273.5 1386.5 c 132,-1,11
 299 1408 299 1408 334 1408 c 4,12,13
 375 1408 375 1408 400 1384 c 4,14,15
 509 1267 509 1267 637 1267 c 4,16,17
 766 1267 766 1267 875 1384 c 4,18,19
 900 1408 900 1408 941 1408 c 4,0,1
1053 649 m 2,20,-1
 1053 446 l 2,21,22
 1053 412 1053 412 1028 387 c 128,-1,23
 1003 362 1003 362 969 362 c 2,24,-1
 375 362 l 1,25,-1
 375 313 l 2,26,27
 375 270 375 270 412 240 c 2,28,-1
 461 199 l 2,29,30
 501 168 501 168 537 168 c 2,31,-1
 969 168 l 2,32,33
 1003 168 1003 168 1028 143.5 c 128,-1,34
 1053 119 1053 119 1053 84 c 0,35,36
 1053 50 1053 50 1027.5 25 c 128,-1,37
 1002 0 1002 0 969 0 c 2,38,-1
 526 0 l 2,39,40
 482 0 482 0 433.5 18.5 c 128,-1,41
 385 37 385 37 362 57 c 2,42,-1
 287 123 l 2,43,44
 252 151 252 151 228.5 201 c 128,-1,45
 205 251 205 251 205 293 c 2,46,-1
 205 678 l 2,47,48
 205 711 205 711 230.5 767 c 128,-1,49
 256 823 256 823 295 854 c 2,50,-1
 365 909 l 2,51,52
 434 965 434 965 518 965 c 2,53,-1
 754 965 l 2,54,55
 843 965 843 965 922 891 c 2,56,-1
 985 831 l 2,57,58
 1053 770 1053 770 1053 649 c 2,20,-1
377 662 m 2,59,-1
 377 532 l 1,60,-1
 887 532 l 1,61,-1
 887 649 l 2,62,63
 887 696 887 696 858 721 c 2,64,-1
 809 764 l 2,65,66
 771 795 771 795 741 795 c 2,67,-1
 530 795 l 2,68,69
 491 795 491 795 459 768 c 2,70,-1
 410 727 l 2,71,72
 377 702 377 702 377 662 c 2,59,-1
EndSplineSet
EndChar

StartChar: Edotaccent
Encoding: 278 278 74
Width: 1237
Flags: W
LayerCount: 2
Fore
SplineSet
731 1477.5 m 6,0,1
 731 1444 731 1444 707 1418 c 4,2,3
 686 1396 686 1396 647 1396.5 c 4,4,5
 603 1396 603 1396 588 1421 c 4,6,7
 564 1460 564 1460 564 1477.5 c 6,8,-1
 564 1527 l 6,9,10
 564 1562 564 1562 588 1586.5 c 4,11,12
 610.595703125 1610.5078125 610.595703125 1610.5078125 647 1611 c 4,13,14
 684 1612 684 1612 707 1586.5 c 4,15,16
 731 1560 731 1560 731 1527 c 6,17,-1
 731 1477.5 l 6,0,1
969 1159 m 2,18,-1
 375 1159 l 1,19,-1
 375 750 l 1,20,-1
 631 750 l 2,21,22
 665 750 665 750 690 725 c 128,-1,23
 715 700 715 700 715 666 c 0,24,25
 715 630 715 630 690.5 605 c 128,-1,26
 666 580 666 580 631 580 c 2,27,-1
 375 580 l 1,28,-1
 375 168 l 1,29,-1
 971 168 l 2,30,31
 1005 168 1005 168 1030 143.5 c 128,-1,32
 1055 119 1055 119 1055 84 c 256,33,34
 1055 49 1055 49 1029.5 24.5 c 128,-1,35
 1004 0 1004 0 969 0 c 2,36,-1
 207 0 l 1,37,-1
 207 1329 l 1,38,-1
 969 1329 l 2,39,40
 1004 1329 1004 1329 1029.5 1303.5 c 128,-1,41
 1055 1278 1055 1278 1055 1243 c 0,42,43
 1055 1209 1055 1209 1029.5 1184 c 128,-1,44
 1004 1159 1004 1159 969 1159 c 2,18,-1
EndSplineSet
EndChar

StartChar: edotaccent
Encoding: 279 279 75
Width: 1237
Flags: W
LayerCount: 2
Fore
SplineSet
731 1117.5 m 6,0,1
 731 1084 731 1084 707 1058 c 4,2,3
 686 1036 686 1036 647 1036.5 c 4,4,5
 603 1036 603 1036 588 1061 c 4,6,7
 564 1100 564 1100 564 1117.5 c 6,8,-1
 564 1167 l 6,9,10
 564 1202 564 1202 588 1226.5 c 4,11,12
 610.595813205 1250.50805153 610.595813205 1250.50805153 647 1251 c 4,13,14
 684 1252 684 1252 707 1226.5 c 4,15,16
 731 1200 731 1200 731 1167 c 6,17,-1
 731 1117.5 l 6,0,1
1053 649 m 2,18,-1
 1053 446 l 2,19,20
 1053 412 1053 412 1028 387 c 128,-1,21
 1003 362 1003 362 969 362 c 2,22,-1
 375 362 l 1,23,-1
 375 313 l 2,24,25
 375 270 375 270 412 240 c 2,26,-1
 461 199 l 2,27,28
 501 168 501 168 537 168 c 2,29,-1
 969 168 l 2,30,31
 1003 168 1003 168 1028 143.5 c 128,-1,32
 1053 119 1053 119 1053 84 c 0,33,34
 1053 50 1053 50 1027.5 25 c 128,-1,35
 1002 0 1002 0 969 0 c 2,36,-1
 526 0 l 2,37,38
 482 0 482 0 433.5 18.5 c 128,-1,39
 385 37 385 37 362 57 c 2,40,-1
 287 123 l 2,41,42
 252 151 252 151 228.5 201 c 128,-1,43
 205 251 205 251 205 293 c 2,44,-1
 205 678 l 2,45,46
 205 711 205 711 230.5 767 c 128,-1,47
 256 823 256 823 295 854 c 2,48,-1
 365 909 l 2,49,50
 434 965 434 965 518 965 c 2,51,-1
 754 965 l 2,52,53
 843 965 843 965 922 891 c 2,54,-1
 985 831 l 2,55,56
 1053 770 1053 770 1053 649 c 2,18,-1
377 662 m 2,57,-1
 377 532 l 1,58,-1
 887 532 l 1,59,-1
 887 649 l 2,60,61
 887 696 887 696 858 721 c 2,62,-1
 809 764 l 2,63,64
 771 795 771 795 741 795 c 2,65,-1
 530 795 l 2,66,67
 491 795 491 795 459 768 c 2,68,-1
 410 727 l 2,69,70
 377 702 377 702 377 662 c 2,57,-1
EndSplineSet
EndChar

StartChar: Eogonek
Encoding: 280 280 76
Width: 1237
Flags: W
LayerCount: 2
Fore
SplineSet
969 0 m 5,0,-1
 969 -190 l 5,1,-1
 1089 -190 l 6,2,3
 1124 -190 1124 -190 1148.5 -215.5 c 132,-1,4
 1173 -241 1173 -241 1173 -276 c 4,5,6
 1173 -310 1173 -310 1148 -335 c 132,-1,7
 1123 -360 1123 -360 1089 -360 c 6,8,-1
 885 -360 l 6,9,10
 870 -360 870 -360 825.5 -335 c 4,11,12
 801 -321 801 -321 801 -274 c 6,13,-1
 801 0 l 5,14,-1
 969 0 l 5,0,-1
969 0 m 1026,15,16
799 0 m 1025,17,-1
969 1159 m 2,18,-1
 375 1159 l 1,19,-1
 375 750 l 1,20,-1
 631 750 l 2,21,22
 665 750 665 750 690 725 c 128,-1,23
 715 700 715 700 715 666 c 0,24,25
 715 630 715 630 690.5 605 c 128,-1,26
 666 580 666 580 631 580 c 2,27,-1
 375 580 l 1,28,-1
 375 168 l 1,29,-1
 971 168 l 2,30,31
 1005 168 1005 168 1030 143.5 c 128,-1,32
 1055 119 1055 119 1055 84 c 256,33,34
 1055 49 1055 49 1029.5 24.5 c 128,-1,35
 1004 0 1004 0 969 0 c 2,36,-1
 207 0 l 1,37,-1
 207 1329 l 1,38,-1
 969 1329 l 2,39,40
 1004 1329 1004 1329 1029.5 1303.5 c 128,-1,41
 1055 1278 1055 1278 1055 1243 c 0,42,43
 1055 1209 1055 1209 1029.5 1184 c 128,-1,44
 1004 1159 1004 1159 969 1159 c 2,18,-1
EndSplineSet
EndChar

StartChar: eogonek
Encoding: 281 281 77
Width: 1237
Flags: W
LayerCount: 2
Fore
SplineSet
969 0 m 1,0,-1
 969 -190 l 1,1,-1
 1089 -190 l 2,2,3
 1124 -190 1124 -190 1148.5 -215.5 c 128,-1,4
 1173 -241 1173 -241 1173 -276 c 0,5,6
 1173 -310 1173 -310 1148 -335 c 128,-1,7
 1123 -360 1123 -360 1089 -360 c 2,8,-1
 885 -360 l 2,9,10
 870 -360 870 -360 825.5 -335 c 0,11,12
 801 -321 801 -321 801 -274 c 2,13,-1
 801 0 l 1,14,-1
 969 0 l 1,0,-1
969 0 m 1026,15,16
799 0 m 1025,17,-1
1053 649 m 2,18,-1
 1053 446 l 2,19,20
 1053 412 1053 412 1028 387 c 128,-1,21
 1003 362 1003 362 969 362 c 2,22,-1
 375 362 l 1,23,-1
 375 313 l 2,24,25
 375 270 375 270 412 240 c 2,26,-1
 461 199 l 2,27,28
 501 168 501 168 537 168 c 2,29,-1
 969 168 l 2,30,31
 1003 168 1003 168 1028 143.5 c 128,-1,32
 1053 119 1053 119 1053 84 c 0,33,34
 1053 50 1053 50 1027.5 25 c 128,-1,35
 1002 0 1002 0 969 0 c 2,36,-1
 526 0 l 2,37,38
 482 0 482 0 433.5 18.5 c 128,-1,39
 385 37 385 37 362 57 c 2,40,-1
 287 123 l 2,41,42
 252 151 252 151 228.5 201 c 128,-1,43
 205 251 205 251 205 293 c 2,44,-1
 205 678 l 2,45,46
 205 711 205 711 230.5 767 c 128,-1,47
 256 823 256 823 295 854 c 2,48,-1
 365 909 l 2,49,50
 434 965 434 965 518 965 c 2,51,-1
 754 965 l 2,52,53
 843 965 843 965 922 891 c 2,54,-1
 985 831 l 2,55,56
 1053 770 1053 770 1053 649 c 2,18,-1
377 662 m 2,57,-1
 377 532 l 1,58,-1
 887 532 l 1,59,-1
 887 649 l 2,60,61
 887 696 887 696 858 721 c 2,62,-1
 809 764 l 2,63,64
 771 795 771 795 741 795 c 2,65,-1
 530 795 l 2,66,67
 491 795 491 795 459 768 c 2,68,-1
 410 727 l 2,69,70
 377 702 377 702 377 662 c 2,57,-1
EndSplineSet
EndChar

StartChar: Ecaron
Encoding: 282 282 78
Width: 1237
Flags: W
LayerCount: 2
Fore
SplineSet
627 1556 m 5,0,-1
 898 1681 l 6,1,2
 915 1689 915 1689 934 1689 c 4,3,4
 970 1689 970 1689 993.5 1662.5 c 132,-1,5
 1017 1636 1017 1636 1017 1622 c 4,6,7
 1017 1549 1017 1549 970 1527 c 6,8,-1
 664 1386 l 6,9,10
 647 1378 647 1378 627 1378 c 4,11,12
 608.361328125 1378 608.361328125 1378 591 1386 c 6,13,-1
 285 1527 l 6,14,15
 238 1549 238 1549 238 1603 c 4,16,17
 238 1636 238 1636 261.5 1662.5 c 132,-1,18
 285 1689 285 1689 321 1689 c 4,19,20
 339.719726562 1689 339.719726562 1689 357 1681 c 6,21,-1
 627 1556 l 5,0,-1
969 1159 m 2,22,-1
 375 1159 l 1,23,-1
 375 750 l 1,24,-1
 631 750 l 2,25,26
 665 750 665 750 690 725 c 128,-1,27
 715 700 715 700 715 666 c 0,28,29
 715 630 715 630 690.5 605 c 128,-1,30
 666 580 666 580 631 580 c 2,31,-1
 375 580 l 1,32,-1
 375 168 l 1,33,-1
 971 168 l 2,34,35
 1005 168 1005 168 1030 143.5 c 128,-1,36
 1055 119 1055 119 1055 84 c 256,37,38
 1055 49 1055 49 1029.5 24.5 c 128,-1,39
 1004 0 1004 0 969 0 c 2,40,-1
 207 0 l 1,41,-1
 207 1329 l 1,42,-1
 969 1329 l 2,43,44
 1004 1329 1004 1329 1029.5 1303.5 c 128,-1,45
 1055 1278 1055 1278 1055 1243 c 0,46,47
 1055 1209 1055 1209 1029.5 1184 c 128,-1,48
 1004 1159 1004 1159 969 1159 c 2,22,-1
EndSplineSet
EndChar

StartChar: ecaron
Encoding: 283 283 79
Width: 1237
Flags: W
LayerCount: 2
Fore
SplineSet
1053 649 m 2,0,-1
 1053 446 l 2,1,2
 1053 412 1053 412 1028 387 c 0,3,4
 1003 362 1003 362 969 362 c 2,5,-1
 375 362 l 1,6,-1
 375 313 l 2,7,8
 375 270 375 270 412 240 c 2,9,-1
 461 199 l 2,10,11
 501 168 501 168 537 168 c 2,12,-1
 969 168 l 2,13,14
 1003 168 1003 168 1028 143.5 c 0,15,16
 1053 119 1053 119 1053 84 c 0,17,18
 1053 50 1053 50 1027.5 25 c 0,19,20
 1002 0 1002 0 969 0 c 2,21,-1
 526 0 l 2,22,23
 482 0 482 0 433.5 18.5 c 0,24,25
 385 37 385 37 362 57 c 2,26,-1
 287 123 l 2,27,28
 252 151 252 151 228.5 201 c 0,29,30
 205 251 205 251 205 293 c 2,31,-1
 205 678 l 2,32,33
 205 711 205 711 230.5 767 c 0,34,35
 256 823 256 823 295 854 c 2,36,-1
 365 909 l 2,37,38
 434 965 434 965 518 965 c 2,39,-1
 754 965 l 2,40,41
 843 965 843 965 922 891 c 2,42,-1
 985 831 l 2,43,44
 1053 770 1053 770 1053 649 c 2,0,-1
377 662 m 2,45,-1
 377 532 l 1,46,-1
 887 532 l 1,47,-1
 887 649 l 2,48,49
 887 696 887 696 858 721 c 2,50,-1
 809 764 l 2,51,52
 771 795 771 795 741 795 c 2,53,-1
 530 795 l 2,54,55
 491 795 491 795 459 768 c 2,56,-1
 410 727 l 2,57,58
 377 702 377 702 377 662 c 2,45,-1
EndSplineSet
Refer: 49 711 S 1 0 0 1 18 6 2
EndChar

StartChar: Gcircumflex
Encoding: 284 284 80
Width: 1237
Flags: W
LayerCount: 2
Fore
SplineSet
694 1329 m 2,0,-1
 973 1329 l 2,1,2
 1008 1329 1008 1329 1032.5 1304.5 c 0,3,4
 1057 1280 1057 1280 1057 1245 c 0,5,6
 1057 1208 1057 1208 1030.5 1183.5 c 0,7,8
 1004 1159 1004 1159 973 1159 c 2,9,-1
 707 1159 l 2,10,11
 668 1159 668 1159 639 1122 c 2,12,-1
 403 819 l 2,13,14
 373 783 373 783 373 719 c 2,15,-1
 373 254 l 2,16,17
 373 218 373 218 397.5 193 c 0,18,19
 422 168 422 168 457 168 c 2,20,-1
 799 168 l 2,21,22
 833 168 833 168 858 193 c 0,23,24
 883 218 883 218 883 252 c 2,25,-1
 883 434 l 1,26,-1
 709 434 l 2,27,28
 673 434 673 434 649 458.5 c 0,29,30
 625 483 625 483 625 518 c 256,31,32
 625 553 625 553 649 577.5 c 0,33,34
 673 602 673 602 709 602 c 2,35,-1
 1051 602 l 1,36,-1
 1051 252 l 2,37,38
 1051 148 1051 148 977 74 c 0,39,40
 903 0 903 0 799 0 c 2,41,-1
 457 0 l 2,42,43
 352 0 352 0 277.5 74 c 0,44,45
 203 148 203 148 203 252 c 2,46,-1
 203 717 l 2,47,48
 203 842 203 842 270 928 c 2,49,-1
 518 1243 l 2,50,51
 545 1279 545 1279 593.5 1304 c 0,52,53
 642 1329 642 1329 694 1329 c 2,0,-1
694 1329 m 2,54,-1
 973 1329 l 2,55,56
 1008 1329 1008 1329 1032.5 1304.5 c 0,57,58
 1057 1280 1057 1280 1057 1245 c 0,59,60
 1057 1208 1057 1208 1030.5 1183.5 c 0,61,62
 1004 1159 1004 1159 973 1159 c 2,63,-1
 707 1159 l 2,64,65
 668 1159 668 1159 639 1122 c 2,66,-1
 403 819 l 2,67,68
 373 783 373 783 373 719 c 2,69,-1
 373 254 l 2,70,71
 373 218 373 218 397.5 193 c 0,72,73
 422 168 422 168 457 168 c 2,74,-1
 799 168 l 2,75,76
 833 168 833 168 858 193 c 0,77,78
 883 218 883 218 883 252 c 2,79,-1
 883 434 l 1,80,-1
 709 434 l 2,81,82
 673 434 673 434 649 458.5 c 0,83,84
 625 483 625 483 625 518 c 256,85,86
 625 553 625 553 649 577.5 c 0,87,88
 673 602 673 602 709 602 c 2,89,-1
 1051 602 l 1,90,-1
 1051 252 l 2,91,92
 1051 148 1051 148 977 74 c 0,93,94
 903 0 903 0 799 0 c 2,95,-1
 457 0 l 2,96,97
 352 0 352 0 277.5 74 c 0,98,99
 203 148 203 148 203 252 c 2,100,-1
 203 717 l 2,101,102
 203 842 203 842 270 928 c 2,103,-1
 518 1243 l 2,104,105
 545 1279 545 1279 593.5 1304 c 0,106,107
 642 1329 642 1329 694 1329 c 2,54,-1
EndSplineSet
Refer: 41 710 N 1 0 0 1 90 364 2
EndChar

StartChar: gcircumflex
Encoding: 285 285 81
Width: 1237
Flags: W
LayerCount: 2
Fore
SplineSet
735 -360 m 2,0,-1
 371 -360 l 2,1,2
 336 -360 336 -360 311.5 -336 c 0,3,4
 287 -312 287 -312 287 -276 c 0,5,6
 287 -241 287 -241 311.5 -217 c 0,7,8
 336 -193 336 -193 371 -193 c 2,9,-1
 735 -193 l 2,10,11
 768 -193 768 -193 797 -168 c 2,12,-1
 854 -119 l 2,13,14
 883 -97 883 -97 883 -61 c 2,15,-1
 883 195 l 1,16,17
 765 76 765 76 653 76 c 2,18,-1
 524 76 l 2,19,20
 424 76 424 76 344 145 c 2,21,-1
 281 201 l 2,22,23
 250 227 250 227 227.5 277 c 0,24,25
 205 327 205 327 205 375 c 2,26,-1
 205 653 l 2,27,28
 205 712 205 712 227.5 765 c 0,29,30
 250 818 250 818 281 844 c 2,31,-1
 350 903 l 2,32,33
 424 967 424 967 524 967 c 2,34,-1
 645 967 l 2,35,36
 744 967 744 967 825 897 c 2,37,-1
 883 848 l 1,38,-1
 881 881 l 2,39,40
 881 915 881 915 906 940 c 0,41,42
 931 965 931 965 965 965 c 0,43,44
 1000 965 1000 965 1025.5 940.5 c 0,45,46
 1051 916 1051 916 1051 881 c 2,47,-1
 1051 -61 l 2,48,49
 1051 -168 1051 -168 965 -244 c 2,50,-1
 897 -303 l 2,51,52
 871 -326 871 -326 823.5 -343 c 0,53,54
 776 -360 776 -360 735 -360 c 2,0,-1
639 799 m 2,55,-1
 526 799 l 2,56,57
 489 799 489 799 455 770 c 2,58,-1
 403 727 l 2,59,60
 373 702 373 702 373 659 c 2,61,-1
 373 379 l 2,62,63
 373 345 373 345 406 315 c 2,64,-1
 461 266 l 2,65,66
 487 244 487 244 516 244 c 2,67,-1
 653 244 l 2,68,69
 683 244 683 244 719 274 c 2,70,-1
 852 387 l 2,71,72
 883 414 883 414 883 453 c 2,73,-1
 883 580 l 2,74,75
 883 626 883 626 848 655 c 2,76,-1
 711 772 l 2,77,78
 682 799 682 799 639 799 c 2,55,-1
EndSplineSet
Refer: 41 710 S 1 0 0 1 -9 0 2
EndChar

StartChar: Gbreve
Encoding: 286 286 82
Width: 1237
Flags: W
LayerCount: 2
Fore
SplineSet
941 1747 m 4,0,1
 976 1747 976 1747 1001.5 1725.5 c 132,-1,2
 1027 1704 1027 1704 1027 1675 c 4,3,4
 1027 1608 1027 1608 906 1522 c 132,-1,5
 785 1436 785 1436 637 1436 c 4,6,7
 490 1436 490 1436 369 1522 c 132,-1,8
 248 1608 248 1608 248 1675 c 4,9,10
 248 1704 248 1704 273.5 1725.5 c 132,-1,11
 299 1747 299 1747 334 1747 c 4,12,13
 375 1747 375 1747 400 1723 c 4,14,15
 509 1606 509 1606 637 1606 c 4,16,17
 766 1606 766 1606 875 1723 c 4,18,19
 900 1747 900 1747 941 1747 c 4,0,1
694 1329 m 2,20,-1
 973 1329 l 2,21,22
 1008 1329 1008 1329 1032.5 1304.5 c 128,-1,23
 1057 1280 1057 1280 1057 1245 c 0,24,25
 1057 1208 1057 1208 1030.5 1183.5 c 128,-1,26
 1004 1159 1004 1159 973 1159 c 2,27,-1
 707 1159 l 2,28,29
 668 1159 668 1159 639 1122 c 2,30,-1
 403 819 l 2,31,32
 373 783 373 783 373 719 c 2,33,-1
 373 254 l 2,34,35
 373 218 373 218 397.5 193 c 128,-1,36
 422 168 422 168 457 168 c 2,37,-1
 799 168 l 2,38,39
 833 168 833 168 858 193 c 128,-1,40
 883 218 883 218 883 252 c 2,41,-1
 883 434 l 1,42,-1
 709 434 l 2,43,44
 673 434 673 434 649 458.5 c 128,-1,45
 625 483 625 483 625 518 c 256,46,47
 625 553 625 553 649 577.5 c 128,-1,48
 673 602 673 602 709 602 c 2,49,-1
 1051 602 l 1,50,-1
 1051 252 l 2,51,52
 1051 148 1051 148 977 74 c 128,-1,53
 903 0 903 0 799 0 c 2,54,-1
 457 0 l 2,55,56
 352 0 352 0 277.5 74 c 128,-1,57
 203 148 203 148 203 252 c 2,58,-1
 203 717 l 2,59,60
 203 842 203 842 270 928 c 2,61,-1
 518 1243 l 2,62,63
 545 1279 545 1279 593.5 1304 c 128,-1,64
 642 1329 642 1329 694 1329 c 2,20,-1
EndSplineSet
EndChar

StartChar: gbreve
Encoding: 287 287 83
Width: 1237
Flags: W
LayerCount: 2
Fore
SplineSet
941 1408 m 4,0,1
 976 1408 976 1408 1001.5 1386.5 c 132,-1,2
 1027 1365 1027 1365 1027 1336 c 4,3,4
 1027 1269 1027 1269 906 1183 c 132,-1,5
 785 1097 785 1097 637 1097 c 4,6,7
 490 1097 490 1097 369 1183 c 132,-1,8
 248 1269 248 1269 248 1336 c 4,9,10
 248 1365 248 1365 273.5 1386.5 c 132,-1,11
 299 1408 299 1408 334 1408 c 4,12,13
 375 1408 375 1408 400 1384 c 4,14,15
 509 1267 509 1267 637 1267 c 4,16,17
 766 1267 766 1267 875 1384 c 4,18,19
 900 1408 900 1408 941 1408 c 4,0,1
735 -360 m 2,20,-1
 371 -360 l 2,21,22
 336 -360 336 -360 311.5 -336 c 128,-1,23
 287 -312 287 -312 287 -276 c 0,24,25
 287 -241 287 -241 311.5 -217 c 128,-1,26
 336 -193 336 -193 371 -193 c 2,27,-1
 735 -193 l 2,28,29
 768 -193 768 -193 797 -168 c 2,30,-1
 854 -119 l 2,31,32
 883 -97 883 -97 883 -61 c 2,33,-1
 883 195 l 1,34,35
 765 76 765 76 653 76 c 2,36,-1
 524 76 l 2,37,38
 424 76 424 76 344 145 c 2,39,-1
 281 201 l 2,40,41
 250 227 250 227 227.5 277 c 128,-1,42
 205 327 205 327 205 375 c 2,43,-1
 205 653 l 2,44,45
 205 712 205 712 227.5 765 c 128,-1,46
 250 818 250 818 281 844 c 2,47,-1
 350 903 l 2,48,49
 424 967 424 967 524 967 c 2,50,-1
 645 967 l 2,51,52
 744 967 744 967 825 897 c 2,53,-1
 883 848 l 1,54,-1
 881 881 l 2,55,56
 881 915 881 915 906 940 c 128,-1,57
 931 965 931 965 965 965 c 0,58,59
 1000 965 1000 965 1025.5 940.5 c 128,-1,60
 1051 916 1051 916 1051 881 c 2,61,-1
 1051 -61 l 2,62,63
 1051 -168 1051 -168 965 -244 c 2,64,-1
 897 -303 l 2,65,66
 871 -326 871 -326 823.5 -343 c 128,-1,67
 776 -360 776 -360 735 -360 c 2,20,-1
639 799 m 2,68,-1
 526 799 l 2,69,70
 489 799 489 799 455 770 c 2,71,-1
 403 727 l 2,72,73
 373 702 373 702 373 659 c 2,74,-1
 373 379 l 2,75,76
 373 345 373 345 406 315 c 2,77,-1
 461 266 l 2,78,79
 487 244 487 244 516 244 c 2,80,-1
 653 244 l 2,81,82
 683 244 683 244 719 274 c 2,83,-1
 852 387 l 2,84,85
 883 414 883 414 883 453 c 2,86,-1
 883 580 l 2,87,88
 883 626 883 626 848 655 c 2,89,-1
 711 772 l 2,90,91
 682 799 682 799 639 799 c 2,68,-1
EndSplineSet
EndChar

StartChar: Gdotaccent
Encoding: 288 288 84
Width: 1237
Flags: W
LayerCount: 2
Fore
SplineSet
731 1477.5 m 2,0,1
 731 1444 731 1444 707 1418 c 0,2,3
 686 1396 686 1396 647 1396.5 c 0,4,5
 603 1396 603 1396 588 1421 c 0,6,7
 564 1460 564 1460 564 1477.5 c 2,8,-1
 564 1527 l 2,9,10
 564 1562 564 1562 588 1586.5 c 0,11,12
 610.595703125 1610.5078125 610.595703125 1610.5078125 647 1611 c 0,13,14
 684 1612 684 1612 707 1586.5 c 0,15,16
 731 1560 731 1560 731 1527 c 2,17,-1
 731 1477.5 l 2,0,1
694 1329 m 2,18,-1
 973 1329 l 2,19,20
 1008 1329 1008 1329 1032.5 1304.5 c 128,-1,21
 1057 1280 1057 1280 1057 1245 c 0,22,23
 1057 1208 1057 1208 1030.5 1183.5 c 128,-1,24
 1004 1159 1004 1159 973 1159 c 2,25,-1
 707 1159 l 2,26,27
 668 1159 668 1159 639 1122 c 2,28,-1
 403 819 l 2,29,30
 373 783 373 783 373 719 c 2,31,-1
 373 254 l 2,32,33
 373 218 373 218 397.5 193 c 128,-1,34
 422 168 422 168 457 168 c 2,35,-1
 799 168 l 2,36,37
 833 168 833 168 858 193 c 128,-1,38
 883 218 883 218 883 252 c 2,39,-1
 883 434 l 1,40,-1
 709 434 l 2,41,42
 673 434 673 434 649 458.5 c 128,-1,43
 625 483 625 483 625 518 c 256,44,45
 625 553 625 553 649 577.5 c 128,-1,46
 673 602 673 602 709 602 c 2,47,-1
 1051 602 l 1,48,-1
 1051 252 l 2,49,50
 1051 148 1051 148 977 74 c 128,-1,51
 903 0 903 0 799 0 c 2,52,-1
 457 0 l 2,53,54
 352 0 352 0 277.5 74 c 128,-1,55
 203 148 203 148 203 252 c 2,56,-1
 203 717 l 2,57,58
 203 842 203 842 270 928 c 2,59,-1
 518 1243 l 2,60,61
 545 1279 545 1279 593.5 1304 c 128,-1,62
 642 1329 642 1329 694 1329 c 2,18,-1
EndSplineSet
EndChar

StartChar: gdotaccent
Encoding: 289 289 85
Width: 1237
Flags: W
LayerCount: 2
Fore
SplineSet
670 1117.5 m 6,0,1
 670 1084 670 1084 646 1058 c 4,2,3
 625 1036 625 1036 586 1036.5 c 4,4,5
 542 1036 542 1036 527 1061 c 4,6,7
 503 1100 503 1100 503 1117.5 c 6,8,-1
 503 1167 l 6,9,10
 503 1202 503 1202 527 1226.5 c 4,11,12
 549.595703125 1250.5078125 549.595703125 1250.5078125 586 1251 c 4,13,14
 623 1252 623 1252 646 1226.5 c 4,15,16
 670 1200 670 1200 670 1167 c 6,17,-1
 670 1117.5 l 6,0,1
735 -360 m 2,18,-1
 371 -360 l 2,19,20
 336 -360 336 -360 311.5 -336 c 128,-1,21
 287 -312 287 -312 287 -276 c 0,22,23
 287 -241 287 -241 311.5 -217 c 128,-1,24
 336 -193 336 -193 371 -193 c 2,25,-1
 735 -193 l 2,26,27
 768 -193 768 -193 797 -168 c 2,28,-1
 854 -119 l 2,29,30
 883 -97 883 -97 883 -61 c 2,31,-1
 883 195 l 1,32,33
 765 76 765 76 653 76 c 2,34,-1
 524 76 l 2,35,36
 424 76 424 76 344 145 c 2,37,-1
 281 201 l 2,38,39
 250 227 250 227 227.5 277 c 128,-1,40
 205 327 205 327 205 375 c 2,41,-1
 205 653 l 2,42,43
 205 712 205 712 227.5 765 c 128,-1,44
 250 818 250 818 281 844 c 2,45,-1
 350 903 l 2,46,47
 424 967 424 967 524 967 c 2,48,-1
 645 967 l 2,49,50
 744 967 744 967 825 897 c 2,51,-1
 883 848 l 1,52,-1
 881 881 l 2,53,54
 881 915 881 915 906 940 c 128,-1,55
 931 965 931 965 965 965 c 0,56,57
 1000 965 1000 965 1025.5 940.5 c 128,-1,58
 1051 916 1051 916 1051 881 c 2,59,-1
 1051 -61 l 2,60,61
 1051 -168 1051 -168 965 -244 c 2,62,-1
 897 -303 l 2,63,64
 871 -326 871 -326 823.5 -343 c 128,-1,65
 776 -360 776 -360 735 -360 c 2,18,-1
639 799 m 2,66,-1
 526 799 l 2,67,68
 489 799 489 799 455 770 c 2,69,-1
 403 727 l 2,70,71
 373 702 373 702 373 659 c 2,72,-1
 373 379 l 2,73,74
 373 345 373 345 406 315 c 2,75,-1
 461 266 l 2,76,77
 487 244 487 244 516 244 c 2,78,-1
 653 244 l 2,79,80
 683 244 683 244 719 274 c 2,81,-1
 852 387 l 2,82,83
 883 414 883 414 883 453 c 2,84,-1
 883 580 l 2,85,86
 883 626 883 626 848 655 c 2,87,-1
 711 772 l 2,88,89
 682 799 682 799 639 799 c 2,66,-1
EndSplineSet
EndChar

StartChar: uni0122
Encoding: 290 290 86
Width: 1237
Flags: W
LayerCount: 2
Fore
SplineSet
734 -282 m 6,0,1
 734 -317 734 -317 710 -341.5 c 132,-1,2
 686 -366 686 -366 650 -366 c 4,3,4
 615 -366 615 -366 591 -341.5 c 132,-1,5
 567 -317 567 -317 567 -282 c 6,6,-1
 567 -139 l 6,7,8
 567 -104 567 -104 591 -79.5 c 132,-1,9
 615 -55 615 -55 650 -55 c 4,10,11
 686 -55 686 -55 710 -79.5 c 132,-1,12
 734 -104 734 -104 734 -139 c 6,13,-1
 734 -282 l 6,0,1
694 1329 m 2,14,-1
 973 1329 l 2,15,16
 1008 1329 1008 1329 1032.5 1304.5 c 128,-1,17
 1057 1280 1057 1280 1057 1245 c 0,18,19
 1057 1208 1057 1208 1030.5 1183.5 c 128,-1,20
 1004 1159 1004 1159 973 1159 c 2,21,-1
 707 1159 l 2,22,23
 668 1159 668 1159 639 1122 c 2,24,-1
 403 819 l 2,25,26
 373 783 373 783 373 719 c 2,27,-1
 373 254 l 2,28,29
 373 218 373 218 397.5 193 c 128,-1,30
 422 168 422 168 457 168 c 2,31,-1
 799 168 l 2,32,33
 833 168 833 168 858 193 c 128,-1,34
 883 218 883 218 883 252 c 2,35,-1
 883 434 l 1,36,-1
 709 434 l 2,37,38
 673 434 673 434 649 458.5 c 128,-1,39
 625 483 625 483 625 518 c 256,40,41
 625 553 625 553 649 577.5 c 128,-1,42
 673 602 673 602 709 602 c 2,43,-1
 1051 602 l 1,44,-1
 1051 252 l 2,45,46
 1051 148 1051 148 977 74 c 128,-1,47
 903 0 903 0 799 0 c 2,48,-1
 457 0 l 2,49,50
 352 0 352 0 277.5 74 c 128,-1,51
 203 148 203 148 203 252 c 2,52,-1
 203 717 l 2,53,54
 203 842 203 842 270 928 c 2,55,-1
 518 1243 l 2,56,57
 545 1279 545 1279 593.5 1304 c 128,-1,58
 642 1329 642 1329 694 1329 c 2,14,-1
EndSplineSet
EndChar

StartChar: uni0123
Encoding: 291 291 87
Width: 1237
Flags: W
LayerCount: 2
Fore
SplineSet
663 1117.5 m 6,0,1
 663 1082.5 663 1082.5 639 1058 c 132,-1,2
 615 1033.5 615 1033.5 579 1033.5 c 4,3,4
 544 1033.5 544 1033.5 520 1058 c 132,-1,5
 496 1082.5 496 1082.5 496 1117.5 c 6,6,-1
 496 1260.5 l 6,7,8
 496 1295.5 496 1295.5 520 1320 c 132,-1,9
 544 1344.5 544 1344.5 579 1344.5 c 4,10,11
 615 1344.5 615 1344.5 639 1320 c 132,-1,12
 663 1295.5 663 1295.5 663 1260.5 c 6,13,-1
 663 1117.5 l 6,0,1
735 -360 m 2,14,-1
 371 -360 l 2,15,16
 336 -360 336 -360 311.5 -336 c 128,-1,17
 287 -312 287 -312 287 -276 c 0,18,19
 287 -241 287 -241 311.5 -217 c 128,-1,20
 336 -193 336 -193 371 -193 c 2,21,-1
 735 -193 l 2,22,23
 768 -193 768 -193 797 -168 c 2,24,-1
 854 -119 l 2,25,26
 883 -97 883 -97 883 -61 c 2,27,-1
 883 195 l 1,28,29
 765 76 765 76 653 76 c 2,30,-1
 524 76 l 2,31,32
 424 76 424 76 344 145 c 2,33,-1
 281 201 l 2,34,35
 250 227 250 227 227.5 277 c 128,-1,36
 205 327 205 327 205 375 c 2,37,-1
 205 653 l 2,38,39
 205 712 205 712 227.5 765 c 128,-1,40
 250 818 250 818 281 844 c 2,41,-1
 350 903 l 2,42,43
 424 967 424 967 524 967 c 2,44,-1
 645 967 l 2,45,46
 744 967 744 967 825 897 c 2,47,-1
 883 848 l 1,48,-1
 881 881 l 2,49,50
 881 915 881 915 906 940 c 128,-1,51
 931 965 931 965 965 965 c 0,52,53
 1000 965 1000 965 1025.5 940.5 c 128,-1,54
 1051 916 1051 916 1051 881 c 2,55,-1
 1051 -61 l 2,56,57
 1051 -168 1051 -168 965 -244 c 2,58,-1
 897 -303 l 2,59,60
 871 -326 871 -326 823.5 -343 c 128,-1,61
 776 -360 776 -360 735 -360 c 2,14,-1
639 799 m 2,62,-1
 526 799 l 2,63,64
 489 799 489 799 455 770 c 2,65,-1
 403 727 l 2,66,67
 373 702 373 702 373 659 c 2,68,-1
 373 379 l 2,69,70
 373 345 373 345 406 315 c 2,71,-1
 461 266 l 2,72,73
 487 244 487 244 516 244 c 2,74,-1
 653 244 l 2,75,76
 683 244 683 244 719 274 c 2,77,-1
 852 387 l 2,78,79
 883 414 883 414 883 453 c 2,80,-1
 883 580 l 2,81,82
 883 626 883 626 848 655 c 2,83,-1
 711 772 l 2,84,85
 682 799 682 799 639 799 c 2,62,-1
EndSplineSet
EndChar

StartChar: Hcircumflex
Encoding: 292 292 88
Width: 1237
Flags: W
LayerCount: 2
Fore
SplineSet
203 84 m 2,0,-1
 203 1245 l 2,1,2
 203 1279 203 1279 227.5 1304 c 0,3,4
 252 1329 252 1329 287 1329 c 0,5,6
 321 1329 321 1329 346 1304 c 0,7,8
 371 1279 371 1279 371 1245 c 2,9,-1
 371 750 l 1,10,-1
 883 750 l 1,11,-1
 883 1245 l 2,12,13
 883 1279 883 1279 907.5 1304 c 0,14,15
 932 1329 932 1329 967 1329 c 256,16,17
 1002 1329 1002 1329 1026.5 1304 c 0,18,19
 1051 1279 1051 1279 1051 1243 c 2,20,-1
 1051 84 l 2,21,22
 1051 50 1051 50 1025.5 25 c 0,23,24
 1000 0 1000 0 967 0 c 0,25,26
 931 0 931 0 907 24.5 c 0,27,28
 883 49 883 49 883 84 c 2,29,-1
 883 582 l 1,30,-1
 373 582 l 1,31,-1
 373 84 l 2,32,33
 373 50 373 50 347.5 25 c 0,34,35
 322 0 322 0 287 0 c 0,36,37
 253 0 253 0 228 24.5 c 0,38,39
 203 49 203 49 203 84 c 2,0,-1
EndSplineSet
Refer: 41 710 S 1 0 0 1 -9 364 2
EndChar

StartChar: hcircumflex
Encoding: 293 293 89
Width: 1237
Flags: W
LayerCount: 2
Fore
SplineSet
205 84 m 2,0,-1
 205 1245 l 2,1,2
 205 1279 205 1279 229.5 1303 c 0,3,4
 254 1327 254 1327 289 1327 c 256,5,6
 324 1327 324 1327 348.5 1302.5 c 0,7,8
 373 1278 373 1278 373 1243 c 2,9,-1
 373 819 l 1,10,-1
 508 907 l 2,11,12
 600 965 600 965 672 965 c 2,13,-1
 776 965 l 2,14,15
 879 965 879 965 953 891.5 c 0,16,17
 1027 818 1027 818 1030 713 c 2,18,-1
 1051 84 l 2,19,20
 1052 49 1052 49 1027 24.5 c 0,21,22
 1002 0 1002 0 967 0 c 256,23,24
 932 0 932 0 908 25.5 c 0,25,26
 884 51 884 51 883 84 c 2,27,-1
 862 715 l 2,28,29
 861 749 861 749 836 774 c 0,30,31
 811 799 811 799 776 799 c 2,32,-1
 682 799 l 2,33,34
 650 799 650 799 612 774 c 2,35,-1
 373 618 l 1,36,-1
 373 84 l 2,37,38
 373 49 373 49 348.5 24.5 c 0,39,40
 324 0 324 0 289 0 c 256,41,42
 254 0 254 0 229.5 24.5 c 0,43,44
 205 49 205 49 205 84 c 2,0,-1
EndSplineSet
Refer: 41 710 N 1 0 0 1 -9 364 2
EndChar

StartChar: Hbar
Encoding: 294 294 90
Width: 1237
Flags: W
LayerCount: 2
Fore
SplineSet
1113.22753906 1104 m 2,0,1
 1142.71484375 1104 1142.71484375 1104 1164.19921875 1078.5 c 128,-1,2
 1185.68261719 1053 1185.68261719 1053 1185.68261719 1017 c 0,3,4
 1185.68261719 983 1185.68261719 983 1164.19921875 958.5 c 128,-1,5
 1142.71484375 934 1142.71484375 934 1113.22753906 934 c 2,6,-1
 135.084960938 934 l 2,7,8
 105.59765625 934 105.59765625 934 85.798828125 959 c 128,-1,9
 66 984 66 984 66 1020 c 0,10,11
 66 1054 66 1054 85.798828125 1079 c 128,-1,12
 105.59765625 1104 105.59765625 1104 135.084960938 1104 c 2,13,-1
 1113.22753906 1104 l 2,0,1
203 84 m 2,14,-1
 203 1245 l 2,15,16
 203 1279 203 1279 227.5 1304 c 128,-1,17
 252 1329 252 1329 287 1329 c 0,18,19
 321 1329 321 1329 346 1304 c 128,-1,20
 371 1279 371 1279 371 1245 c 2,21,-1
 371 750 l 1,22,-1
 883 750 l 1,23,-1
 883 1245 l 2,24,25
 883 1279 883 1279 907.5 1304 c 128,-1,26
 932 1329 932 1329 967 1329 c 256,27,28
 1002 1329 1002 1329 1026.5 1304 c 128,-1,29
 1051 1279 1051 1279 1051 1243 c 2,30,-1
 1051 84 l 2,31,32
 1051 50 1051 50 1025.5 25 c 128,-1,33
 1000 0 1000 0 967 0 c 0,34,35
 931 0 931 0 907 24.5 c 128,-1,36
 883 49 883 49 883 84 c 2,37,-1
 883 582 l 1,38,-1
 373 582 l 1,39,-1
 373 84 l 2,40,41
 373 50 373 50 347.5 25 c 128,-1,42
 322 0 322 0 287 0 c 0,43,44
 253 0 253 0 228 24.5 c 128,-1,45
 203 49 203 49 203 84 c 2,14,-1
EndSplineSet
EndChar

StartChar: hbar
Encoding: 295 295 91
Width: 1237
Flags: W
LayerCount: 2
Fore
SplineSet
205 1026.5 m 1,0,-1
 117 1026.5 l 2,1,2
 83 1026.5 83 1026.5 58 1051 c 128,-1,3
 33 1075.5 33 1075.5 33 1110.5 c 0,4,5
 33 1144.5 33 1144.5 58 1169.5 c 128,-1,6
 83 1194.5 83 1194.5 117 1194.5 c 2,7,-1
 373 1194.5 l 1,8,-1
 457 1194.5 l 2,9,10
 492 1194.5 492 1194.5 517.5 1170 c 128,-1,11
 543 1145.5 543 1145.5 543 1110.5 c 256,12,13
 543 1075.5 543 1075.5 517.5 1051 c 128,-1,14
 492 1026.5 492 1026.5 457 1026.5 c 2,15,-1
 205 1026.5 l 1,0,-1
205 84 m 2,16,-1
 205 1245 l 2,17,18
 205 1279 205 1279 229.5 1303 c 128,-1,19
 254 1327 254 1327 289 1327 c 256,20,21
 324 1327 324 1327 348.5 1302.5 c 128,-1,22
 373 1278 373 1278 373 1243 c 2,23,-1
 373 819 l 1,24,-1
 508 907 l 2,25,26
 600 965 600 965 672 965 c 2,27,-1
 776 965 l 2,28,29
 879 965 879 965 953 891.5 c 128,-1,30
 1027 818 1027 818 1030 713 c 2,31,-1
 1051 84 l 2,32,33
 1052 49 1052 49 1027 24.5 c 128,-1,34
 1002 0 1002 0 967 0 c 256,35,36
 932 0 932 0 908 25.5 c 128,-1,37
 884 51 884 51 883 84 c 2,38,-1
 862 715 l 2,39,40
 861 749 861 749 836 774 c 128,-1,41
 811 799 811 799 776 799 c 2,42,-1
 682 799 l 2,43,44
 650 799 650 799 612 774 c 2,45,-1
 373 618 l 1,46,-1
 373 84 l 2,47,48
 373 49 373 49 348.5 24.5 c 128,-1,49
 324 0 324 0 289 0 c 256,50,51
 254 0 254 0 229.5 24.5 c 128,-1,52
 205 49 205 49 205 84 c 2,16,-1
EndSplineSet
EndChar

StartChar: Itilde
Encoding: 296 296 92
Width: 1237
Flags: W
LayerCount: 2
Fore
SplineSet
289 1329 m 2,0,-1
 969 1329 l 2,1,2
 1002 1329 1002 1329 1027.5 1304 c 0,3,4
 1053 1279 1053 1279 1053 1245 c 0,5,6
 1053 1210 1053 1210 1028 1184.5 c 0,7,8
 1003 1159 1003 1159 969 1159 c 2,9,-1
 715 1159 l 1,10,-1
 715 168 l 1,11,-1
 969 168 l 2,12,13
 1004 168 1004 168 1028.5 143.5 c 0,14,15
 1053 119 1053 119 1053 84 c 256,16,17
 1053 49 1053 49 1028 24.5 c 0,18,19
 1003 0 1003 0 969 0 c 2,20,-1
 289 0 l 2,21,22
 254 0 254 0 229.5 24.5 c 0,23,24
 205 49 205 49 205 84 c 256,25,26
 205 119 205 119 229.5 143.5 c 0,27,28
 254 168 254 168 289 168 c 2,29,-1
 547 168 l 1,30,-1
 547 1159 l 1,31,-1
 289 1159 l 2,32,33
 254 1159 254 1159 229.5 1184 c 0,34,35
 205 1209 205 1209 205 1243 c 0,36,37
 205 1279 205 1279 229.5 1304 c 0,38,39
 254 1329 254 1329 289 1329 c 2,0,-1
EndSplineSet
Refer: 42 732 S 1 0 0 1 -36 365 2
EndChar

StartChar: itilde
Encoding: 297 297 93
Width: 1237
Flags: W
LayerCount: 2
Fore
SplineSet
885 2 m 2,0,-1
 373 2 l 2,1,2
 338 2 338 2 313.5 26.5 c 0,3,4
 289 51 289 51 289 86 c 0,5,6
 289 120 289 120 313.5 145 c 0,7,8
 338 170 338 170 373 170 c 2,9,-1
 545 170 l 1,10,-1
 545 797 l 1,11,-1
 375 797 l 2,12,13
 340 797 340 797 315.5 822 c 0,14,15
 291 847 291 847 291 881 c 0,16,17
 291 916 291 916 315.5 941.5 c 0,18,19
 340 967 340 967 375 967 c 2,20,-1
 631 967 l 2,21,22
 666 967 666 967 690.5 941.5 c 0,23,24
 715 916 715 916 715 881 c 2,25,-1
 715 170 l 1,26,-1
 883 170 l 2,27,28
 918 170 918 170 943.5 145.5 c 0,29,30
 969 121 969 121 969 86 c 256,31,32
 969 51 969 51 944 26.5 c 0,33,34
 919 2 919 2 885 2 c 2,0,-1
EndSplineSet
Refer: 42 732 N 1 0 0 1 -107 0 2
EndChar

StartChar: Imacron
Encoding: 298 298 94
Width: 1237
Flags: W
LayerCount: 2
Fore
SplineSet
889 1597.5 m 6,0,1
 924 1597.5 924 1597.5 949.5 1573 c 132,-1,2
 975 1548.5 975 1548.5 975 1513.5 c 260,3,4
 975 1478.5 975 1478.5 949.5 1454 c 132,-1,5
 924 1429.5 924 1429.5 889 1429.5 c 6,6,-1
 369 1429.5 l 6,7,8
 335 1429.5 335 1429.5 310 1454.5 c 132,-1,9
 285 1479.5 285 1479.5 285 1513.5 c 4,10,11
 285 1548.5 285 1548.5 310 1573 c 132,-1,12
 335 1597.5 335 1597.5 369 1597.5 c 6,13,-1
 889 1597.5 l 6,0,1
289 1329 m 2,14,-1
 969 1329 l 2,15,16
 1002 1329 1002 1329 1027.5 1304 c 128,-1,17
 1053 1279 1053 1279 1053 1245 c 0,18,19
 1053 1210 1053 1210 1028 1184.5 c 128,-1,20
 1003 1159 1003 1159 969 1159 c 2,21,-1
 715 1159 l 1,22,-1
 715 168 l 1,23,-1
 969 168 l 2,24,25
 1004 168 1004 168 1028.5 143.5 c 128,-1,26
 1053 119 1053 119 1053 84 c 256,27,28
 1053 49 1053 49 1028 24.5 c 128,-1,29
 1003 0 1003 0 969 0 c 2,30,-1
 289 0 l 2,31,32
 254 0 254 0 229.5 24.5 c 128,-1,33
 205 49 205 49 205 84 c 256,34,35
 205 119 205 119 229.5 143.5 c 128,-1,36
 254 168 254 168 289 168 c 2,37,-1
 547 168 l 1,38,-1
 547 1159 l 1,39,-1
 289 1159 l 2,40,41
 254 1159 254 1159 229.5 1184 c 128,-1,42
 205 1209 205 1209 205 1243 c 0,43,44
 205 1279 205 1279 229.5 1304 c 128,-1,45
 254 1329 254 1329 289 1329 c 2,14,-1
EndSplineSet
EndChar

StartChar: imacron
Encoding: 299 299 95
Width: 1237
Flags: W
LayerCount: 2
Fore
SplineSet
824 1283 m 2,0,1
 859 1283 859 1283 884.5 1258.5 c 128,-1,2
 910 1234 910 1234 910 1199 c 256,3,4
 910 1164 910 1164 884.5 1139.5 c 128,-1,5
 859 1115 859 1115 824 1115 c 2,6,-1
 304 1115 l 2,7,8
 270 1115 270 1115 245 1140 c 128,-1,9
 220 1165 220 1165 220 1199 c 0,10,11
 220 1234 220 1234 245 1258.5 c 128,-1,12
 270 1283 270 1283 304 1283 c 2,13,-1
 824 1283 l 2,0,1
885 2 m 2,14,-1
 373 2 l 2,15,16
 338 2 338 2 313.5 26.5 c 128,-1,17
 289 51 289 51 289 86 c 0,18,19
 289 120 289 120 313.5 145 c 128,-1,20
 338 170 338 170 373 170 c 2,21,-1
 545 170 l 1,22,-1
 545 797 l 1,23,-1
 375 797 l 2,24,25
 340 797 340 797 315.5 822 c 128,-1,26
 291 847 291 847 291 881 c 0,27,28
 291 916 291 916 315.5 941.5 c 128,-1,29
 340 967 340 967 375 967 c 2,30,-1
 631 967 l 2,31,32
 666 967 666 967 690.5 941.5 c 128,-1,33
 715 916 715 916 715 881 c 2,34,-1
 715 170 l 1,35,-1
 883 170 l 2,36,37
 918 170 918 170 943.5 145.5 c 128,-1,38
 969 121 969 121 969 86 c 256,39,40
 969 51 969 51 944 26.5 c 128,-1,41
 919 2 919 2 885 2 c 2,14,-1
EndSplineSet
EndChar

StartChar: ibreve
Encoding: 301 301 96
Width: 1237
Flags: W
LayerCount: 2
Fore
SplineSet
860 1408 m 0,0,1
 895 1408 895 1408 920.5 1386.5 c 128,-1,2
 946 1365 946 1365 946 1336 c 0,3,4
 946 1269 946 1269 825 1183 c 128,-1,5
 704 1097 704 1097 556 1097 c 0,6,7
 409 1097 409 1097 288 1183 c 128,-1,8
 167 1269 167 1269 167 1336 c 0,9,10
 167 1365 167 1365 192.5 1386.5 c 128,-1,11
 218 1408 218 1408 253 1408 c 0,12,13
 294 1408 294 1408 319 1384 c 0,14,15
 428 1267 428 1267 556 1267 c 0,16,17
 685 1267 685 1267 794 1384 c 0,18,19
 819 1408 819 1408 860 1408 c 0,0,1
885 2 m 2,20,-1
 373 2 l 2,21,22
 338 2 338 2 313.5 26.5 c 128,-1,23
 289 51 289 51 289 86 c 0,24,25
 289 120 289 120 313.5 145 c 128,-1,26
 338 170 338 170 373 170 c 2,27,-1
 545 170 l 1,28,-1
 545 797 l 1,29,-1
 375 797 l 2,30,31
 340 797 340 797 315.5 822 c 128,-1,32
 291 847 291 847 291 881 c 0,33,34
 291 916 291 916 315.5 941.5 c 128,-1,35
 340 967 340 967 375 967 c 2,36,-1
 631 967 l 2,37,38
 666 967 666 967 690.5 941.5 c 128,-1,39
 715 916 715 916 715 881 c 2,40,-1
 715 170 l 1,41,-1
 883 170 l 2,42,43
 918 170 918 170 943.5 145.5 c 128,-1,44
 969 121 969 121 969 86 c 256,45,46
 969 51 969 51 944 26.5 c 128,-1,47
 919 2 919 2 885 2 c 2,20,-1
EndSplineSet
EndChar

StartChar: Iogonek
Encoding: 302 302 97
Width: 1237
Flags: W
LayerCount: 2
Fore
SplineSet
969 0 m 5,0,-1
 969 -190 l 5,1,-1
 1089 -190 l 6,2,3
 1124 -190 1124 -190 1148.5 -215.5 c 132,-1,4
 1173 -241 1173 -241 1173 -276 c 4,5,6
 1173 -310 1173 -310 1148 -335 c 132,-1,7
 1123 -360 1123 -360 1089 -360 c 6,8,-1
 885 -360 l 6,9,10
 870 -360 870 -360 825.5 -335 c 4,11,12
 801 -321 801 -321 801 -274 c 6,13,-1
 801 0 l 5,14,-1
 969 0 l 5,0,-1
289 1329 m 2,15,-1
 969 1329 l 2,16,17
 1002 1329 1002 1329 1027.5 1304 c 128,-1,18
 1053 1279 1053 1279 1053 1245 c 0,19,20
 1053 1210 1053 1210 1028 1184.5 c 128,-1,21
 1003 1159 1003 1159 969 1159 c 2,22,-1
 715 1159 l 1,23,-1
 715 168 l 1,24,-1
 969 168 l 2,25,26
 1004 168 1004 168 1028.5 143.5 c 128,-1,27
 1053 119 1053 119 1053 84 c 256,28,29
 1053 49 1053 49 1028 24.5 c 128,-1,30
 1003 0 1003 0 969 0 c 2,31,-1
 289 0 l 2,32,33
 254 0 254 0 229.5 24.5 c 128,-1,34
 205 49 205 49 205 84 c 256,35,36
 205 119 205 119 229.5 143.5 c 128,-1,37
 254 168 254 168 289 168 c 2,38,-1
 547 168 l 1,39,-1
 547 1159 l 1,40,-1
 289 1159 l 2,41,42
 254 1159 254 1159 229.5 1184 c 128,-1,43
 205 1209 205 1209 205 1243 c 0,44,45
 205 1279 205 1279 229.5 1304 c 128,-1,46
 254 1329 254 1329 289 1329 c 2,15,-1
EndSplineSet
EndChar

StartChar: Ibreve
Encoding: 300 300 98
Width: 1237
Flags: W
LayerCount: 2
Fore
SplineSet
941 1747 m 4,0,1
 976 1747 976 1747 1001.5 1725.5 c 132,-1,2
 1027 1704 1027 1704 1027 1675 c 4,3,4
 1027 1608 1027 1608 906 1522 c 132,-1,5
 785 1436 785 1436 637 1436 c 4,6,7
 490 1436 490 1436 369 1522 c 132,-1,8
 248 1608 248 1608 248 1675 c 4,9,10
 248 1704 248 1704 273.5 1725.5 c 132,-1,11
 299 1747 299 1747 334 1747 c 4,12,13
 375 1747 375 1747 400 1723 c 4,14,15
 509 1606 509 1606 637 1606 c 4,16,17
 766 1606 766 1606 875 1723 c 4,18,19
 900 1747 900 1747 941 1747 c 4,0,1
289 1329 m 2,20,-1
 969 1329 l 2,21,22
 1002 1329 1002 1329 1027.5 1304 c 128,-1,23
 1053 1279 1053 1279 1053 1245 c 0,24,25
 1053 1210 1053 1210 1028 1184.5 c 128,-1,26
 1003 1159 1003 1159 969 1159 c 2,27,-1
 715 1159 l 1,28,-1
 715 168 l 1,29,-1
 969 168 l 2,30,31
 1004 168 1004 168 1028.5 143.5 c 128,-1,32
 1053 119 1053 119 1053 84 c 256,33,34
 1053 49 1053 49 1028 24.5 c 128,-1,35
 1003 0 1003 0 969 0 c 2,36,-1
 289 0 l 2,37,38
 254 0 254 0 229.5 24.5 c 128,-1,39
 205 49 205 49 205 84 c 256,40,41
 205 119 205 119 229.5 143.5 c 128,-1,42
 254 168 254 168 289 168 c 2,43,-1
 547 168 l 1,44,-1
 547 1159 l 1,45,-1
 289 1159 l 2,46,47
 254 1159 254 1159 229.5 1184 c 128,-1,48
 205 1209 205 1209 205 1243 c 0,49,50
 205 1279 205 1279 229.5 1304 c 128,-1,51
 254 1329 254 1329 289 1329 c 2,20,-1
EndSplineSet
EndChar

StartChar: iogonek
Encoding: 303 303 99
Width: 1237
Flags: W
LayerCount: 2
Fore
SplineSet
885 2 m 5,0,-1
 885 -188 l 5,1,-1
 1005 -188 l 6,2,3
 1040 -188 1040 -188 1064.5 -213.5 c 132,-1,4
 1089 -239 1089 -239 1089 -274 c 4,5,6
 1089 -308 1089 -308 1064 -333 c 132,-1,7
 1039 -358 1039 -358 1005 -358 c 6,8,-1
 801 -358 l 6,9,10
 786 -358 786 -358 741.5 -333 c 4,11,12
 717 -319 717 -319 717 -272 c 6,13,-1
 717 2 l 5,14,-1
 885 2 l 5,0,-1
543 1403 m 2,15,-1
 631 1403 l 2,16,17
 666 1403 666 1403 690.5 1378.5 c 128,-1,18
 715 1354 715 1354 715 1319 c 2,19,-1
 715 1247 l 2,20,21
 715 1212 715 1212 690.5 1186.5 c 128,-1,22
 666 1161 666 1161 631 1161 c 2,23,-1
 541 1161 l 2,24,25
 505 1161 505 1161 480.5 1187 c 128,-1,26
 456 1213 456 1213 457 1245 c 2,27,-1
 459 1319 l 2,28,29
 459 1354 459 1354 483.5 1378.5 c 128,-1,30
 508 1403 508 1403 543 1403 c 2,15,-1
885 2 m 2,31,-1
 373 2 l 2,32,33
 338 2 338 2 313.5 26.5 c 128,-1,34
 289 51 289 51 289 86 c 0,35,36
 289 120 289 120 313.5 145 c 128,-1,37
 338 170 338 170 373 170 c 2,38,-1
 545 170 l 1,39,-1
 545 797 l 1,40,-1
 375 797 l 2,41,42
 340 797 340 797 315.5 822 c 128,-1,43
 291 847 291 847 291 881 c 0,44,45
 291 916 291 916 315.5 941.5 c 128,-1,46
 340 967 340 967 375 967 c 2,47,-1
 631 967 l 2,48,49
 666 967 666 967 690.5 941.5 c 128,-1,50
 715 916 715 916 715 881 c 2,51,-1
 715 170 l 1,52,-1
 883 170 l 2,53,54
 918 170 918 170 943.5 145.5 c 128,-1,55
 969 121 969 121 969 86 c 256,56,57
 969 51 969 51 944 26.5 c 128,-1,58
 919 2 919 2 885 2 c 2,31,-1
EndSplineSet
EndChar

StartChar: Idotaccent
Encoding: 304 304 100
Width: 1237
Flags: W
LayerCount: 2
Fore
SplineSet
731 1477.5 m 2,0,1
 731 1444 731 1444 707 1418 c 0,2,3
 686 1396 686 1396 647 1396.5 c 0,4,5
 603 1396 603 1396 588 1421 c 0,6,7
 564 1460 564 1460 564 1477.5 c 2,8,-1
 564 1527 l 2,9,10
 564 1562 564 1562 588 1586.5 c 0,11,12
 610.595703125 1610.5078125 610.595703125 1610.5078125 647 1611 c 0,13,14
 684 1612 684 1612 707 1586.5 c 0,15,16
 731 1560 731 1560 731 1527 c 2,17,-1
 731 1477.5 l 2,0,1
289 1329 m 2,18,-1
 969 1329 l 2,19,20
 1002 1329 1002 1329 1027.5 1304 c 128,-1,21
 1053 1279 1053 1279 1053 1245 c 0,22,23
 1053 1210 1053 1210 1028 1184.5 c 128,-1,24
 1003 1159 1003 1159 969 1159 c 2,25,-1
 715 1159 l 1,26,-1
 715 168 l 1,27,-1
 969 168 l 2,28,29
 1004 168 1004 168 1028.5 143.5 c 128,-1,30
 1053 119 1053 119 1053 84 c 256,31,32
 1053 49 1053 49 1028 24.5 c 128,-1,33
 1003 0 1003 0 969 0 c 2,34,-1
 289 0 l 2,35,36
 254 0 254 0 229.5 24.5 c 128,-1,37
 205 49 205 49 205 84 c 256,38,39
 205 119 205 119 229.5 143.5 c 128,-1,40
 254 168 254 168 289 168 c 2,41,-1
 547 168 l 1,42,-1
 547 1159 l 1,43,-1
 289 1159 l 2,44,45
 254 1159 254 1159 229.5 1184 c 128,-1,46
 205 1209 205 1209 205 1243 c 0,47,48
 205 1279 205 1279 229.5 1304 c 128,-1,49
 254 1329 254 1329 289 1329 c 2,18,-1
EndSplineSet
EndChar

StartChar: ij
Encoding: 307 307 101
Width: 1573
Flags: W
LayerCount: 2
Fore
SplineSet
320 1401 m 2,0,-1
 408 1401 l 2,1,2
 443 1401 443 1401 467.5 1376.5 c 128,-1,3
 492 1352 492 1352 492 1317 c 2,4,-1
 492 1245 l 2,5,6
 492 1210 492 1210 467.5 1184.5 c 128,-1,7
 443 1159 443 1159 408 1159 c 2,8,-1
 318 1159 l 2,9,10
 282 1159 282 1159 257.5 1185 c 128,-1,11
 233 1211 233 1211 234 1243 c 2,12,-1
 236 1317 l 2,13,14
 236 1352 236 1352 260.5 1376.5 c 128,-1,15
 285 1401 285 1401 320 1401 c 2,0,-1
662 0 m 2,16,-1
 150 0 l 2,17,18
 115 0 115 0 90.5 24.5 c 128,-1,19
 66 49 66 49 66 84 c 0,20,21
 66 118 66 118 90.5 143 c 128,-1,22
 115 168 115 168 150 168 c 2,23,-1
 322 168 l 1,24,-1
 322 795 l 1,25,-1
 152 795 l 2,26,27
 117 795 117 795 92.5 820 c 128,-1,28
 68 845 68 845 68 879 c 0,29,30
 68 914 68 914 92.5 939.5 c 128,-1,31
 117 965 117 965 152 965 c 2,32,-1
 408 965 l 2,33,34
 443 965 443 965 467.5 939.5 c 128,-1,35
 492 914 492 914 492 879 c 2,36,-1
 492 168 l 1,37,-1
 660 168 l 2,38,39
 695 168 695 168 720.5 143.5 c 128,-1,40
 746 119 746 119 746 84 c 256,41,42
 746 49 746 49 721 24.5 c 128,-1,43
 696 0 696 0 662 0 c 2,16,-1
1336.5 1402.5 m 2,44,-1
 1426.5 1402.5 l 2,45,46
 1459.5 1402.5 1459.5 1402.5 1485 1377 c 128,-1,47
 1510.5 1351.5 1510.5 1351.5 1510.5 1318.5 c 2,48,-1
 1510.5 1244.5 l 2,49,50
 1510.5 1210.5 1510.5 1210.5 1486 1185.5 c 128,-1,51
 1461.5 1160.5 1461.5 1160.5 1426.5 1160.5 c 2,52,-1
 1336.5 1160.5 l 2,53,54
 1301.5 1160.5 1301.5 1160.5 1277 1185 c 128,-1,55
 1252.5 1209.5 1252.5 1209.5 1252.5 1244.5 c 2,56,-1
 1252.5 1318.5 l 2,57,58
 1253.5 1352.5 1253.5 1352.5 1278.5 1377.5 c 128,-1,59
 1303.5 1402.5 1303.5 1402.5 1336.5 1402.5 c 2,44,-1
1256.5 -356.5 m 2,60,-1
 1078.5 -356.5 l 2,61,62
 976.5 -356.5 976.5 -356.5 900.5 -283 c 128,-1,63
 824.5 -209.5 824.5 -209.5 824.5 -125.5 c 0,64,65
 824.5 -95.5 824.5 -95.5 849.5 -70.5 c 128,-1,66
 874.5 -45.5 874.5 -45.5 910.5 -45.5 c 0,67,68
 948.5 -45.5 948.5 -45.5 964 -62.5 c 128,-1,69
 979.5 -79.5 979.5 -79.5 993 -115.5 c 128,-1,70
 1006.5 -151.5 1006.5 -151.5 1024.5 -170.5 c 128,-1,71
 1042.5 -189.5 1042.5 -189.5 1086.5 -189.5 c 2,72,-1
 1254.5 -189.5 l 2,73,74
 1289.5 -189.5 1289.5 -189.5 1314 -165 c 128,-1,75
 1338.5 -140.5 1338.5 -140.5 1338.5 -105.5 c 2,76,-1
 1338.5 800.5 l 1,77,-1
 1082.5 800.5 l 2,78,79
 1047.5 800.5 1047.5 800.5 1023 824.5 c 128,-1,80
 998.5 848.5 998.5 848.5 998.5 884.5 c 0,81,82
 998.5 918.5 998.5 918.5 1023 943.5 c 128,-1,83
 1047.5 968.5 1047.5 968.5 1082.5 968.5 c 2,84,-1
 1424.5 968.5 l 2,85,86
 1459.5 968.5 1459.5 968.5 1484 943 c 128,-1,87
 1508.5 917.5 1508.5 917.5 1508.5 882.5 c 2,88,-1
 1508.5 -105.5 l 2,89,90
 1508.5 -208.5 1508.5 -208.5 1434.5 -282.5 c 128,-1,91
 1360.5 -356.5 1360.5 -356.5 1256.5 -356.5 c 2,60,-1
EndSplineSet
EndChar

StartChar: IJ
Encoding: 306 306 102
Width: 1733
Flags: W
LayerCount: 2
Fore
SplineSet
139 1329 m 2,0,-1
 819 1329 l 2,1,2
 852 1329 852 1329 877.5 1304 c 128,-1,3
 903 1279 903 1279 903 1245 c 0,4,5
 903 1210 903 1210 878 1184.5 c 128,-1,6
 853 1159 853 1159 819 1159 c 2,7,-1
 565 1159 l 1,8,-1
 565 168 l 1,9,-1
 819 168 l 2,10,11
 854 168 854 168 878.5 143.5 c 128,-1,12
 903 119 903 119 903 84 c 256,13,14
 903 49 903 49 878 24.5 c 128,-1,15
 853 0 853 0 819 0 c 2,16,-1
 139 0 l 2,17,18
 104 0 104 0 79.5 24.5 c 128,-1,19
 55 49 55 49 55 84 c 256,20,21
 55 119 55 119 79.5 143.5 c 128,-1,22
 104 168 104 168 139 168 c 2,23,-1
 397 168 l 1,24,-1
 397 1159 l 1,25,-1
 139 1159 l 2,26,27
 104 1159 104 1159 79.5 1184 c 128,-1,28
 55 1209 55 1209 55 1243 c 0,29,30
 55 1279 55 1279 79.5 1304 c 128,-1,31
 104 1329 104 1329 139 1329 c 2,0,-1
984 254 m 2,32,-1
 984 520 l 2,33,34
 984 555 984 555 1008.5 579.5 c 128,-1,35
 1033 604 1033 604 1068 604 c 256,36,37
 1103 604 1103 604 1127.5 579.5 c 128,-1,38
 1152 555 1152 555 1152 520 c 2,39,-1
 1152 252 l 2,40,41
 1152 218 1152 218 1177 194 c 128,-1,42
 1202 170 1202 170 1238 170 c 2,43,-1
 1408 170 l 2,44,45
 1443 170 1443 170 1468.5 194.5 c 128,-1,46
 1494 219 1494 219 1494 254 c 2,47,-1
 1494 1245 l 2,48,49
 1494 1280 1494 1280 1518 1304.5 c 128,-1,50
 1542 1329 1542 1329 1576 1329 c 256,51,52
 1610 1329 1610 1329 1636 1302 c 128,-1,53
 1662 1275 1662 1275 1662 1241 c 2,54,-1
 1662 254 l 2,55,56
 1662 148 1662 148 1585 74 c 128,-1,57
 1508 0 1508 0 1408 0 c 2,58,-1
 1238 0 l 2,59,60
 1133 0 1133 0 1058.5 75 c 128,-1,61
 984 150 984 150 984 254 c 2,32,-1
EndSplineSet
EndChar

StartChar: jcircumflex
Encoding: 309 309 103
Width: 1237
Flags: W
LayerCount: 2
Fore
SplineSet
719 -360 m 2,0,-1
 541 -360 l 2,1,2
 439 -360 439 -360 363 -286.5 c 0,3,4
 287 -213 287 -213 287 -129 c 0,5,6
 287 -99 287 -99 312 -74 c 0,7,8
 337 -49 337 -49 373 -49 c 0,9,10
 411 -49 411 -49 426.5 -66 c 0,11,12
 442 -83 442 -83 455.5 -119 c 0,13,14
 469 -155 469 -155 487 -174 c 0,15,16
 505 -193 505 -193 549 -193 c 2,17,-1
 717 -193 l 2,18,19
 752 -193 752 -193 776.5 -168.5 c 0,20,21
 801 -144 801 -144 801 -109 c 2,22,-1
 801 797 l 1,23,-1
 545 797 l 2,24,25
 510 797 510 797 485.5 821 c 0,26,27
 461 845 461 845 461 881 c 0,28,29
 461 915 461 915 485.5 940 c 0,30,31
 510 965 510 965 545 965 c 2,32,-1
 887 965 l 2,33,34
 922 965 922 965 946.5 939.5 c 0,35,36
 971 914 971 914 971 879 c 2,37,-1
 971 -109 l 2,38,39
 971 -212 971 -212 897 -286 c 0,40,41
 823 -360 823 -360 719 -360 c 2,0,-1
EndSplineSet
Refer: 41 710 N 1 0 0 1 123 0 2
EndChar

StartChar: Jcircumflex
Encoding: 308 308 104
Width: 1272
Flags: W
LayerCount: 2
Fore
SplineSet
289 254 m 2,0,-1
 289 520 l 2,1,2
 289 555 289 555 313.5 579.5 c 0,3,4
 338 604 338 604 373 604 c 256,5,6
 408 604 408 604 432.5 579.5 c 0,7,8
 457 555 457 555 457 520 c 2,9,-1
 457 252 l 2,10,11
 457 218 457 218 482 194 c 0,12,13
 507 170 507 170 543 170 c 2,14,-1
 713 170 l 2,15,16
 748 170 748 170 773.5 194.5 c 0,17,18
 799 219 799 219 799 254 c 2,19,-1
 799 1245 l 2,20,21
 799 1280 799 1280 823 1304.5 c 0,22,23
 847 1329 847 1329 881 1329 c 256,24,25
 915 1329 915 1329 941 1302 c 0,26,27
 967 1275 967 1275 967 1241 c 2,28,-1
 967 254 l 2,29,30
 967 148 967 148 890 74 c 0,31,32
 813 0 813 0 713 0 c 2,33,-1
 543 0 l 2,34,35
 438 0 438 0 363.5 75 c 0,36,37
 289 150 289 150 289 254 c 2,0,-1
EndSplineSet
Refer: 41 710 N 1 0 0 1 239 364 2
EndChar

StartChar: uni0136
Encoding: 310 310 105
Width: 1237
Flags: W
LayerCount: 2
Fore
SplineSet
684 -282 m 6,0,1
 684 -316 684 -316 660 -341.5 c 4,2,3
 636 -366 636 -366 600 -366 c 4,4,5
 565 -366 565 -366 541 -341.5 c 4,6,7
 517 -316 517 -316 517 -282 c 6,8,-1
 517 -139 l 6,9,10
 517 -104 517 -104 541 -79.5 c 4,11,12
 564 -56 564 -56 600 -55 c 4,13,14
 632 -54 632 -54 656 -79.5 c 4,15,16
 684 -108 684 -108 684 -139 c 6,17,-1
 684 -282 l 6,0,1
205 84 m 2,18,-1
 205 1243 l 2,19,20
 205 1279 205 1279 229.5 1304 c 128,-1,21
 254 1329 254 1329 289 1329 c 256,22,23
 324 1329 324 1329 348.5 1304.5 c 128,-1,24
 373 1280 373 1280 373 1245 c 2,25,-1
 373 848 l 1,26,-1
 911 1307 l 2,27,28
 939 1330 939 1330 974 1330 c 256,29,30
 1009 1330 1009 1330 1033 1304 c 128,-1,31
 1057 1278 1057 1278 1057 1244 c 0,32,33
 1057 1209 1057 1209 1030 1186 c 2,34,-1
 420 668 l 1,35,-1
 1030 141 l 2,36,37
 1055 120 1055 120 1055 87 c 256,38,39
 1055 54 1055 54 1030.5 27 c 128,-1,40
 1006 0 1006 0 970 0 c 0,41,42
 936 0 936 0 909 23 c 2,43,-1
 373 485 l 1,44,-1
 373 84 l 2,45,46
 373 49 373 49 348.5 24.5 c 128,-1,47
 324 0 324 0 289 0 c 0,48,49
 255 0 255 0 230 24.5 c 128,-1,50
 205 49 205 49 205 84 c 2,18,-1
EndSplineSet
EndChar

StartChar: uni0137
Encoding: 311 311 106
Width: 1237
Flags: W
LayerCount: 2
Fore
SplineSet
684 -282 m 6,0,1
 684 -316 684 -316 660 -341.5 c 4,2,3
 636 -366 636 -366 600 -366 c 4,4,5
 565 -366 565 -366 541 -341.5 c 4,6,7
 517 -316 517 -316 517 -282 c 6,8,-1
 517 -139 l 6,9,10
 517 -104 517 -104 541 -79.5 c 4,11,12
 564 -56 564 -56 600 -55 c 4,13,14
 632 -54 632 -54 656 -79.5 c 4,15,16
 684 -108 684 -108 684 -139 c 6,17,-1
 684 -282 l 6,0,1
207 84 m 2,18,-1
 207 1243 l 2,19,20
 207 1279 207 1279 231.5 1304 c 128,-1,21
 256 1329 256 1329 291 1329 c 256,22,23
 326 1329 326 1329 350.5 1304 c 128,-1,24
 375 1279 375 1279 375 1243 c 2,25,-1
 375 557 l 1,26,-1
 827 942 l 2,27,28
 856 966 856 966 890 966 c 0,29,30
 926 966 926 966 950 940.5 c 128,-1,31
 974 915 974 915 974 880 c 0,32,33
 974 843 974 843 948 821 c 2,34,-1
 596 522 l 1,35,-1
 1030 141 l 2,36,37
 1056 120 1056 120 1056 86 c 0,38,39
 1056 53 1056 53 1032 26.5 c 128,-1,40
 1008 0 1008 0 973 0 c 256,41,42
 938 0 938 0 911 23 c 2,43,-1
 463 412 l 1,44,-1
 375 338 l 1,45,-1
 375 84 l 2,46,47
 375 49 375 49 350.5 24.5 c 128,-1,48
 326 0 326 0 291 0 c 256,49,50
 256 0 256 0 231.5 24.5 c 128,-1,51
 207 49 207 49 207 84 c 2,18,-1
EndSplineSet
EndChar

StartChar: kgreenlandic
Encoding: 312 312 107
Width: 1237
Flags: W
LayerCount: 2
Fore
SplineSet
346.75 84 m 2,1,-1
 346.75 713.034179688 l 2,2,3
 346.75 750 346.75 750 371.25 774.034179688 c 0,4,5
 396.75 799 396.75 799 430.75 799.034179688 c 256,6,7
 466.75 799 466.75 799 490.25 757.034179688 c 0,8,-1
 514.75 715.034179688 l 2,9,-1
 514.75 592 l 1,10,-1
 728.25 777.034179688 l 2,11,-1
 791.25 800.034179688 l 256,12,13
 816.75 809 816.75 809 850.25 774.034179688 c 0,14,15
 882.75 739 882.75 739 874.25 714 c 0,16,17
 857.75390625 665.012695312 857.75390625 665.012695312 847.25 656.034179688 c 2,18,-1
 561.75 412 l 1,19,-1
 865.25 144 l 2,20,21
 889.75 122 889.75 122 890.25 90 c 256,22,23
 889.75 56 889.75 56 865.75 30 c 0,24,25
 840.75 3 840.75 3 805.25 3 c 0,26,27
 770.252929688 3 770.252929688 3 744.25 26 c 2,28,-1
 514.75 229 l 1,29,-1
 514.75 84 l 2,30,31
 514.75 49 514.75 49 490.381835938 24.5009765625 c 0,32,33
 465.75 0 465.75 0 430.75 0 c 0,34,35
 387.75 0 387.75 0 371.913085938 24.33984375 c 0,36,37
 346.75 64 346.75 64 346.75 84 c 2,1,-1
EndSplineSet
EndChar

StartChar: Lacute
Encoding: 313 313 108
Width: 1237
Flags: W
LayerCount: 2
Fore
SplineSet
735 1685 m 2,0,1
 753 1693 753 1693 772 1693 c 0,2,3
 808 1693 808 1693 831 1666.5 c 0,4,5
 854 1640 854 1640 854 1607 c 0,6,7
 854 1553 854 1553 807 1531 c 2,8,-1
 502 1390 l 2,9,10
 484 1382 484 1382 465 1382 c 0,11,12
 429 1382 429 1382 406 1408.5 c 0,13,14
 383 1435 383 1435 383 1468 c 0,15,16
 383 1522 383 1522 430 1544 c 2,17,-1
 735 1685 l 2,0,1
207 0 m 1,18,-1
 207 1245 l 2,19,20
 207 1279 207 1279 232 1304 c 0,21,22
 257 1329 257 1329 291 1329 c 256,23,24
 325 1329 325 1329 350 1304 c 0,25,26
 375 1279 375 1279 375 1245 c 2,27,-1
 375 168 l 1,28,-1
 969 168 l 2,29,30
 1004 168 1004 168 1029.5 143.5 c 0,31,32
 1055 119 1055 119 1055 84 c 256,33,34
 1055 49 1055 49 1029.5 24.5 c 0,35,36
 1004 0 1004 0 969 0 c 2,37,-1
 207 0 l 1,18,-1
EndSplineSet
EndChar

StartChar: lacute
Encoding: 314 314 109
Width: 1237
Flags: W
LayerCount: 2
Fore
SplineSet
735 1685 m 2,0,1
 753 1693 753 1693 772 1693 c 0,2,3
 808 1693 808 1693 831 1666.5 c 0,4,5
 854 1640 854 1640 854 1607 c 0,6,7
 854 1553 854 1553 807 1531 c 2,8,-1
 502 1390 l 2,9,10
 484 1382 484 1382 465 1382 c 0,11,12
 429 1382 429 1382 406 1408.5 c 0,13,14
 383 1435 383 1435 383 1468 c 0,15,16
 383 1522 383 1522 430 1544 c 2,17,-1
 735 1685 l 2,0,1
885 0 m 2,18,-1
 377 0 l 2,19,20
 342 0 342 0 317.5 25.5 c 0,21,22
 293 51 293 51 293 86 c 0,23,24
 293 120 293 120 317.5 145 c 0,25,26
 342 170 342 170 377 170 c 2,27,-1
 545 170 l 1,28,-1
 545 1161 l 1,29,-1
 375 1161 l 2,30,31
 340 1161 340 1161 315.5 1185.5 c 0,32,33
 291 1210 291 1210 291 1245 c 256,34,35
 291 1280 291 1280 315.5 1304.5 c 0,36,37
 340 1329 340 1329 375 1329 c 2,38,-1
 631 1329 l 2,39,40
 665 1329 665 1329 690 1304 c 0,41,42
 715 1279 715 1279 715 1245 c 2,43,-1
 715 170 l 1,44,-1
 885 170 l 2,45,46
 919 170 919 170 944 145 c 0,47,48
 969 120 969 120 969 86 c 0,49,50
 969 51 969 51 944.5 25.5 c 0,51,52
 920 0 920 0 885 0 c 2,18,-1
EndSplineSet
EndChar

StartChar: uni013B
Encoding: 315 315 110
Width: 1237
Flags: W
LayerCount: 2
Fore
SplineSet
684 -282 m 6,0,1
 684 -316 684 -316 660 -341.5 c 4,2,3
 636 -366 636 -366 600 -366 c 4,4,5
 565 -366 565 -366 541 -341.5 c 4,6,7
 517 -316 517 -316 517 -282 c 6,8,-1
 517 -139 l 6,9,10
 517 -104 517 -104 541 -79.5 c 4,11,12
 564 -56 564 -56 600 -55 c 4,13,14
 632 -54 632 -54 656 -79.5 c 4,15,16
 684 -108 684 -108 684 -139 c 6,17,-1
 684 -282 l 6,0,1
207 0 m 1,18,-1
 207 1245 l 2,19,20
 207 1279 207 1279 232 1304 c 128,-1,21
 257 1329 257 1329 291 1329 c 256,22,23
 325 1329 325 1329 350 1304 c 128,-1,24
 375 1279 375 1279 375 1245 c 2,25,-1
 375 168 l 1,26,-1
 969 168 l 2,27,28
 1004 168 1004 168 1029.5 143.5 c 128,-1,29
 1055 119 1055 119 1055 84 c 256,30,31
 1055 49 1055 49 1029.5 24.5 c 128,-1,32
 1004 0 1004 0 969 0 c 2,33,-1
 207 0 l 1,18,-1
EndSplineSet
EndChar

StartChar: uni013C
Encoding: 316 316 111
Width: 1237
Flags: W
LayerCount: 2
Fore
SplineSet
684 -282 m 6,0,1
 684 -316 684 -316 660 -341.5 c 4,2,3
 636 -366 636 -366 600 -366 c 4,4,5
 565 -366 565 -366 541 -341.5 c 4,6,7
 517 -316 517 -316 517 -282 c 6,8,-1
 517 -139 l 6,9,10
 517 -104 517 -104 541 -79.5 c 4,11,12
 564 -56 564 -56 600 -55 c 4,13,14
 632 -54 632 -54 656 -79.5 c 4,15,16
 684 -108 684 -108 684 -139 c 6,17,-1
 684 -282 l 6,0,1
885 0 m 2,18,-1
 377 0 l 2,19,20
 342 0 342 0 317.5 25.5 c 128,-1,21
 293 51 293 51 293 86 c 0,22,23
 293 120 293 120 317.5 145 c 128,-1,24
 342 170 342 170 377 170 c 2,25,-1
 545 170 l 1,26,-1
 545 1161 l 1,27,-1
 375 1161 l 2,28,29
 340 1161 340 1161 315.5 1185.5 c 128,-1,30
 291 1210 291 1210 291 1245 c 256,31,32
 291 1280 291 1280 315.5 1304.5 c 128,-1,33
 340 1329 340 1329 375 1329 c 2,34,-1
 631 1329 l 2,35,36
 665 1329 665 1329 690 1304 c 128,-1,37
 715 1279 715 1279 715 1245 c 2,38,-1
 715 170 l 1,39,-1
 885 170 l 2,40,41
 919 170 919 170 944 145 c 128,-1,42
 969 120 969 120 969 86 c 0,43,44
 969 51 969 51 944.5 25.5 c 128,-1,45
 920 0 920 0 885 0 c 2,18,-1
EndSplineSet
EndChar

StartChar: Lcaron
Encoding: 317 317 112
Width: 1237
Flags: W
LayerCount: 2
Fore
SplineSet
576.400390625 1319.29980469 m 6,0,-1
 676 1319.29980469 l 6,1,2
 697 1319.29980469 697 1319.29980469 712 1304 c 132,-1,3
 727 1288.70019531 727 1288.70019531 727 1268.29980469 c 4,4,5
 727 1261.70019531 727 1261.70019531 725.201171875 1255.70019531 c 6,6,-1
 624.400390625 908.900390625 l 6,7,8
 612.400390625 871.100585938 612.400390625 871.100585938 575.201171875 871.100585938 c 4,9,10
 553 871.100585938 553 871.100585938 538.30078125 886.700195312 c 132,-1,11
 523.599609375 902.299804688 523.599609375 902.299804688 523.599609375 925.100585938 c 6,12,-1
 523.599609375 1262.90039062 l 6,13,14
 523.599609375 1286.90039062 523.599609375 1286.90039062 537.701171875 1303.10058594 c 132,-1,15
 551.80078125 1319.29980469 551.80078125 1319.29980469 576.400390625 1319.29980469 c 6,0,-1
207 0 m 1,16,-1
 207 1245 l 2,17,18
 207 1279 207 1279 232 1304 c 128,-1,19
 257 1329 257 1329 291 1329 c 256,20,21
 325 1329 325 1329 350 1304 c 128,-1,22
 375 1279 375 1279 375 1245 c 6,23,-1
 375 168 l 1,24,-1
 969 168 l 2,25,26
 1004 168 1004 168 1029.5 143.5 c 128,-1,27
 1055 119 1055 119 1055 84 c 256,28,29
 1055 49 1055 49 1029.5 24.5 c 128,-1,30
 1004 0 1004 0 969 0 c 2,31,-1
 207 0 l 1,16,-1
EndSplineSet
EndChar

StartChar: lcaron
Encoding: 318 318 113
Width: 1237
Flags: W
LayerCount: 2
Fore
SplineSet
915.400390625 1319.29980469 m 2,0,-1
 1015 1319.29980469 l 2,1,2
 1036 1319.29980469 1036 1319.29980469 1051 1304 c 128,-1,3
 1066 1288.70019531 1066 1288.70019531 1066 1268.29980469 c 0,4,5
 1066 1261.70019531 1066 1261.70019531 1064.20117188 1255.70019531 c 2,6,-1
 963.400390625 908.900390625 l 2,7,8
 951.400390625 871.100585938 951.400390625 871.100585938 914.201171875 871.100585938 c 0,9,10
 892 871.100585938 892 871.100585938 877.30078125 886.700195312 c 128,-1,11
 862.599609375 902.299804688 862.599609375 902.299804688 862.599609375 925.100585938 c 2,12,-1
 862.599609375 1262.90039062 l 2,13,14
 862.599609375 1286.90039062 862.599609375 1286.90039062 876.701171875 1303.10058594 c 128,-1,15
 890.80078125 1319.29980469 890.80078125 1319.29980469 915.400390625 1319.29980469 c 2,0,-1
885 0 m 2,17,-1
 377 0 l 2,18,19
 342 0 342 0 317.5 25.5 c 128,-1,20
 293 51 293 51 293 86 c 0,21,22
 293 120 293 120 317.5 145 c 128,-1,23
 342 170 342 170 377 170 c 2,24,-1
 545 170 l 1,25,-1
 545 1161 l 1,26,-1
 375 1161 l 2,27,28
 340 1161 340 1161 315.5 1185.5 c 128,-1,29
 291 1210 291 1210 291 1245 c 256,30,31
 291 1280 291 1280 315.5 1304.5 c 128,-1,32
 340 1329 340 1329 375 1329 c 2,33,-1
 631 1329 l 2,34,35
 665 1329 665 1329 690 1304 c 128,-1,36
 715 1279 715 1279 715 1245 c 2,37,-1
 715 170 l 1,38,-1
 885 170 l 2,39,40
 919 170 919 170 944 145 c 128,-1,41
 969 120 969 120 969 86 c 0,42,43
 969 51 969 51 944.5 25.5 c 128,-1,44
 920 0 920 0 885 0 c 2,17,-1
EndSplineSet
EndChar

StartChar: Ldot
Encoding: 319 319 114
Width: 1237
Flags: W
LayerCount: 2
Fore
SplineSet
921 758.5 m 2,0,1
 921 725 921 725 897 699 c 0,2,3
 876 677 876 677 837 677.5 c 0,4,5
 793 677 793 677 778 702 c 0,6,7
 754 741 754 741 754 758.5 c 2,8,-1
 754 808 l 2,9,10
 754 843 754 843 778 867.5 c 0,11,12
 800.595703125 891.5078125 800.595703125 891.5078125 837 892 c 0,13,14
 874 893 874 893 897 867.5 c 0,15,16
 921 841 921 841 921 808 c 2,17,-1
 921 758.5 l 2,0,1
207 0 m 1,18,-1
 207 1245 l 2,19,20
 207 1279 207 1279 232 1304 c 128,-1,21
 257 1329 257 1329 291 1329 c 256,22,23
 325 1329 325 1329 350 1304 c 128,-1,24
 375 1279 375 1279 375 1245 c 2,25,-1
 375 168 l 1,26,-1
 969 168 l 2,27,28
 1004 168 1004 168 1029.5 143.5 c 128,-1,29
 1055 119 1055 119 1055 84 c 256,30,31
 1055 49 1055 49 1029.5 24.5 c 128,-1,32
 1004 0 1004 0 969 0 c 2,33,-1
 207 0 l 1,18,-1
EndSplineSet
EndChar

StartChar: ldot
Encoding: 320 320 115
Width: 1237
Flags: W
LayerCount: 2
Fore
SplineSet
1044 758.5 m 6,0,1
 1044 725 1044 725 1020 699 c 4,2,3
 999 677 999 677 960 677.5 c 4,4,5
 916 677 916 677 901 702 c 4,6,7
 877 741 877 741 877 758.5 c 6,8,-1
 877 808 l 6,9,10
 877 843 877 843 901 867.5 c 4,11,12
 923.595703125 891.5078125 923.595703125 891.5078125 960 892 c 4,13,14
 997 893 997 893 1020 867.5 c 4,15,16
 1044 841 1044 841 1044 808 c 6,17,-1
 1044 758.5 l 6,0,1
885 0 m 2,18,-1
 377 0 l 2,19,20
 342 0 342 0 317.5 25.5 c 128,-1,21
 293 51 293 51 293 86 c 0,22,23
 293 120 293 120 317.5 145 c 128,-1,24
 342 170 342 170 377 170 c 2,25,-1
 545 170 l 1,26,-1
 545 1161 l 1,27,-1
 375 1161 l 2,28,29
 340 1161 340 1161 315.5 1185.5 c 128,-1,30
 291 1210 291 1210 291 1245 c 256,31,32
 291 1280 291 1280 315.5 1304.5 c 128,-1,33
 340 1329 340 1329 375 1329 c 2,34,-1
 631 1329 l 2,35,36
 665 1329 665 1329 690 1304 c 128,-1,37
 715 1279 715 1279 715 1245 c 2,38,-1
 715 170 l 1,39,-1
 885 170 l 2,40,41
 919 170 919 170 944 145 c 128,-1,42
 969 120 969 120 969 86 c 0,43,44
 969 51 969 51 944.5 25.5 c 128,-1,45
 920 0 920 0 885 0 c 2,18,-1
EndSplineSet
EndChar

StartChar: Nacute
Encoding: 323 323 116
Width: 1237
Flags: W
LayerCount: 2
Fore
SplineSet
735 1685 m 2,0,1
 753 1693 753 1693 772 1693 c 0,2,3
 808 1693 808 1693 831 1666.5 c 0,4,5
 854 1640 854 1640 854 1607 c 0,6,7
 854 1553 854 1553 807 1531 c 2,8,-1
 502 1390 l 2,9,10
 484 1382 484 1382 465 1382 c 0,11,12
 429 1382 429 1382 406 1408.5 c 0,13,14
 383 1435 383 1435 383 1468 c 0,15,16
 383 1522 383 1522 430 1544 c 2,17,-1
 735 1685 l 2,0,1
1053 1243 m 2,18,-1
 1053 0 l 1,19,-1
 827 0 l 1,20,-1
 375 1032 l 1,21,-1
 375 84 l 2,22,23
 375 49 375 49 350.5 24.5 c 0,24,25
 326 0 326 0 291 0 c 256,26,27
 256 0 256 0 231.5 24.5 c 0,28,29
 207 49 207 49 207 84 c 2,30,-1
 207 1329 l 1,31,-1
 430 1329 l 1,32,-1
 883 299 l 1,33,-1
 883 1243 l 2,34,35
 883 1278 883 1278 908.5 1303.5 c 0,36,37
 934 1329 934 1329 969 1329 c 256,38,39
 1004 1329 1004 1329 1028.5 1304 c 0,40,41
 1053 1279 1053 1279 1053 1243 c 2,18,-1
EndSplineSet
EndChar

StartChar: nacute
Encoding: 324 324 117
Width: 1237
Flags: W
LayerCount: 2
Fore
SplineSet
735 1321 m 2,0,1
 753 1329 753 1329 772 1329 c 0,2,3
 808 1329 808 1329 831 1302.5 c 0,4,5
 854 1276 854 1276 854 1243 c 0,6,7
 854 1189 854 1189 807 1167 c 2,8,-1
 502 1026 l 2,9,10
 484 1018 484 1018 465 1018 c 0,11,12
 429 1018 429 1018 406 1044.5 c 0,13,14
 383 1071 383 1071 383 1104 c 0,15,16
 383 1158 383 1158 430 1180 c 2,17,-1
 735 1321 l 2,0,1
604 770 m 2,18,-1
 375 621 l 1,19,-1
 375 84 l 2,20,21
 375 50 375 50 350 25 c 0,22,23
 325 0 325 0 291 0 c 256,24,25
 257 0 257 0 232 25 c 0,26,27
 207 50 207 50 207 84 c 2,28,-1
 207 881 l 2,29,30
 207 916 207 916 231.5 941.5 c 0,31,32
 256 967 256 967 291 967 c 0,33,34
 325 967 325 967 350 941.5 c 0,35,36
 375 916 375 916 375 881 c 2,37,-1
 375 825 l 1,38,-1
 528 918 l 2,39,40
 605 967 605 967 702 967 c 2,41,-1
 780 967 l 2,42,43
 880 967 880 967 953 896 c 0,44,45
 1026 825 1026 825 1030 721 c 2,46,-1
 1053 84 l 2,47,48
 1054 50 1054 50 1029 25 c 0,49,50
 1004 0 1004 0 969 0 c 0,51,52
 936 0 936 0 911 22.5 c 0,53,54
 886 45 886 45 885 84 c 2,55,-1
 860 711 l 2,56,57
 857 799 857 799 768 799 c 2,58,-1
 686 799 l 2,59,60
 648 799 648 799 604 770 c 2,18,-1
EndSplineSet
EndChar

StartChar: uni0145
Encoding: 325 325 118
Width: 1237
Flags: W
LayerCount: 2
Fore
SplineSet
684 -282 m 6,0,1
 684 -316 684 -316 660 -341.5 c 4,2,3
 636 -366 636 -366 600 -366 c 4,4,5
 565 -366 565 -366 541 -341.5 c 4,6,7
 517 -316 517 -316 517 -282 c 6,8,-1
 517 -139 l 6,9,10
 517 -104 517 -104 541 -79.5 c 4,11,12
 564 -56 564 -56 600 -55 c 4,13,14
 632 -54 632 -54 656 -79.5 c 4,15,16
 684 -108 684 -108 684 -139 c 6,17,-1
 684 -282 l 6,0,1
1053 1243 m 2,18,-1
 1053 0 l 1,19,-1
 827 0 l 1,20,-1
 375 1032 l 1,21,-1
 375 84 l 2,22,23
 375 49 375 49 350.5 24.5 c 128,-1,24
 326 0 326 0 291 0 c 256,25,26
 256 0 256 0 231.5 24.5 c 128,-1,27
 207 49 207 49 207 84 c 2,28,-1
 207 1329 l 1,29,-1
 430 1329 l 1,30,-1
 883 299 l 1,31,-1
 883 1243 l 2,32,33
 883 1278 883 1278 908.5 1303.5 c 128,-1,34
 934 1329 934 1329 969 1329 c 256,35,36
 1004 1329 1004 1329 1028.5 1304 c 128,-1,37
 1053 1279 1053 1279 1053 1243 c 2,18,-1
EndSplineSet
EndChar

StartChar: uni0146
Encoding: 326 326 119
Width: 1237
Flags: W
LayerCount: 2
Fore
SplineSet
684 -282 m 6,0,1
 684 -316 684 -316 660 -341.5 c 4,2,3
 636 -366 636 -366 600 -366 c 4,4,5
 565 -366 565 -366 541 -341.5 c 4,6,7
 517 -316 517 -316 517 -282 c 6,8,-1
 517 -139 l 6,9,10
 517 -104 517 -104 541 -79.5 c 4,11,12
 564 -56 564 -56 600 -55 c 4,13,14
 632 -54 632 -54 656 -79.5 c 4,15,16
 684 -108 684 -108 684 -139 c 6,17,-1
 684 -282 l 6,0,1
604 770 m 2,18,-1
 375 621 l 1,19,-1
 375 84 l 2,20,21
 375 50 375 50 350 25 c 128,-1,22
 325 0 325 0 291 0 c 256,23,24
 257 0 257 0 232 25 c 128,-1,25
 207 50 207 50 207 84 c 2,26,-1
 207 881 l 2,27,28
 207 916 207 916 231.5 941.5 c 128,-1,29
 256 967 256 967 291 967 c 0,30,31
 325 967 325 967 350 941.5 c 128,-1,32
 375 916 375 916 375 881 c 2,33,-1
 375 825 l 1,34,-1
 528 918 l 2,35,36
 605 967 605 967 702 967 c 2,37,-1
 780 967 l 2,38,39
 880 967 880 967 953 896 c 128,-1,40
 1026 825 1026 825 1030 721 c 2,41,-1
 1053 84 l 2,42,43
 1054 50 1054 50 1029 25 c 128,-1,44
 1004 0 1004 0 969 0 c 0,45,46
 936 0 936 0 911 22.5 c 128,-1,47
 886 45 886 45 885 84 c 2,48,-1
 860 711 l 2,49,50
 857 799 857 799 768 799 c 2,51,-1
 686 799 l 2,52,53
 648 799 648 799 604 770 c 2,18,-1
EndSplineSet
EndChar

StartChar: Ncaron
Encoding: 327 327 120
Width: 1237
Flags: W
LayerCount: 2
Fore
SplineSet
627 1556 m 5,0,-1
 898 1681 l 6,1,2
 915 1689 915 1689 934 1689 c 4,3,4
 970 1689 970 1689 993.5 1662.5 c 132,-1,5
 1017 1636 1017 1636 1017 1622 c 4,6,7
 1017 1549 1017 1549 970 1527 c 6,8,-1
 664 1386 l 6,9,10
 647 1378 647 1378 627 1378 c 4,11,12
 608.361328125 1378 608.361328125 1378 591 1386 c 6,13,-1
 285 1527 l 6,14,15
 238 1549 238 1549 238 1603 c 4,16,17
 238 1636 238 1636 261.5 1662.5 c 132,-1,18
 285 1689 285 1689 321 1689 c 4,19,20
 339.719726562 1689 339.719726562 1689 357 1681 c 6,21,-1
 627 1556 l 5,0,-1
1053 1243 m 2,22,-1
 1053 0 l 1,23,-1
 827 0 l 1,24,-1
 375 1032 l 1,25,-1
 375 84 l 2,26,27
 375 49 375 49 350.5 24.5 c 128,-1,28
 326 0 326 0 291 0 c 256,29,30
 256 0 256 0 231.5 24.5 c 128,-1,31
 207 49 207 49 207 84 c 2,32,-1
 207 1329 l 1,33,-1
 430 1329 l 1,34,-1
 883 299 l 1,35,-1
 883 1243 l 2,36,37
 883 1278 883 1278 908.5 1303.5 c 128,-1,38
 934 1329 934 1329 969 1329 c 256,39,40
 1004 1329 1004 1329 1028.5 1304 c 128,-1,41
 1053 1279 1053 1279 1053 1243 c 2,22,-1
EndSplineSet
EndChar

StartChar: ncaron
Encoding: 328 328 121
Width: 1237
Flags: W
LayerCount: 2
Fore
SplineSet
604 770 m 2,0,-1
 375 621 l 1,1,-1
 375 84 l 2,2,3
 375 50 375 50 350 25 c 0,4,5
 325 0 325 0 291 0 c 256,6,7
 257 0 257 0 232 25 c 0,8,9
 207 50 207 50 207 84 c 2,10,-1
 207 881 l 2,11,12
 207 916 207 916 231.5 941.5 c 0,13,14
 256 967 256 967 291 967 c 0,15,16
 325 967 325 967 350 941.5 c 0,17,18
 375 916 375 916 375 881 c 2,19,-1
 375 825 l 1,20,-1
 528 918 l 2,21,22
 605 967 605 967 702 967 c 2,23,-1
 780 967 l 2,24,25
 880 967 880 967 953 896 c 0,26,27
 1026 825 1026 825 1030 721 c 2,28,-1
 1053 84 l 2,29,30
 1054 50 1054 50 1029 25 c 0,31,32
 1004 0 1004 0 969 0 c 0,33,34
 936 0 936 0 911 22.5 c 0,35,36
 886 45 886 45 885 84 c 2,37,-1
 860 711 l 2,38,39
 857 799 857 799 768 799 c 2,40,-1
 686 799 l 2,41,42
 648 799 648 799 604 770 c 2,0,-1
EndSplineSet
Refer: 49 711 S 1 0 0 1 18 6 2
EndChar

StartChar: napostrophe
Encoding: 329 329 122
Width: 1237
Flags: W
LayerCount: 2
Fore
SplineSet
145.98046875 1319.29980469 m 2,0,-1
 245.580078125 1319.29980469 l 2,1,2
 266.580078125 1319.29980469 266.580078125 1319.29980469 281.580078125 1304 c 128,-1,3
 296.580078125 1288.70019531 296.580078125 1288.70019531 296.580078125 1268.29980469 c 0,4,5
 296.580078125 1261.70019531 296.580078125 1261.70019531 294.78125 1255.70019531 c 2,6,-1
 193.98046875 908.900390625 l 2,7,8
 181.98046875 871.100585938 181.98046875 871.100585938 144.78125 871.100585938 c 0,9,10
 122.580078125 871.100585938 122.580078125 871.100585938 107.880859375 886.700195312 c 128,-1,11
 93.1796875 902.299804688 93.1796875 902.299804688 93.1796875 925.100585938 c 2,12,-1
 93.1796875 1262.90039062 l 2,13,14
 93.1796875 1286.90039062 93.1796875 1286.90039062 107.28125 1303.10058594 c 128,-1,15
 121.380859375 1319.29980469 121.380859375 1319.29980469 145.98046875 1319.29980469 c 2,0,-1
694.78125 770 m 2,16,-1
 465.78125 621 l 1,17,-1
 465.78125 84 l 2,18,19
 465.78125 50 465.78125 50 440.78125 25 c 128,-1,20
 415.78125 0 415.78125 0 381.78125 0 c 256,21,22
 347.78125 0 347.78125 0 322.78125 25 c 128,-1,23
 297.78125 50 297.78125 50 297.78125 84 c 2,24,-1
 297.78125 881 l 2,25,26
 297.78125 916 297.78125 916 322.28125 941.5 c 128,-1,27
 346.78125 967 346.78125 967 381.78125 967 c 0,28,29
 415.78125 967 415.78125 967 440.78125 941.5 c 128,-1,30
 465.78125 916 465.78125 916 465.78125 881 c 2,31,-1
 465.78125 825 l 1,32,-1
 618.78125 918 l 2,33,34
 695.78125 967 695.78125 967 792.78125 967 c 2,35,-1
 870.78125 967 l 2,36,37
 970.78125 967 970.78125 967 1043.78125 896 c 128,-1,38
 1116.78125 825 1116.78125 825 1120.78125 721 c 2,39,-1
 1143.78125 84 l 2,40,41
 1144.78125 50 1144.78125 50 1119.78125 25 c 128,-1,42
 1094.78125 0 1094.78125 0 1059.78125 0 c 0,43,44
 1026.78125 0 1026.78125 0 1001.78125 22.5 c 128,-1,45
 976.78125 45 976.78125 45 975.78125 84 c 2,46,-1
 950.78125 711 l 2,47,48
 947.78125 799 947.78125 799 858.78125 799 c 2,49,-1
 776.78125 799 l 2,50,51
 738.78125 799 738.78125 799 694.78125 770 c 2,16,-1
EndSplineSet
EndChar

StartChar: Eng
Encoding: 330 330 123
Width: 1237
Flags: W
LayerCount: 2
Fore
SplineSet
827 0 m 5,0,-1
 827 -190 l 5,1,-1
 707 -190 l 6,2,3
 672 -190 672 -190 647.5 -215.5 c 132,-1,4
 623 -241 623 -241 623 -276 c 4,5,6
 623 -310 623 -310 648 -335 c 132,-1,7
 673 -360 673 -360 707 -360 c 6,8,-1
 911 -360 l 6,9,10
 926 -360 926 -360 970.5 -335 c 4,11,12
 995 -321 995 -321 995 -274 c 6,13,-1
 995 0 l 5,14,-1
 827 0 l 5,0,-1
1053 1243 m 2,15,-1
 1053 0 l 1,16,-1
 827 0 l 1,17,-1
 375 1032 l 1,18,-1
 375 84 l 2,19,20
 375 49 375 49 350.5 24.5 c 128,-1,21
 326 0 326 0 291 0 c 256,22,23
 256 0 256 0 231.5 24.5 c 128,-1,24
 207 49 207 49 207 84 c 2,25,-1
 207 1329 l 1,26,-1
 430 1329 l 1,27,-1
 883 299 l 1,28,-1
 883 1243 l 2,29,30
 883 1278 883 1278 908.5 1303.5 c 128,-1,31
 934 1329 934 1329 969 1329 c 256,32,33
 1004 1329 1004 1329 1028.5 1304 c 128,-1,34
 1053 1279 1053 1279 1053 1243 c 2,15,-1
EndSplineSet
EndChar

StartChar: eng
Encoding: 331 331 124
Width: 1237
Flags: W
LayerCount: 2
Fore
SplineSet
1052 89 m 1,0,-1
 1053 -274 l 2,1,2
 1053.12927308 -320.926129666 1053.12927308 -320.926129666 1028.5 -335 c 0,3,4
 984 -360 984 -360 969 -360 c 2,5,-1
 765 -360 l 2,6,7
 731 -360 731 -360 706 -335 c 128,-1,8
 681 -310 681 -310 681 -276 c 0,9,10
 681 -241 681 -241 705.5 -215.5 c 128,-1,11
 730 -190 730 -190 765 -190 c 2,12,-1
 885 -190 l 1,13,-1
 885 89 l 1,14,-1
 1052 89 l 1,0,-1
604 770 m 2,15,-1
 375 621 l 1,16,-1
 375 84 l 2,17,18
 375 50 375 50 350 25 c 128,-1,19
 325 0 325 0 291 0 c 256,20,21
 257 0 257 0 232 25 c 128,-1,22
 207 50 207 50 207 84 c 2,23,-1
 207 881 l 2,24,25
 207 916 207 916 231.5 941.5 c 128,-1,26
 256 967 256 967 291 967 c 0,27,28
 325 967 325 967 350 941.5 c 128,-1,29
 375 916 375 916 375 881 c 2,30,-1
 375 825 l 1,31,-1
 528 918 l 2,32,33
 605 967 605 967 702 967 c 2,34,-1
 780 967 l 2,35,36
 880 967 880 967 953 896 c 128,-1,37
 1026 825 1026 825 1030 721 c 2,38,-1
 1053 84 l 2,39,40
 1054 50 1054 50 1029 25 c 128,-1,41
 1004 0 1004 0 969 0 c 0,42,43
 936 0 936 0 911 22.5 c 128,-1,44
 886 45 886 45 885 84 c 2,45,-1
 860 711 l 2,46,47
 857 799 857 799 768 799 c 2,48,-1
 686 799 l 2,49,50
 648 799 648 799 604 770 c 2,15,-1
EndSplineSet
EndChar

StartChar: Omacron
Encoding: 332 332 125
Width: 1237
Flags: W
LayerCount: 2
Fore
SplineSet
889 1597.5 m 6,0,1
 924 1597.5 924 1597.5 949.5 1573 c 132,-1,2
 975 1548.5 975 1548.5 975 1513.5 c 260,3,4
 975 1478.5 975 1478.5 949.5 1454 c 132,-1,5
 924 1429.5 924 1429.5 889 1429.5 c 6,6,-1
 369 1429.5 l 6,7,8
 335 1429.5 335 1429.5 310 1454.5 c 132,-1,9
 285 1479.5 285 1479.5 285 1513.5 c 4,10,11
 285 1548.5 285 1548.5 310 1573 c 132,-1,12
 335 1597.5 335 1597.5 369 1597.5 c 6,13,-1
 889 1597.5 l 6,0,1
829 1206 m 2,14,-1
 1014 829 l 2,15,16
 1053 752 1053 752 1053 662 c 0,17,18
 1053 574 1053 574 1014 496 c 2,19,-1
 829 123 l 2,20,21
 770 0 770 0 629 0 c 0,22,23
 562 0 562 0 508.5 35 c 128,-1,24
 455 70 455 70 428 123 c 2,25,-1
 242 496 l 2,26,27
 205 569 205 569 205 662 c 256,28,29
 205 755 205 755 242 829 c 2,30,-1
 428 1206 l 2,31,32
 491 1329 491 1329 629 1329 c 0,33,34
 769 1329 769 1329 829 1206 c 2,14,-1
573 1122 m 2,35,-1
 399 768 l 2,36,37
 375 715 375 715 375 664 c 0,38,39
 375 609 375 609 399 559 c 2,40,-1
 578 201 l 2,41,42
 592 168 592 168 629 168 c 0,43,44
 661 168 661 168 678 201 c 2,45,-1
 858 559 l 2,46,47
 883 612 883 612 883 664 c 0,48,49
 883 719 883 719 858 768 c 2,50,-1
 682 1122 l 2,51,52
 665 1161 665 1161 629 1161 c 256,53,54
 593 1161 593 1161 573 1122 c 2,35,-1
EndSplineSet
EndChar

StartChar: omacron
Encoding: 333 333 126
Width: 1237
Flags: W
LayerCount: 2
Fore
SplineSet
889 1283 m 6,0,1
 924 1283 924 1283 949.5 1258.5 c 132,-1,2
 975 1234 975 1234 975 1199 c 260,3,4
 975 1164 975 1164 949.5 1139.5 c 132,-1,5
 924 1115 924 1115 889 1115 c 6,6,-1
 369 1115 l 6,7,8
 335 1115 335 1115 310 1140 c 132,-1,9
 285 1165 285 1165 285 1199 c 4,10,11
 285 1234 285 1234 310 1258.5 c 132,-1,12
 335 1283 335 1283 369 1283 c 6,13,-1
 889 1283 l 6,0,1
1053 662 m 2,14,-1
 1053 307 l 2,15,16
 1053 194 1053 194 946.5 98 c 128,-1,17
 840 2 840 2 727 2 c 2,18,-1
 530 2 l 2,19,20
 415 2 415 2 310 99.5 c 128,-1,21
 205 197 205 197 205 307 c 2,22,-1
 205 662 l 2,23,24
 205 772 205 772 307.5 869.5 c 128,-1,25
 410 967 410 967 530 967 c 2,26,-1
 727 967 l 2,27,28
 840 969 840 969 946.5 873 c 128,-1,29
 1053 777 1053 777 1053 662 c 2,14,-1
375 655 m 2,30,-1
 375 315 l 2,31,32
 375 269 375 269 408 242 c 2,33,-1
 471 188 l 2,34,35
 492 170 492 170 530 170 c 2,36,-1
 725 170 l 2,37,38
 768 170 768 170 803 201 c 2,39,-1
 854 246 l 2,40,41
 885 270 885 270 885 313 c 2,42,-1
 885 653 l 2,43,44
 885 703 885 703 854 727 c 2,45,-1
 795 774 l 2,46,47
 765 799 765 799 725 799 c 2,48,-1
 551 799 l 2,49,50
 494 799 494 799 463 772 c 2,51,-1
 406 723 l 2,52,53
 375 697 375 697 375 655 c 2,30,-1
EndSplineSet
EndChar

StartChar: Obreve
Encoding: 334 334 127
Width: 1237
Flags: W
LayerCount: 2
Fore
SplineSet
941 1747 m 4,0,1
 976 1747 976 1747 1001.5 1725.5 c 132,-1,2
 1027 1704 1027 1704 1027 1675 c 4,3,4
 1027 1608 1027 1608 906 1522 c 132,-1,5
 785 1436 785 1436 637 1436 c 4,6,7
 490 1436 490 1436 369 1522 c 132,-1,8
 248 1608 248 1608 248 1675 c 4,9,10
 248 1704 248 1704 273.5 1725.5 c 132,-1,11
 299 1747 299 1747 334 1747 c 4,12,13
 375 1747 375 1747 400 1723 c 4,14,15
 509 1606 509 1606 637 1606 c 4,16,17
 766 1606 766 1606 875 1723 c 4,18,19
 900 1747 900 1747 941 1747 c 4,0,1
829 1206 m 2,20,-1
 1014 829 l 2,21,22
 1053 752 1053 752 1053 662 c 0,23,24
 1053 574 1053 574 1014 496 c 2,25,-1
 829 123 l 2,26,27
 770 0 770 0 629 0 c 0,28,29
 562 0 562 0 508.5 35 c 128,-1,30
 455 70 455 70 428 123 c 2,31,-1
 242 496 l 2,32,33
 205 569 205 569 205 662 c 256,34,35
 205 755 205 755 242 829 c 2,36,-1
 428 1206 l 2,37,38
 491 1329 491 1329 629 1329 c 0,39,40
 769 1329 769 1329 829 1206 c 2,20,-1
573 1122 m 2,41,-1
 399 768 l 2,42,43
 375 715 375 715 375 664 c 0,44,45
 375 609 375 609 399 559 c 2,46,-1
 578 201 l 2,47,48
 592 168 592 168 629 168 c 0,49,50
 661 168 661 168 678 201 c 2,51,-1
 858 559 l 2,52,53
 883 612 883 612 883 664 c 0,54,55
 883 719 883 719 858 768 c 2,56,-1
 682 1122 l 2,57,58
 665 1161 665 1161 629 1161 c 256,59,60
 593 1161 593 1161 573 1122 c 2,41,-1
EndSplineSet
EndChar

StartChar: obreve
Encoding: 335 335 128
Width: 1237
Flags: W
LayerCount: 2
Fore
SplineSet
941 1408 m 4,0,1
 976 1408 976 1408 1001.5 1386.5 c 132,-1,2
 1027 1365 1027 1365 1027 1336 c 4,3,4
 1027 1269 1027 1269 906 1183 c 132,-1,5
 785 1097 785 1097 637 1097 c 4,6,7
 490 1097 490 1097 369 1183 c 132,-1,8
 248 1269 248 1269 248 1336 c 4,9,10
 248 1365 248 1365 273.5 1386.5 c 132,-1,11
 299 1408 299 1408 334 1408 c 4,12,13
 375 1408 375 1408 400 1384 c 4,14,15
 509 1267 509 1267 637 1267 c 4,16,17
 766 1267 766 1267 875 1384 c 4,18,19
 900 1408 900 1408 941 1408 c 4,0,1
1053 662 m 2,20,-1
 1053 307 l 2,21,22
 1053 194 1053 194 946.5 98 c 128,-1,23
 840 2 840 2 727 2 c 2,24,-1
 530 2 l 2,25,26
 415 2 415 2 310 99.5 c 128,-1,27
 205 197 205 197 205 307 c 2,28,-1
 205 662 l 2,29,30
 205 772 205 772 307.5 869.5 c 128,-1,31
 410 967 410 967 530 967 c 2,32,-1
 727 967 l 2,33,34
 840 969 840 969 946.5 873 c 128,-1,35
 1053 777 1053 777 1053 662 c 2,20,-1
375 655 m 2,36,-1
 375 315 l 2,37,38
 375 269 375 269 408 242 c 2,39,-1
 471 188 l 2,40,41
 492 170 492 170 530 170 c 2,42,-1
 725 170 l 2,43,44
 768 170 768 170 803 201 c 2,45,-1
 854 246 l 2,46,47
 885 270 885 270 885 313 c 2,48,-1
 885 653 l 2,49,50
 885 703 885 703 854 727 c 2,51,-1
 795 774 l 2,52,53
 765 799 765 799 725 799 c 2,54,-1
 551 799 l 2,55,56
 494 799 494 799 463 772 c 2,57,-1
 406 723 l 2,58,59
 375 697 375 697 375 655 c 2,36,-1
EndSplineSet
EndChar

StartChar: Ohungarumlaut
Encoding: 336 336 129
Width: 1237
Flags: W
LayerCount: 2
Fore
SplineSet
946 1605 m 6,0,-1
 798 1457 l 6,1,2
 774 1433 774 1433 739 1433 c 260,3,4
 704 1433 704 1433 679.5 1457.5 c 132,-1,5
 655 1482 655 1482 655 1517 c 260,6,7
 655 1552 655 1552 679 1576 c 6,8,-1
 827 1724 l 6,9,10
 851 1748 851 1748 886 1748 c 260,11,12
 921 1748 921 1748 945.5 1723.5 c 132,-1,13
 970 1699 970 1699 970 1664 c 260,14,15
 970 1629 970 1629 946 1605 c 6,0,-1
606 1605 m 6,16,-1
 458 1457 l 6,17,18
 434 1433 434 1433 399 1433 c 260,19,20
 364 1433 364 1433 339.5 1457.5 c 132,-1,21
 315 1482 315 1482 315 1517 c 260,22,23
 315 1552 315 1552 339 1576 c 6,24,-1
 487 1724 l 6,25,26
 511 1748 511 1748 546 1748 c 260,27,28
 581 1748 581 1748 605.5 1723.5 c 132,-1,29
 630 1699 630 1699 630 1664 c 260,30,31
 630 1629 630 1629 606 1605 c 6,16,-1
829 1206 m 2,32,-1
 1014 829 l 2,33,34
 1053 752 1053 752 1053 662 c 0,35,36
 1053 574 1053 574 1014 496 c 2,37,-1
 829 123 l 2,38,39
 770 0 770 0 629 0 c 0,40,41
 562 0 562 0 508.5 35 c 128,-1,42
 455 70 455 70 428 123 c 2,43,-1
 242 496 l 2,44,45
 205 569 205 569 205 662 c 256,46,47
 205 755 205 755 242 829 c 2,48,-1
 428 1206 l 2,49,50
 491 1329 491 1329 629 1329 c 0,51,52
 769 1329 769 1329 829 1206 c 2,32,-1
573 1122 m 2,53,-1
 399 768 l 2,54,55
 375 715 375 715 375 664 c 0,56,57
 375 609 375 609 399 559 c 2,58,-1
 578 201 l 2,59,60
 592 168 592 168 629 168 c 0,61,62
 661 168 661 168 678 201 c 2,63,-1
 858 559 l 2,64,65
 883 612 883 612 883 664 c 0,66,67
 883 719 883 719 858 768 c 2,68,-1
 682 1122 l 2,69,70
 665 1161 665 1161 629 1161 c 256,71,72
 593 1161 593 1161 573 1122 c 2,53,-1
EndSplineSet
EndChar

StartChar: ohungarumlaut
Encoding: 337 337 130
Width: 1237
Flags: W
LayerCount: 2
Fore
SplineSet
946 1283 m 6,0,-1
 798 1135 l 6,1,2
 774 1111 774 1111 739 1111 c 260,3,4
 704 1111 704 1111 679.5 1135.5 c 132,-1,5
 655 1160 655 1160 655 1195 c 260,6,7
 655 1230 655 1230 679 1254 c 6,8,-1
 827 1402 l 6,9,10
 851 1426 851 1426 886 1426 c 260,11,12
 921 1426 921 1426 945.5 1401.5 c 132,-1,13
 970 1377 970 1377 970 1342 c 260,14,15
 970 1307 970 1307 946 1283 c 6,0,-1
606 1283 m 6,16,-1
 458 1135 l 6,17,18
 434 1111 434 1111 399 1111 c 260,19,20
 364 1111 364 1111 339.5 1135.5 c 132,-1,21
 315 1160 315 1160 315 1195 c 260,22,23
 315 1230 315 1230 339 1254 c 6,24,-1
 487 1402 l 6,25,26
 511 1426 511 1426 546 1426 c 260,27,28
 581 1426 581 1426 605.5 1401.5 c 132,-1,29
 630 1377 630 1377 630 1342 c 260,30,31
 630 1307 630 1307 606 1283 c 6,16,-1
1053 662 m 2,32,-1
 1053 307 l 2,33,34
 1053 194 1053 194 946.5 98 c 128,-1,35
 840 2 840 2 727 2 c 2,36,-1
 530 2 l 2,37,38
 415 2 415 2 310 99.5 c 128,-1,39
 205 197 205 197 205 307 c 2,40,-1
 205 662 l 2,41,42
 205 772 205 772 307.5 869.5 c 128,-1,43
 410 967 410 967 530 967 c 2,44,-1
 727 967 l 2,45,46
 840 969 840 969 946.5 873 c 128,-1,47
 1053 777 1053 777 1053 662 c 2,32,-1
375 655 m 2,48,-1
 375 315 l 2,49,50
 375 269 375 269 408 242 c 2,51,-1
 471 188 l 2,52,53
 492 170 492 170 530 170 c 2,54,-1
 725 170 l 2,55,56
 768 170 768 170 803 201 c 2,57,-1
 854 246 l 2,58,59
 885 270 885 270 885 313 c 2,60,-1
 885 653 l 2,61,62
 885 703 885 703 854 727 c 2,63,-1
 795 774 l 2,64,65
 765 799 765 799 725 799 c 2,66,-1
 551 799 l 2,67,68
 494 799 494 799 463 772 c 2,69,-1
 406 723 l 2,70,71
 375 697 375 697 375 655 c 2,48,-1
EndSplineSet
EndChar

StartChar: Racute
Encoding: 340 340 131
Width: 1237
Flags: W
LayerCount: 2
Fore
SplineSet
735 1685 m 2,0,1
 753 1693 753 1693 772 1693 c 0,2,3
 808 1693 808 1693 831 1666.5 c 0,4,5
 854 1640 854 1640 854 1607 c 0,6,7
 854 1553 854 1553 807 1531 c 2,8,-1
 502 1390 l 2,9,10
 484 1382 484 1382 465 1382 c 0,11,12
 429 1382 429 1382 406 1408.5 c 0,13,14
 383 1435 383 1435 383 1468 c 0,15,16
 383 1522 383 1522 430 1544 c 2,17,-1
 735 1685 l 2,0,1
209 84 m 2,18,-1
 209 1329 l 1,19,-1
 803 1329 l 2,20,21
 906 1329 906 1329 980.5 1254 c 0,22,23
 1055 1179 1055 1179 1055 1075 c 2,24,-1
 1055 979 l 2,25,26
 1055 874 1055 874 981 799.5 c 0,27,28
 907 725 907 725 803 725 c 2,29,-1
 696 725 l 1,30,-1
 1040 135 l 2,31,32
 1056 109 1056 109 1056 83 c 0,33,34
 1056 49 1056 49 1030 24.5 c 0,35,36
 1004 0 1004 0 971 0 c 0,37,38
 921 0 921 0 895 45 c 2,39,-1
 500 725 l 1,40,-1
 379 725 l 1,41,-1
 379 84 l 2,42,43
 379 49 379 49 353.5 24.5 c 0,44,45
 328 0 328 0 293 0 c 256,46,47
 258 0 258 0 233.5 24.5 c 0,48,49
 209 49 209 49 209 84 c 2,18,-1
377 893 m 1,50,-1
 803 893 l 2,51,52
 838 893 838 893 862.5 917.5 c 0,53,54
 887 942 887 942 887 977 c 2,55,-1
 887 1075 l 2,56,57
 887 1110 887 1110 862.5 1134.5 c 0,58,59
 838 1159 838 1159 803 1159 c 2,60,-1
 377 1159 l 1,61,-1
 377 893 l 1,50,-1
EndSplineSet
EndChar

StartChar: racute
Encoding: 341 341 132
Width: 1237
Flags: W
LayerCount: 2
Fore
SplineSet
770 1321 m 2,0,1
 788 1329 788 1329 807 1329 c 0,2,3
 843 1329 843 1329 866 1302.5 c 0,4,5
 889 1276 889 1276 889 1243 c 0,6,7
 889 1189 889 1189 842 1167 c 2,8,-1
 537 1026 l 2,9,10
 519 1018 519 1018 500 1018 c 0,11,12
 464 1018 464 1018 441 1044.5 c 0,13,14
 418 1071 418 1071 418 1104 c 0,15,16
 418 1158 418 1158 465 1180 c 2,17,-1
 770 1321 l 2,0,1
207 84 m 2,18,-1
 207 881 l 2,19,20
 207 916 207 916 231.5 941.5 c 0,21,22
 256 967 256 967 291 967 c 256,23,24
 326 967 326 967 350.5 942 c 0,25,26
 375 917 375 917 375 881 c 2,27,-1
 375 776 l 1,28,-1
 512 893 l 2,29,30
 597 965 597 965 678 965 c 2,31,-1
 801 965 l 2,32,33
 905 965 905 965 979 891 c 0,34,35
 1053 817 1053 817 1053 713 c 2,36,-1
 1053 668 l 2,37,38
 1053 632 1053 632 1028.5 607 c 0,39,40
 1004 582 1004 582 969 582 c 256,41,42
 934 582 934 582 909.5 606.5 c 0,43,44
 885 631 885 631 885 666 c 2,45,-1
 885 713 l 2,46,47
 885 748 885 748 860.5 772.5 c 0,48,49
 836 797 836 797 801 797 c 2,50,-1
 692 797 l 2,51,52
 657 797 657 797 614 760 c 2,53,-1
 375 553 l 1,54,-1
 375 84 l 2,55,56
 375 49 375 49 350 24.5 c 0,57,58
 325 0 325 0 291 0 c 0,59,60
 256 0 256 0 231.5 24.5 c 0,61,62
 207 49 207 49 207 84 c 2,18,-1
EndSplineSet
EndChar

StartChar: uni0156
Encoding: 342 342 133
Width: 1237
Flags: W
LayerCount: 2
Fore
SplineSet
684 -282 m 6,0,1
 684 -316 684 -316 660 -341.5 c 4,2,3
 636 -366 636 -366 600 -366 c 4,4,5
 565 -366 565 -366 541 -341.5 c 4,6,7
 517 -316 517 -316 517 -282 c 6,8,-1
 517 -139 l 6,9,10
 517 -104 517 -104 541 -79.5 c 4,11,12
 564 -56 564 -56 600 -55 c 4,13,14
 632 -54 632 -54 656 -79.5 c 4,15,16
 684 -108 684 -108 684 -139 c 6,17,-1
 684 -282 l 6,0,1
209 84 m 2,18,-1
 209 1329 l 1,19,-1
 803 1329 l 2,20,21
 906 1329 906 1329 980.5 1254 c 128,-1,22
 1055 1179 1055 1179 1055 1075 c 2,23,-1
 1055 979 l 2,24,25
 1055 874 1055 874 981 799.5 c 128,-1,26
 907 725 907 725 803 725 c 2,27,-1
 696 725 l 1,28,-1
 1040 135 l 2,29,30
 1056 109 1056 109 1056 83 c 0,31,32
 1056 49 1056 49 1030 24.5 c 128,-1,33
 1004 0 1004 0 971 0 c 0,34,35
 921 0 921 0 895 45 c 2,36,-1
 500 725 l 1,37,-1
 379 725 l 1,38,-1
 379 84 l 2,39,40
 379 49 379 49 353.5 24.5 c 128,-1,41
 328 0 328 0 293 0 c 256,42,43
 258 0 258 0 233.5 24.5 c 128,-1,44
 209 49 209 49 209 84 c 2,18,-1
377 893 m 1,45,-1
 803 893 l 2,46,47
 838 893 838 893 862.5 917.5 c 128,-1,48
 887 942 887 942 887 977 c 2,49,-1
 887 1075 l 2,50,51
 887 1110 887 1110 862.5 1134.5 c 128,-1,52
 838 1159 838 1159 803 1159 c 2,53,-1
 377 1159 l 1,54,-1
 377 893 l 1,45,-1
EndSplineSet
EndChar

StartChar: uni0157
Encoding: 343 343 134
Width: 1237
Flags: W
LayerCount: 2
Fore
SplineSet
684 -282 m 2,0,1
 684 -316 684 -316 660 -341.5 c 0,2,3
 636 -366 636 -366 600 -366 c 0,4,5
 565 -366 565 -366 541 -341.5 c 0,6,7
 517 -316 517 -316 517 -282 c 2,8,-1
 517 -139 l 2,9,10
 517 -104 517 -104 541 -79.5 c 0,11,12
 564 -56 564 -56 600 -55 c 0,13,14
 632 -54 632 -54 656 -79.5 c 0,15,16
 684 -108 684 -108 684 -139 c 2,17,-1
 684 -282 l 2,0,1
207 84 m 2,18,-1
 207 881 l 2,19,20
 207 916 207 916 231.5 941.5 c 128,-1,21
 256 967 256 967 291 967 c 256,22,23
 326 967 326 967 350.5 942 c 128,-1,24
 375 917 375 917 375 881 c 2,25,-1
 375 776 l 1,26,-1
 512 893 l 2,27,28
 597 965 597 965 678 965 c 2,29,-1
 801 965 l 2,30,31
 905 965 905 965 979 891 c 128,-1,32
 1053 817 1053 817 1053 713 c 2,33,-1
 1053 668 l 2,34,35
 1053 632 1053 632 1028.5 607 c 128,-1,36
 1004 582 1004 582 969 582 c 256,37,38
 934 582 934 582 909.5 606.5 c 128,-1,39
 885 631 885 631 885 666 c 2,40,-1
 885 713 l 2,41,42
 885 748 885 748 860.5 772.5 c 128,-1,43
 836 797 836 797 801 797 c 2,44,-1
 692 797 l 2,45,46
 657 797 657 797 614 760 c 2,47,-1
 375 553 l 1,48,-1
 375 84 l 2,49,50
 375 49 375 49 350 24.5 c 128,-1,51
 325 0 325 0 291 0 c 0,52,53
 256 0 256 0 231.5 24.5 c 128,-1,54
 207 49 207 49 207 84 c 2,18,-1
EndSplineSet
EndChar

StartChar: Rcaron
Encoding: 344 344 135
Width: 1237
Flags: W
LayerCount: 2
Fore
SplineSet
627 1556 m 5,0,-1
 898 1681 l 6,1,2
 915 1689 915 1689 934 1689 c 4,3,4
 970 1689 970 1689 993.5 1662.5 c 132,-1,5
 1017 1636 1017 1636 1017 1622 c 4,6,7
 1017 1549 1017 1549 970 1527 c 6,8,-1
 664 1386 l 6,9,10
 647 1378 647 1378 627 1378 c 4,11,12
 608.361328125 1378 608.361328125 1378 591 1386 c 6,13,-1
 285 1527 l 6,14,15
 238 1549 238 1549 238 1603 c 4,16,17
 238 1636 238 1636 261.5 1662.5 c 132,-1,18
 285 1689 285 1689 321 1689 c 4,19,20
 339.719726562 1689 339.719726562 1689 357 1681 c 6,21,-1
 627 1556 l 5,0,-1
209 84 m 2,22,-1
 209 1329 l 1,23,-1
 803 1329 l 2,24,25
 906 1329 906 1329 980.5 1254 c 128,-1,26
 1055 1179 1055 1179 1055 1075 c 2,27,-1
 1055 979 l 2,28,29
 1055 874 1055 874 981 799.5 c 128,-1,30
 907 725 907 725 803 725 c 2,31,-1
 696 725 l 1,32,-1
 1040 135 l 2,33,34
 1056 109 1056 109 1056 83 c 0,35,36
 1056 49 1056 49 1030 24.5 c 128,-1,37
 1004 0 1004 0 971 0 c 0,38,39
 921 0 921 0 895 45 c 2,40,-1
 500 725 l 1,41,-1
 379 725 l 1,42,-1
 379 84 l 2,43,44
 379 49 379 49 353.5 24.5 c 128,-1,45
 328 0 328 0 293 0 c 256,46,47
 258 0 258 0 233.5 24.5 c 128,-1,48
 209 49 209 49 209 84 c 2,22,-1
377 893 m 1,49,-1
 803 893 l 2,50,51
 838 893 838 893 862.5 917.5 c 128,-1,52
 887 942 887 942 887 977 c 2,53,-1
 887 1075 l 2,54,55
 887 1110 887 1110 862.5 1134.5 c 128,-1,56
 838 1159 838 1159 803 1159 c 2,57,-1
 377 1159 l 1,58,-1
 377 893 l 1,49,-1
EndSplineSet
EndChar

StartChar: rcaron
Encoding: 345 345 136
Width: 1237
Flags: W
LayerCount: 2
Fore
SplineSet
207 84 m 2,0,-1
 207 881 l 2,1,2
 207 916 207 916 231.5 941.5 c 0,3,4
 256 967 256 967 291 967 c 256,5,6
 326 967 326 967 350.5 942 c 0,7,8
 375 917 375 917 375 881 c 2,9,-1
 375 776 l 1,10,-1
 512 893 l 2,11,12
 597 965 597 965 678 965 c 2,13,-1
 801 965 l 2,14,15
 905 965 905 965 979 891 c 0,16,17
 1053 817 1053 817 1053 713 c 2,18,-1
 1053 668 l 2,19,20
 1053 632 1053 632 1028.5 607 c 0,21,22
 1004 582 1004 582 969 582 c 256,23,24
 934 582 934 582 909.5 606.5 c 0,25,26
 885 631 885 631 885 666 c 2,27,-1
 885 713 l 2,28,29
 885 748 885 748 860.5 772.5 c 0,30,31
 836 797 836 797 801 797 c 2,32,-1
 692 797 l 2,33,34
 657 797 657 797 614 760 c 2,35,-1
 375 553 l 1,36,-1
 375 84 l 2,37,38
 375 49 375 49 350 24.5 c 0,39,40
 325 0 325 0 291 0 c 0,41,42
 256 0 256 0 231.5 24.5 c 0,43,44
 207 49 207 49 207 84 c 2,0,-1
EndSplineSet
Refer: 49 711 S 1 0 0 1 -10 6 2
EndChar

StartChar: Sacute
Encoding: 346 346 137
Width: 1237
Flags: W
LayerCount: 2
Fore
SplineSet
735 1685 m 2,0,1
 753 1693 753 1693 772 1693 c 0,2,3
 808 1693 808 1693 831 1666.5 c 0,4,5
 854 1640 854 1640 854 1607 c 0,6,7
 854 1553 854 1553 807 1531 c 2,8,-1
 502 1390 l 2,9,10
 484 1382 484 1382 465 1382 c 0,11,12
 429 1382 429 1382 406 1408.5 c 0,13,14
 383 1435 383 1435 383 1468 c 0,15,16
 383 1522 383 1522 430 1544 c 2,17,-1
 735 1685 l 2,0,1
397 1329 m 2,18,-1
 834 1329 l 2,19,20
 914 1329 914 1329 985.5 1261.5 c 0,21,22
 1057 1194 1057 1194 1057 1098 c 0,23,24
 1057 1062 1057 1062 1031.5 1037 c 0,25,26
 1006 1012 1006 1012 975 1012 c 0,27,28
 932 1012 932 1012 916 1031.5 c 0,29,30
 900 1051 900 1051 885.5 1104 c 0,31,32
 871 1157 871 1157 821 1157 c 2,33,-1
 406 1157 l 2,34,35
 376 1157 376 1157 376 1138 c 0,36,37
 376 1126 376 1126 389 1110 c 2,38,-1
 1012 313 l 2,39,40
 1057 255 1057 255 1057 189 c 0,41,42
 1057 114 1057 114 1002.5 57 c 0,43,44
 948 0 948 0 881 0 c 2,45,-1
 428 0 l 2,46,47
 338 0 338 0 271.5 68.5 c 0,48,49
 205 137 205 137 205 219 c 0,50,51
 205 313 205 313 293 313 c 0,52,53
 327 313 327 313 351 288.5 c 0,54,55
 375 264 375 264 375 231 c 0,56,57
 375 204 375 204 393.5 186 c 0,58,59
 412 168 412 168 440 168 c 2,60,-1
 858 168 l 2,61,62
 885 168 885 168 885 189 c 0,63,64
 885 199 885 199 872 215 c 2,65,-1
 250 1012 l 2,66,67
 206 1069 206 1069 206 1136 c 0,68,69
 206 1214 206 1214 262 1271.5 c 0,70,71
 318 1329 318 1329 397 1329 c 2,18,-1
EndSplineSet
EndChar

StartChar: sacute
Encoding: 347 347 138
Width: 1237
Flags: W
LayerCount: 2
Fore
SplineSet
858 1321 m 2,0,1
 876 1329 876 1329 895 1329 c 0,2,3
 931 1329 931 1329 954 1302.5 c 0,4,5
 977 1276 977 1276 977 1243 c 0,6,7
 977 1189 977 1189 930 1167 c 2,8,-1
 625 1026 l 2,9,10
 607 1018 607 1018 588 1018 c 0,11,12
 552 1018 552 1018 529 1044.5 c 0,13,14
 506 1071 506 1071 506 1104 c 0,15,16
 506 1158 506 1158 553 1180 c 2,17,-1
 858 1321 l 2,0,1
442 965 m 2,18,-1
 827 965 l 2,19,20
 917 965 917 965 986 911.5 c 0,21,22
 1055 858 1055 858 1055 807 c 0,23,24
 1055 771 1055 771 1029.5 748 c 0,25,26
 1004 725 1004 725 973 725 c 0,27,28
 933 725 933 725 900 761 c 0,29,30
 867 797 867 797 831 797 c 2,31,-1
 451 797 l 2,32,33
 395 797 395 797 395 750 c 0,34,35
 395 717 395 717 432 700 c 2,36,-1
 879 502 l 2,37,38
 947 472 947 472 990.5 405.5 c 0,39,40
 1034 339 1034 339 1034 258 c 0,41,42
 1034 150 1034 150 957.5 75 c 0,43,44
 881 0 881 0 784 0 c 2,45,-1
 444 0 l 2,46,47
 356 0 356 0 280.5 53 c 0,48,49
 205 106 205 106 205 156 c 0,50,51
 205 189 205 189 229.5 214.5 c 0,52,53
 254 240 254 240 293 240 c 0,54,55
 325 240 325 240 361.5 204 c 0,56,57
 398 168 398 168 467 168 c 2,58,-1
 780 168 l 2,59,60
 817 168 817 168 842 196.5 c 0,61,62
 867 225 867 225 867 262 c 0,63,64
 867 319 867 319 811 344 c 2,65,-1
 360 547 l 2,66,67
 295 576 295 576 260 631 c 0,68,69
 225 686 225 686 225 743 c 0,70,71
 225 833 225 833 287.5 899 c 0,72,73
 350 965 350 965 442 965 c 2,18,-1
EndSplineSet
EndChar

StartChar: Scircumflex
Encoding: 348 348 139
Width: 1237
Flags: W
LayerCount: 2
Fore
SplineSet
397 1329 m 2,0,-1
 834 1329 l 2,1,2
 914 1329 914 1329 985.5 1261.5 c 0,3,4
 1057 1194 1057 1194 1057 1098 c 0,5,6
 1057 1062 1057 1062 1031.5 1037 c 0,7,8
 1006 1012 1006 1012 975 1012 c 0,9,10
 932 1012 932 1012 916 1031.5 c 0,11,12
 900 1051 900 1051 885.5 1104 c 0,13,14
 871 1157 871 1157 821 1157 c 2,15,-1
 406 1157 l 2,16,17
 376 1157 376 1157 376 1138 c 0,18,19
 376 1126 376 1126 389 1110 c 2,20,-1
 1012 313 l 2,21,22
 1057 255 1057 255 1057 189 c 0,23,24
 1057 114 1057 114 1002.5 57 c 0,25,26
 948 0 948 0 881 0 c 2,27,-1
 428 0 l 2,28,29
 338 0 338 0 271.5 68.5 c 0,30,31
 205 137 205 137 205 219 c 0,32,33
 205 313 205 313 293 313 c 0,34,35
 327 313 327 313 351 288.5 c 0,36,37
 375 264 375 264 375 231 c 0,38,39
 375 204 375 204 393.5 186 c 0,40,41
 412 168 412 168 440 168 c 2,42,-1
 858 168 l 2,43,44
 885 168 885 168 885 189 c 0,45,46
 885 199 885 199 872 215 c 2,47,-1
 250 1012 l 2,48,49
 206 1069 206 1069 206 1136 c 0,50,51
 206 1214 206 1214 262 1271.5 c 0,52,53
 318 1329 318 1329 397 1329 c 2,0,-1
EndSplineSet
Refer: 41 710 S 1 0 0 1 -9 364 2
EndChar

StartChar: scircumflex
Encoding: 349 349 140
Width: 1237
Flags: W
LayerCount: 2
Fore
SplineSet
442 965 m 2,0,-1
 827 965 l 2,1,2
 917 965 917 965 986 911.5 c 0,3,4
 1055 858 1055 858 1055 807 c 0,5,6
 1055 771 1055 771 1029.5 748 c 0,7,8
 1004 725 1004 725 973 725 c 0,9,10
 933 725 933 725 900 761 c 0,11,12
 867 797 867 797 831 797 c 2,13,-1
 451 797 l 2,14,15
 395 797 395 797 395 750 c 0,16,17
 395 717 395 717 432 700 c 2,18,-1
 879 502 l 2,19,20
 947 472 947 472 990.5 405.5 c 0,21,22
 1034 339 1034 339 1034 258 c 0,23,24
 1034 150 1034 150 957.5 75 c 0,25,26
 881 0 881 0 784 0 c 2,27,-1
 444 0 l 2,28,29
 356 0 356 0 280.5 53 c 0,30,31
 205 106 205 106 205 156 c 0,32,33
 205 189 205 189 229.5 214.5 c 0,34,35
 254 240 254 240 293 240 c 0,36,37
 325 240 325 240 361.5 204 c 0,38,39
 398 168 398 168 467 168 c 2,40,-1
 780 168 l 2,41,42
 817 168 817 168 842 196.5 c 0,43,44
 867 225 867 225 867 262 c 0,45,46
 867 319 867 319 811 344 c 2,47,-1
 360 547 l 2,48,49
 295 576 295 576 260 631 c 0,50,51
 225 686 225 686 225 743 c 0,52,53
 225 833 225 833 287.5 899 c 0,54,55
 350 965 350 965 442 965 c 2,0,-1
EndSplineSet
Refer: 41 710 S 1 0 0 1 -9 0 2
EndChar

StartChar: Scedilla
Encoding: 350 350 141
Width: 1237
Flags: W
LayerCount: 2
Fore
SplineSet
569 0 m 5,0,-1
 569 -190 l 5,1,-1
 313 -190 l 6,2,3
 278 -190 278 -190 253.5 -215.5 c 132,-1,4
 229 -241 229 -241 229 -276 c 4,5,6
 229 -310 229 -310 254 -335 c 132,-1,7
 279 -360 279 -360 313 -360 c 6,8,-1
 653 -360 l 6,9,10
 688 -360 688 -360 712.5 -335 c 132,-1,11
 737 -310 737 -310 737 -274 c 6,12,-1
 737 0 l 5,13,-1
 569 0 l 5,0,-1
397 1329 m 2,14,-1
 834 1329 l 2,15,16
 914 1329 914 1329 985.5 1261.5 c 128,-1,17
 1057 1194 1057 1194 1057 1098 c 0,18,19
 1057 1062 1057 1062 1031.5 1037 c 128,-1,20
 1006 1012 1006 1012 975 1012 c 0,21,22
 932 1012 932 1012 916 1031.5 c 128,-1,23
 900 1051 900 1051 885.5 1104 c 128,-1,24
 871 1157 871 1157 821 1157 c 2,25,-1
 406 1157 l 2,26,27
 376 1157 376 1157 376 1138 c 0,28,29
 376 1126 376 1126 389 1110 c 2,30,-1
 1012 313 l 2,31,32
 1057 255 1057 255 1057 189 c 0,33,34
 1057 114 1057 114 1002.5 57 c 128,-1,35
 948 0 948 0 881 0 c 2,36,-1
 428 0 l 2,37,38
 338 0 338 0 271.5 68.5 c 128,-1,39
 205 137 205 137 205 219 c 0,40,41
 205 313 205 313 293 313 c 0,42,43
 327 313 327 313 351 288.5 c 128,-1,44
 375 264 375 264 375 231 c 0,45,46
 375 204 375 204 393.5 186 c 128,-1,47
 412 168 412 168 440 168 c 2,48,-1
 858 168 l 2,49,50
 885 168 885 168 885 189 c 0,51,52
 885 199 885 199 872 215 c 2,53,-1
 250 1012 l 2,54,55
 206 1069 206 1069 206 1136 c 0,56,57
 206 1214 206 1214 262 1271.5 c 128,-1,58
 318 1329 318 1329 397 1329 c 2,14,-1
EndSplineSet
EndChar

StartChar: scedilla
Encoding: 351 351 142
Width: 1237
Flags: W
LayerCount: 2
Fore
SplineSet
569 0 m 5,0,-1
 569 -190 l 5,1,-1
 313 -190 l 6,2,3
 278 -190 278 -190 253.5 -215.5 c 132,-1,4
 229 -241 229 -241 229 -276 c 4,5,6
 229 -310 229 -310 254 -335 c 132,-1,7
 279 -360 279 -360 313 -360 c 6,8,-1
 653 -360 l 6,9,10
 688 -360 688 -360 712.5 -335 c 132,-1,11
 737 -310 737 -310 737 -274 c 6,12,-1
 737 0 l 5,13,-1
 569 0 l 5,0,-1
442 965 m 2,14,-1
 827 965 l 2,15,16
 917 965 917 965 986 911.5 c 128,-1,17
 1055 858 1055 858 1055 807 c 0,18,19
 1055 771 1055 771 1029.5 748 c 128,-1,20
 1004 725 1004 725 973 725 c 0,21,22
 933 725 933 725 900 761 c 128,-1,23
 867 797 867 797 831 797 c 2,24,-1
 451 797 l 2,25,26
 395 797 395 797 395 750 c 0,27,28
 395 717 395 717 432 700 c 2,29,-1
 879 502 l 2,30,31
 947 472 947 472 990.5 405.5 c 128,-1,32
 1034 339 1034 339 1034 258 c 0,33,34
 1034 150 1034 150 957.5 75 c 128,-1,35
 881 0 881 0 784 0 c 2,36,-1
 444 0 l 2,37,38
 356 0 356 0 280.5 53 c 128,-1,39
 205 106 205 106 205 156 c 0,40,41
 205 189 205 189 229.5 214.5 c 128,-1,42
 254 240 254 240 293 240 c 0,43,44
 325 240 325 240 361.5 204 c 128,-1,45
 398 168 398 168 467 168 c 2,46,-1
 780 168 l 2,47,48
 817 168 817 168 842 196.5 c 128,-1,49
 867 225 867 225 867 262 c 0,50,51
 867 319 867 319 811 344 c 2,52,-1
 360 547 l 2,53,54
 295 576 295 576 260 631 c 128,-1,55
 225 686 225 686 225 743 c 0,56,57
 225 833 225 833 287.5 899 c 128,-1,58
 350 965 350 965 442 965 c 2,14,-1
EndSplineSet
EndChar

StartChar: uni0162
Encoding: 354 354 143
Width: 1237
Flags: W
LayerCount: 2
Fore
SplineSet
712 116 m 1,0,-1
 712 -274 l 2,1,2
 712 -310 712 -310 687.6328125 -334.865234375 c 0,3,4
 663 -360 663 -360 628 -360 c 2,5,-1
 288 -360 l 2,6,7
 254 -360 254 -360 229 -335 c 128,-1,8
 204 -310 204 -310 204 -276 c 0,9,10
 204 -241 204 -241 228.5 -215.5 c 128,-1,11
 253 -190 253 -190 288 -190 c 2,12,-1
 544 -190 l 1,13,-1
 544 116 l 1,14,-1
 712 116 l 1,0,-1
205 1100 m 2,15,-1
 205 1327 l 1,16,-1
 1053 1327 l 1,17,-1
 1053 1098 l 2,18,19
 1053 1063 1053 1063 1028 1038.5 c 128,-1,20
 1003 1014 1003 1014 969 1014 c 0,21,22
 934 1014 934 1014 908.5 1039 c 128,-1,23
 883 1064 883 1064 883 1098 c 2,24,-1
 883 1159 l 1,25,-1
 713 1159 l 1,26,-1
 713 84 l 2,27,28
 713 49 713 49 688 24.5 c 128,-1,29
 663 0 663 0 629 0 c 0,30,31
 593 0 593 0 568 24.5 c 128,-1,32
 543 49 543 49 543 84 c 2,33,-1
 543 1159 l 1,34,-1
 373 1159 l 1,35,-1
 373 1100 l 2,36,37
 373 1065 373 1065 348.5 1040.5 c 128,-1,38
 324 1016 324 1016 289 1016 c 256,39,40
 254 1016 254 1016 229.5 1040.5 c 128,-1,41
 205 1065 205 1065 205 1100 c 2,15,-1
EndSplineSet
EndChar

StartChar: uni0163
Encoding: 355 355 144
Width: 1237
Flags: W
LayerCount: 2
Fore
SplineSet
712 116 m 5,0,-1
 712 -274 l 6,1,2
 712 -310 712 -310 687.6328125 -334.865234375 c 4,3,4
 663 -360 663 -360 628 -360 c 6,5,-1
 288 -360 l 6,6,7
 254 -360 254 -360 229 -335 c 132,-1,8
 204 -310 204 -310 204 -276 c 4,9,10
 204 -241 204 -241 228.5 -215.5 c 132,-1,11
 253 -190 253 -190 288 -190 c 6,12,-1
 544 -190 l 5,13,-1
 544 116 l 5,14,-1
 712 116 l 5,0,-1
797 0 m 2,15,-1
 629 0 l 2,16,17
 525 0 525 0 450 74 c 128,-1,18
 375 148 375 148 375 252 c 2,19,-1
 375 797 l 1,20,-1
 289 797 l 2,21,22
 254 797 254 797 229.5 821 c 128,-1,23
 205 845 205 845 205 881 c 0,24,25
 205 916 205 916 229.5 940.5 c 128,-1,26
 254 965 254 965 289 965 c 2,27,-1
 377 965 l 1,28,-1
 377 1171 l 2,29,30
 377 1206 377 1206 401.5 1230.5 c 128,-1,31
 426 1255 426 1255 461 1255 c 0,32,33
 494 1255 494 1255 519.5 1230 c 128,-1,34
 545 1205 545 1205 545 1171 c 2,35,-1
 545 965 l 1,36,-1
 883 965 l 2,37,38
 917 965 917 965 942 940 c 128,-1,39
 967 915 967 915 967 881 c 0,40,41
 967 846 967 846 942 821.5 c 128,-1,42
 917 797 917 797 883 797 c 2,43,-1
 543 797 l 1,44,-1
 543 252 l 2,45,46
 543 218 543 218 568.5 193 c 128,-1,47
 594 168 594 168 629 168 c 2,48,-1
 793 168 l 2,49,50
 860 168 860 168 882 240.5 c 128,-1,51
 904 313 904 313 967 313 c 0,52,53
 1004 313 1004 313 1027.5 288.5 c 128,-1,54
 1051 264 1051 264 1051 227 c 0,55,56
 1051 151 1051 151 979.5 75.5 c 128,-1,57
 908 0 908 0 797 0 c 2,15,-1
EndSplineSet
EndChar

StartChar: Tcaron
Encoding: 356 356 145
Width: 1237
Flags: W
LayerCount: 2
Fore
SplineSet
205 1100 m 2,0,-1
 205 1327 l 1,1,-1
 1053 1327 l 1,2,-1
 1053 1098 l 2,3,4
 1053 1063 1053 1063 1028 1038.5 c 0,5,6
 1003 1014 1003 1014 969 1014 c 0,7,8
 934 1014 934 1014 908.5 1039 c 0,9,10
 883 1064 883 1064 883 1098 c 2,11,-1
 883 1159 l 1,12,-1
 713 1159 l 1,13,-1
 713 84 l 2,14,15
 713 49 713 49 688 24.5 c 0,16,17
 663 0 663 0 629 0 c 0,18,19
 593 0 593 0 568 24.5 c 0,20,21
 543 49 543 49 543 84 c 2,22,-1
 543 1159 l 1,23,-1
 373 1159 l 1,24,-1
 373 1100 l 2,25,26
 373 1065 373 1065 348.5 1040.5 c 0,27,28
 324 1016 324 1016 289 1016 c 256,29,30
 254 1016 254 1016 229.5 1040.5 c 0,31,32
 205 1065 205 1065 205 1100 c 2,0,-1
EndSplineSet
Refer: 49 711 S 1 0 0 1 -9 364 2
EndChar

StartChar: tcaron
Encoding: 357 357 146
Width: 1237
Flags: W
LayerCount: 2
Fore
SplineSet
1002.25 1318.29980469 m 2,0,-1
 1101.84960938 1318.29980469 l 2,1,2
 1122.84960938 1318.29980469 1122.84960938 1318.29980469 1137.84960938 1303 c 128,-1,3
 1152.84960938 1287.70019531 1152.84960938 1287.70019531 1152.84960938 1267.29980469 c 0,4,5
 1152.84960938 1260.70019531 1152.84960938 1260.70019531 1151.05078125 1254.70019531 c 2,6,-1
 1050.25 907.900390625 l 2,7,8
 1038.25 870.100585938 1038.25 870.100585938 1001.05078125 870.100585938 c 0,9,10
 978.849609375 870.100585938 978.849609375 870.100585938 964.150390625 885.700195312 c 128,-1,11
 949.44921875 901.299804688 949.44921875 901.299804688 949.44921875 924.100585938 c 2,12,-1
 949.44921875 1261.90039062 l 2,13,14
 949.44921875 1285.90039062 949.44921875 1285.90039062 963.55078125 1302.10058594 c 128,-1,15
 977.650390625 1318.29980469 977.650390625 1318.29980469 1002.25 1318.29980469 c 2,0,-1
676.150390625 0 m 2,17,-1
 508.150390625 0 l 2,18,19
 404.150390625 0 404.150390625 0 329.150390625 74 c 128,-1,20
 254.150390625 148 254.150390625 148 254.150390625 252 c 2,21,-1
 254.150390625 797 l 1,22,-1
 168.150390625 797 l 2,23,24
 133.150390625 797 133.150390625 797 108.650390625 821 c 128,-1,25
 84.150390625 845 84.150390625 845 84.150390625 881 c 0,26,27
 84.150390625 916 84.150390625 916 108.650390625 940.5 c 128,-1,28
 133.150390625 965 133.150390625 965 168.150390625 965 c 2,29,-1
 256.150390625 965 l 1,30,-1
 256.150390625 1171 l 2,31,32
 256.150390625 1206 256.150390625 1206 280.650390625 1230.5 c 128,-1,33
 305.150390625 1255 305.150390625 1255 340.150390625 1255 c 0,34,35
 373.150390625 1255 373.150390625 1255 398.650390625 1230 c 128,-1,36
 424.150390625 1205 424.150390625 1205 424.150390625 1171 c 2,37,-1
 424.150390625 965 l 1,38,-1
 762.150390625 965 l 2,39,40
 796.150390625 965 796.150390625 965 821.150390625 940 c 128,-1,41
 846.150390625 915 846.150390625 915 846.150390625 881 c 0,42,43
 846.150390625 846 846.150390625 846 821.150390625 821.5 c 128,-1,44
 796.150390625 797 796.150390625 797 762.150390625 797 c 2,45,-1
 422.150390625 797 l 1,46,-1
 422.150390625 252 l 2,47,48
 422.150390625 218 422.150390625 218 447.650390625 193 c 128,-1,49
 473.150390625 168 473.150390625 168 508.150390625 168 c 2,50,-1
 672.150390625 168 l 2,51,52
 739.150390625 168 739.150390625 168 761.150390625 240.5 c 128,-1,53
 783.150390625 313 783.150390625 313 846.150390625 313 c 0,54,55
 883.150390625 313 883.150390625 313 906.650390625 288.5 c 128,-1,56
 930.150390625 264 930.150390625 264 930.150390625 227 c 0,57,58
 930.150390625 151 930.150390625 151 858.650390625 75.5 c 128,-1,59
 787.150390625 0 787.150390625 0 676.150390625 0 c 2,17,-1
EndSplineSet
EndChar

StartChar: Tbar
Encoding: 358 358 147
Width: 1237
Flags: W
LayerCount: 2
Fore
SplineSet
545 584 m 5,0,-1
 457 584 l 6,16,-1
 423 584 423 584 398 608.5 c 132,-1,15
 373 633 373 633 373 668 c 4,13,14
 373 702 373 702 398 727 c 132,-1,12
 423 752 423 752 457 752 c 6,10,11
 545 752 l 5,9,-1
 797 752 l 6,8,-1
 832 752 832 752 857.5 727.5 c 132,-1,7
 883 703 883 703 883 668 c 260,5,6
 883 633 883 633 857.5 608.5 c 132,-1,4
 832 584 832 584 797 584 c 6,1,2
 545 584 l 5,0,-1
205 1100 m 2,18,-1
 205 1327 l 1,19,-1
 1053 1327 l 1,20,-1
 1053 1098 l 2,21,22
 1053 1063 1053 1063 1028 1038.5 c 128,-1,23
 1003 1014 1003 1014 969 1014 c 0,24,25
 934 1014 934 1014 908.5 1039 c 128,-1,26
 883 1064 883 1064 883 1098 c 2,27,-1
 883 1159 l 1,28,-1
 713 1159 l 1,29,-1
 713 84 l 2,30,31
 713 49 713 49 688 24.5 c 128,-1,32
 663 0 663 0 629 0 c 0,33,34
 593 0 593 0 568 24.5 c 128,-1,35
 543 49 543 49 543 84 c 2,36,-1
 543 1159 l 1,37,-1
 373 1159 l 1,38,-1
 373 1100 l 2,39,40
 373 1065 373 1065 348.5 1040.5 c 128,-1,41
 324 1016 324 1016 289 1016 c 256,42,43
 254 1016 254 1016 229.5 1040.5 c 128,-1,44
 205 1065 205 1065 205 1100 c 2,18,-1
EndSplineSet
EndChar

StartChar: tbar
Encoding: 359 359 148
Width: 1237
Flags: W
LayerCount: 2
Fore
SplineSet
375 464 m 1,0,-1
 287 464 l 2,1,2
 253 464 253 464 228 488.5 c 128,-1,3
 203 513 203 513 203 548 c 0,4,5
 203 582 203 582 228 607 c 128,-1,6
 253 632 253 632 287 632 c 2,7,-1
 375 632 l 1,8,-1
 627 632 l 2,9,10
 662 632 662 632 687.5 607.5 c 128,-1,11
 713 583 713 583 713 548 c 256,12,13
 713 513 713 513 687.5 488.5 c 128,-1,14
 662 464 662 464 627 464 c 2,15,-1
 375 464 l 1,0,-1
797 0 m 2,16,-1
 629 0 l 2,17,18
 525 0 525 0 450 74 c 128,-1,19
 375 148 375 148 375 252 c 2,20,-1
 375 797 l 1,21,-1
 289 797 l 2,22,23
 254 797 254 797 229.5 821 c 128,-1,24
 205 845 205 845 205 881 c 0,25,26
 205 916 205 916 229.5 940.5 c 128,-1,27
 254 965 254 965 289 965 c 2,28,-1
 377 965 l 1,29,-1
 377 1171 l 2,30,31
 377 1206 377 1206 401.5 1230.5 c 128,-1,32
 426 1255 426 1255 461 1255 c 0,33,34
 494 1255 494 1255 519.5 1230 c 128,-1,35
 545 1205 545 1205 545 1171 c 2,36,-1
 545 965 l 1,37,-1
 883 965 l 2,38,39
 917 965 917 965 942 940 c 128,-1,40
 967 915 967 915 967 881 c 0,41,42
 967 846 967 846 942 821.5 c 128,-1,43
 917 797 917 797 883 797 c 2,44,-1
 543 797 l 1,45,-1
 543 252 l 2,46,47
 543 218 543 218 568.5 193 c 128,-1,48
 594 168 594 168 629 168 c 2,49,-1
 793 168 l 2,50,51
 860 168 860 168 882 240.5 c 128,-1,52
 904 313 904 313 967 313 c 0,53,54
 1004 313 1004 313 1027.5 288.5 c 128,-1,55
 1051 264 1051 264 1051 227 c 0,56,57
 1051 151 1051 151 979.5 75.5 c 128,-1,58
 908 0 908 0 797 0 c 2,16,-1
EndSplineSet
EndChar

StartChar: Utilde
Encoding: 360 360 149
Width: 1237
Flags: W
LayerCount: 2
Fore
SplineSet
205 252 m 2,0,-1
 205 1243 l 2,1,2
 205 1278 205 1278 230 1303.5 c 0,3,4
 255 1329 255 1329 289 1329 c 256,5,6
 323 1329 323 1329 348 1304 c 0,7,8
 373 1279 373 1279 373 1245 c 2,9,-1
 373 252 l 2,10,11
 373 219 373 219 398 194.5 c 0,12,13
 423 170 423 170 457 170 c 2,14,-1
 801 170 l 2,15,16
 836 170 836 170 860.5 194 c 0,17,18
 885 218 885 218 885 252 c 2,19,-1
 885 1243 l 2,20,21
 885 1279 885 1279 909.5 1304 c 0,22,23
 934 1329 934 1329 969 1329 c 256,24,25
 1004 1329 1004 1329 1028.5 1304 c 0,26,27
 1053 1279 1053 1279 1053 1243 c 2,28,-1
 1053 254 l 2,29,30
 1053 150 1053 150 978.5 75 c 0,31,32
 904 0 904 0 801 0 c 2,33,-1
 457 0 l 2,34,35
 353 0 353 0 279 74 c 0,36,37
 205 148 205 148 205 252 c 2,0,-1
EndSplineSet
Refer: 42 732 S 1 0 0 1 -36 365 2
EndChar

StartChar: utilde
Encoding: 361 361 150
Width: 1237
Flags: W
LayerCount: 2
Fore
SplineSet
606 170 m 1,0,-1
 889 350 l 1,1,-1
 889 881 l 2,2,3
 889 916 889 916 913.5 941.5 c 0,4,5
 938 967 938 967 973 967 c 256,6,7
 1008 967 1008 967 1032.5 941.5 c 0,8,9
 1057 916 1057 916 1057 881 c 2,10,-1
 1057 84 l 2,11,12
 1057 50 1057 50 1032 25 c 0,13,14
 1007 0 1007 0 973 0 c 256,15,16
 939 0 939 0 914 25 c 0,17,18
 889 50 889 50 889 84 c 2,19,-1
 889 150 l 1,20,-1
 743 55 l 2,21,22
 657 0 657 0 569 0 c 2,23,-1
 491 0 l 2,24,25
 388 0 388 0 314 72 c 0,26,27
 240 144 240 144 235 248 c 2,28,-1
 211 881 l 2,29,30
 209 914 209 914 234.5 939.5 c 0,31,32
 260 965 260 965 295 965 c 0,33,34
 329 965 329 965 353.5 940 c 0,35,36
 378 915 378 915 379 881 c 2,37,-1
 401 260 l 2,38,39
 404 170 404 170 504 170 c 2,40,-1
 606 170 l 1,0,-1
EndSplineSet
Refer: 42 732 S 1 0 0 1 -41 0 2
EndChar

StartChar: Umacron
Encoding: 362 362 151
Width: 1237
Flags: W
LayerCount: 2
Fore
SplineSet
889 1597.5 m 6,0,1
 924 1597.5 924 1597.5 949.5 1573 c 132,-1,2
 975 1548.5 975 1548.5 975 1513.5 c 260,3,4
 975 1478.5 975 1478.5 949.5 1454 c 132,-1,5
 924 1429.5 924 1429.5 889 1429.5 c 6,6,-1
 369 1429.5 l 6,7,8
 335 1429.5 335 1429.5 310 1454.5 c 132,-1,9
 285 1479.5 285 1479.5 285 1513.5 c 4,10,11
 285 1548.5 285 1548.5 310 1573 c 132,-1,12
 335 1597.5 335 1597.5 369 1597.5 c 6,13,-1
 889 1597.5 l 6,0,1
205 252 m 2,14,-1
 205 1243 l 2,15,16
 205 1278 205 1278 230 1303.5 c 128,-1,17
 255 1329 255 1329 289 1329 c 256,18,19
 323 1329 323 1329 348 1304 c 128,-1,20
 373 1279 373 1279 373 1245 c 2,21,-1
 373 252 l 2,22,23
 373 219 373 219 398 194.5 c 128,-1,24
 423 170 423 170 457 170 c 2,25,-1
 801 170 l 2,26,27
 836 170 836 170 860.5 194 c 128,-1,28
 885 218 885 218 885 252 c 2,29,-1
 885 1243 l 2,30,31
 885 1279 885 1279 909.5 1304 c 128,-1,32
 934 1329 934 1329 969 1329 c 256,33,34
 1004 1329 1004 1329 1028.5 1304 c 128,-1,35
 1053 1279 1053 1279 1053 1243 c 2,36,-1
 1053 254 l 2,37,38
 1053 150 1053 150 978.5 75 c 128,-1,39
 904 0 904 0 801 0 c 2,40,-1
 457 0 l 2,41,42
 353 0 353 0 279 74 c 128,-1,43
 205 148 205 148 205 252 c 2,14,-1
EndSplineSet
EndChar

StartChar: umacron
Encoding: 363 363 152
Width: 1237
Flags: W
LayerCount: 2
Fore
SplineSet
889 1283 m 6,0,1
 924 1283 924 1283 949.5 1258.5 c 132,-1,2
 975 1234 975 1234 975 1199 c 260,3,4
 975 1164 975 1164 949.5 1139.5 c 132,-1,5
 924 1115 924 1115 889 1115 c 6,6,-1
 369 1115 l 6,7,8
 335 1115 335 1115 310 1140 c 132,-1,9
 285 1165 285 1165 285 1199 c 4,10,11
 285 1234 285 1234 310 1258.5 c 132,-1,12
 335 1283 335 1283 369 1283 c 6,13,-1
 889 1283 l 6,0,1
606 170 m 1,14,-1
 889 350 l 1,15,-1
 889 881 l 2,16,17
 889 916 889 916 913.5 941.5 c 128,-1,18
 938 967 938 967 973 967 c 256,19,20
 1008 967 1008 967 1032.5 941.5 c 128,-1,21
 1057 916 1057 916 1057 881 c 2,22,-1
 1057 84 l 2,23,24
 1057 50 1057 50 1032 25 c 128,-1,25
 1007 0 1007 0 973 0 c 256,26,27
 939 0 939 0 914 25 c 128,-1,28
 889 50 889 50 889 84 c 2,29,-1
 889 150 l 1,30,-1
 743 55 l 2,31,32
 657 0 657 0 569 0 c 2,33,-1
 491 0 l 2,34,35
 388 0 388 0 314 72 c 128,-1,36
 240 144 240 144 235 248 c 2,37,-1
 211 881 l 2,38,39
 209 914 209 914 234.5 939.5 c 128,-1,40
 260 965 260 965 295 965 c 0,41,42
 329 965 329 965 353.5 940 c 128,-1,43
 378 915 378 915 379 881 c 2,44,-1
 401 260 l 2,45,46
 404 170 404 170 504 170 c 2,47,-1
 606 170 l 1,14,-1
EndSplineSet
EndChar

StartChar: Ubreve
Encoding: 364 364 153
Width: 1237
Flags: W
LayerCount: 2
Fore
SplineSet
941 1747 m 4,0,1
 976 1747 976 1747 1001.5 1725.5 c 132,-1,2
 1027 1704 1027 1704 1027 1675 c 4,3,4
 1027 1608 1027 1608 906 1522 c 132,-1,5
 785 1436 785 1436 637 1436 c 4,6,7
 490 1436 490 1436 369 1522 c 132,-1,8
 248 1608 248 1608 248 1675 c 4,9,10
 248 1704 248 1704 273.5 1725.5 c 132,-1,11
 299 1747 299 1747 334 1747 c 4,12,13
 375 1747 375 1747 400 1723 c 4,14,15
 509 1606 509 1606 637 1606 c 4,16,17
 766 1606 766 1606 875 1723 c 4,18,19
 900 1747 900 1747 941 1747 c 4,0,1
205 252 m 2,20,-1
 205 1243 l 2,21,22
 205 1278 205 1278 230 1303.5 c 128,-1,23
 255 1329 255 1329 289 1329 c 256,24,25
 323 1329 323 1329 348 1304 c 128,-1,26
 373 1279 373 1279 373 1245 c 2,27,-1
 373 252 l 2,28,29
 373 219 373 219 398 194.5 c 128,-1,30
 423 170 423 170 457 170 c 2,31,-1
 801 170 l 2,32,33
 836 170 836 170 860.5 194 c 128,-1,34
 885 218 885 218 885 252 c 2,35,-1
 885 1243 l 2,36,37
 885 1279 885 1279 909.5 1304 c 128,-1,38
 934 1329 934 1329 969 1329 c 256,39,40
 1004 1329 1004 1329 1028.5 1304 c 128,-1,41
 1053 1279 1053 1279 1053 1243 c 2,42,-1
 1053 254 l 2,43,44
 1053 150 1053 150 978.5 75 c 128,-1,45
 904 0 904 0 801 0 c 2,46,-1
 457 0 l 2,47,48
 353 0 353 0 279 74 c 128,-1,49
 205 148 205 148 205 252 c 2,20,-1
EndSplineSet
EndChar

StartChar: ubreve
Encoding: 365 365 154
Width: 1237
Flags: W
LayerCount: 2
Fore
SplineSet
941 1408 m 4,0,1
 976 1408 976 1408 1001.5 1386.5 c 132,-1,2
 1027 1365 1027 1365 1027 1336 c 4,3,4
 1027 1269 1027 1269 906 1183 c 132,-1,5
 785 1097 785 1097 637 1097 c 4,6,7
 490 1097 490 1097 369 1183 c 132,-1,8
 248 1269 248 1269 248 1336 c 4,9,10
 248 1365 248 1365 273.5 1386.5 c 132,-1,11
 299 1408 299 1408 334 1408 c 4,12,13
 375 1408 375 1408 400 1384 c 4,14,15
 509 1267 509 1267 637 1267 c 4,16,17
 766 1267 766 1267 875 1384 c 4,18,19
 900 1408 900 1408 941 1408 c 4,0,1
606 170 m 1,20,-1
 889 350 l 1,21,-1
 889 881 l 2,22,23
 889 916 889 916 913.5 941.5 c 128,-1,24
 938 967 938 967 973 967 c 256,25,26
 1008 967 1008 967 1032.5 941.5 c 128,-1,27
 1057 916 1057 916 1057 881 c 2,28,-1
 1057 84 l 2,29,30
 1057 50 1057 50 1032 25 c 128,-1,31
 1007 0 1007 0 973 0 c 256,32,33
 939 0 939 0 914 25 c 128,-1,34
 889 50 889 50 889 84 c 2,35,-1
 889 150 l 1,36,-1
 743 55 l 2,37,38
 657 0 657 0 569 0 c 2,39,-1
 491 0 l 2,40,41
 388 0 388 0 314 72 c 128,-1,42
 240 144 240 144 235 248 c 2,43,-1
 211 881 l 2,44,45
 209 914 209 914 234.5 939.5 c 128,-1,46
 260 965 260 965 295 965 c 0,47,48
 329 965 329 965 353.5 940 c 128,-1,49
 378 915 378 915 379 881 c 2,50,-1
 401 260 l 2,51,52
 404 170 404 170 504 170 c 2,53,-1
 606 170 l 1,20,-1
EndSplineSet
EndChar

StartChar: Uring
Encoding: 366 366 155
Width: 1237
Flags: W
LayerCount: 2
Fore
SplineSet
205 252 m 2,0,-1
 205 1243 l 2,1,2
 205 1278 205 1278 230 1303.5 c 0,3,4
 255 1329 255 1329 289 1329 c 256,5,6
 323 1329 323 1329 348 1304 c 0,7,8
 373 1279 373 1279 373 1245 c 2,9,-1
 373 252 l 2,10,11
 373 219 373 219 398 194.5 c 0,12,13
 423 170 423 170 457 170 c 2,14,-1
 801 170 l 2,15,16
 836 170 836 170 860.5 194 c 0,17,18
 885 218 885 218 885 252 c 2,19,-1
 885 1243 l 2,20,21
 885 1279 885 1279 909.5 1304 c 0,22,23
 934 1329 934 1329 969 1329 c 256,24,25
 1004 1329 1004 1329 1028.5 1304 c 0,26,27
 1053 1279 1053 1279 1053 1243 c 2,28,-1
 1053 254 l 2,29,30
 1053 150 1053 150 978.5 75 c 0,31,32
 904 0 904 0 801 0 c 2,33,-1
 457 0 l 2,34,35
 353 0 353 0 279 74 c 0,36,37
 205 148 205 148 205 252 c 2,0,-1
EndSplineSet
Refer: 46 730 S 1 0 0 1 5 364 2
EndChar

StartChar: uring
Encoding: 367 367 156
Width: 1237
Flags: W
LayerCount: 2
Fore
SplineSet
606 170 m 1,0,-1
 889 350 l 1,1,-1
 889 881 l 2,2,3
 889 916 889 916 913.5 941.5 c 0,4,5
 938 967 938 967 973 967 c 256,6,7
 1008 967 1008 967 1032.5 941.5 c 0,8,9
 1057 916 1057 916 1057 881 c 2,10,-1
 1057 84 l 2,11,12
 1057 50 1057 50 1032 25 c 0,13,14
 1007 0 1007 0 973 0 c 256,15,16
 939 0 939 0 914 25 c 0,17,18
 889 50 889 50 889 84 c 2,19,-1
 889 150 l 1,20,-1
 743 55 l 2,21,22
 657 0 657 0 569 0 c 2,23,-1
 491 0 l 2,24,25
 388 0 388 0 314 72 c 0,26,27
 240 144 240 144 235 248 c 2,28,-1
 211 881 l 2,29,30
 209 914 209 914 234.5 939.5 c 0,31,32
 260 965 260 965 295 965 c 0,33,34
 329 965 329 965 353.5 940 c 0,35,36
 378 915 378 915 379 881 c 2,37,-1
 401 260 l 2,38,39
 404 170 404 170 504 170 c 2,40,-1
 606 170 l 1,0,-1
EndSplineSet
Refer: 46 730 S 1 0 0 1 0 0 2
EndChar

StartChar: Uhungarumlaut
Encoding: 368 368 157
Width: 1237
Flags: W
LayerCount: 2
Fore
SplineSet
946 1605 m 2,0,-1
 798 1457 l 2,1,2
 774 1433 774 1433 739 1433 c 256,3,4
 704 1433 704 1433 679.5 1457.5 c 128,-1,5
 655 1482 655 1482 655 1517 c 256,6,7
 655 1552 655 1552 679 1576 c 2,8,-1
 827 1724 l 2,9,10
 851 1748 851 1748 886 1748 c 256,11,12
 921 1748 921 1748 945.5 1723.5 c 128,-1,13
 970 1699 970 1699 970 1664 c 256,14,15
 970 1629 970 1629 946 1605 c 2,0,-1
606 1605 m 2,16,-1
 458 1457 l 2,17,18
 434 1433 434 1433 399 1433 c 256,19,20
 364 1433 364 1433 339.5 1457.5 c 128,-1,21
 315 1482 315 1482 315 1517 c 256,22,23
 315 1552 315 1552 339 1576 c 2,24,-1
 487 1724 l 2,25,26
 511 1748 511 1748 546 1748 c 256,27,28
 581 1748 581 1748 605.5 1723.5 c 128,-1,29
 630 1699 630 1699 630 1664 c 256,30,31
 630 1629 630 1629 606 1605 c 2,16,-1
205 252 m 2,32,-1
 205 1243 l 2,33,34
 205 1278 205 1278 230 1303.5 c 128,-1,35
 255 1329 255 1329 289 1329 c 256,36,37
 323 1329 323 1329 348 1304 c 128,-1,38
 373 1279 373 1279 373 1245 c 2,39,-1
 373 252 l 2,40,41
 373 219 373 219 398 194.5 c 128,-1,42
 423 170 423 170 457 170 c 2,43,-1
 801 170 l 2,44,45
 836 170 836 170 860.5 194 c 128,-1,46
 885 218 885 218 885 252 c 2,47,-1
 885 1243 l 2,48,49
 885 1279 885 1279 909.5 1304 c 128,-1,50
 934 1329 934 1329 969 1329 c 256,51,52
 1004 1329 1004 1329 1028.5 1304 c 128,-1,53
 1053 1279 1053 1279 1053 1243 c 2,54,-1
 1053 254 l 2,55,56
 1053 150 1053 150 978.5 75 c 128,-1,57
 904 0 904 0 801 0 c 2,58,-1
 457 0 l 2,59,60
 353 0 353 0 279 74 c 128,-1,61
 205 148 205 148 205 252 c 2,32,-1
EndSplineSet
EndChar

StartChar: uhungarumlaut
Encoding: 369 369 158
Width: 1237
Flags: W
LayerCount: 2
Fore
SplineSet
946 1283 m 6,0,-1
 798 1135 l 6,1,2
 774 1111 774 1111 739 1111 c 260,3,4
 704 1111 704 1111 679.5 1135.5 c 132,-1,5
 655 1160 655 1160 655 1195 c 260,6,7
 655 1230 655 1230 679 1254 c 6,8,-1
 827 1402 l 6,9,10
 851 1426 851 1426 886 1426 c 260,11,12
 921 1426 921 1426 945.5 1401.5 c 132,-1,13
 970 1377 970 1377 970 1342 c 260,14,15
 970 1307 970 1307 946 1283 c 6,0,-1
606 1283 m 6,16,-1
 458 1135 l 6,17,18
 434 1111 434 1111 399 1111 c 260,19,20
 364 1111 364 1111 339.5 1135.5 c 132,-1,21
 315 1160 315 1160 315 1195 c 260,22,23
 315 1230 315 1230 339 1254 c 6,24,-1
 487 1402 l 6,25,26
 511 1426 511 1426 546 1426 c 260,27,28
 581 1426 581 1426 605.5 1401.5 c 132,-1,29
 630 1377 630 1377 630 1342 c 260,30,31
 630 1307 630 1307 606 1283 c 6,16,-1
606 170 m 1,32,-1
 889 350 l 1,33,-1
 889 881 l 2,34,35
 889 916 889 916 913.5 941.5 c 128,-1,36
 938 967 938 967 973 967 c 256,37,38
 1008 967 1008 967 1032.5 941.5 c 128,-1,39
 1057 916 1057 916 1057 881 c 2,40,-1
 1057 84 l 2,41,42
 1057 50 1057 50 1032 25 c 128,-1,43
 1007 0 1007 0 973 0 c 256,44,45
 939 0 939 0 914 25 c 128,-1,46
 889 50 889 50 889 84 c 2,47,-1
 889 150 l 1,48,-1
 743 55 l 2,49,50
 657 0 657 0 569 0 c 2,51,-1
 491 0 l 2,52,53
 388 0 388 0 314 72 c 128,-1,54
 240 144 240 144 235 248 c 2,55,-1
 211 881 l 2,56,57
 209 914 209 914 234.5 939.5 c 128,-1,58
 260 965 260 965 295 965 c 0,59,60
 329 965 329 965 353.5 940 c 128,-1,61
 378 915 378 915 379 881 c 2,62,-1
 401 260 l 2,63,64
 404 170 404 170 504 170 c 2,65,-1
 606 170 l 1,32,-1
EndSplineSet
EndChar

StartChar: Uogonek
Encoding: 370 370 159
Width: 1237
Flags: W
LayerCount: 2
Fore
SplineSet
721 0 m 5,0,-1
 721 -190 l 5,1,-1
 841 -190 l 6,2,3
 876 -190 876 -190 900.5 -215.5 c 132,-1,4
 925 -241 925 -241 925 -276 c 4,5,6
 925 -310 925 -310 900 -335 c 132,-1,7
 875 -360 875 -360 841 -360 c 6,8,-1
 637 -360 l 6,9,10
 622 -360 622 -360 577.5 -335 c 4,11,12
 553 -321 553 -321 553 -274 c 6,13,-1
 553 0 l 5,14,-1
 721 0 l 5,0,-1
205 252 m 2,15,-1
 205 1243 l 2,16,17
 205 1278 205 1278 230 1303.5 c 128,-1,18
 255 1329 255 1329 289 1329 c 256,19,20
 323 1329 323 1329 348 1304 c 128,-1,21
 373 1279 373 1279 373 1245 c 2,22,-1
 373 252 l 2,23,24
 373 219 373 219 398 194.5 c 128,-1,25
 423 170 423 170 457 170 c 2,26,-1
 801 170 l 2,27,28
 836 170 836 170 860.5 194 c 128,-1,29
 885 218 885 218 885 252 c 2,30,-1
 885 1243 l 2,31,32
 885 1279 885 1279 909.5 1304 c 128,-1,33
 934 1329 934 1329 969 1329 c 256,34,35
 1004 1329 1004 1329 1028.5 1304 c 128,-1,36
 1053 1279 1053 1279 1053 1243 c 2,37,-1
 1053 254 l 2,38,39
 1053 150 1053 150 978.5 75 c 128,-1,40
 904 0 904 0 801 0 c 2,41,-1
 457 0 l 2,42,43
 353 0 353 0 279 74 c 128,-1,44
 205 148 205 148 205 252 c 2,15,-1
EndSplineSet
EndChar

StartChar: uogonek
Encoding: 371 371 160
Width: 1237
Flags: W
LayerCount: 2
Fore
SplineSet
1057 118 m 1,0,-1
 1057 -190 l 1,1,-1
 1177 -190 l 2,2,3
 1212 -190 1212 -190 1236.5 -215.5 c 128,-1,4
 1261 -241 1261 -241 1261 -276 c 0,5,6
 1261 -310 1261 -310 1236 -335 c 128,-1,7
 1211 -360 1211 -360 1177 -360 c 2,8,-1
 973 -360 l 2,9,10
 958 -360 958 -360 913.5 -335 c 0,11,12
 889 -321 889 -321 889 -274 c 2,13,-1
 889 118 l 1,14,-1
 1057 118 l 1,0,-1
606 170 m 1,15,-1
 889 350 l 1,16,-1
 889 881 l 2,17,18
 889 916 889 916 913.5 941.5 c 128,-1,19
 938 967 938 967 973 967 c 256,20,21
 1008 967 1008 967 1032.5 941.5 c 128,-1,22
 1057 916 1057 916 1057 881 c 2,23,-1
 1057 84 l 2,24,25
 1057 50 1057 50 1032 25 c 128,-1,26
 1007 0 1007 0 973 0 c 256,27,28
 939 0 939 0 914 25 c 128,-1,29
 889 50 889 50 889 84 c 2,30,-1
 889 150 l 1,31,-1
 743 55 l 2,32,33
 657 0 657 0 569 0 c 2,34,-1
 491 0 l 2,35,36
 388 0 388 0 314 72 c 128,-1,37
 240 144 240 144 235 248 c 2,38,-1
 211 881 l 2,39,40
 209 914 209 914 234.5 939.5 c 128,-1,41
 260 965 260 965 295 965 c 0,42,43
 329 965 329 965 353.5 940 c 128,-1,44
 378 915 378 915 379 881 c 2,45,-1
 401 260 l 2,46,47
 404 170 404 170 504 170 c 2,48,-1
 606 170 l 1,15,-1
EndSplineSet
EndChar

StartChar: Wcircumflex
Encoding: 372 372 161
Width: 1237
Flags: W
LayerCount: 2
Fore
SplineSet
715 809 m 2,0,-1
 715 250 l 1,1,-1
 764 168 l 1,2,-1
 834 168 l 1,3,-1
 885 252 l 1,4,-1
 885 1243 l 2,5,6
 885 1278 885 1278 910.5 1303.5 c 0,7,8
 936 1329 936 1329 971 1329 c 0,9,10
 1005 1329 1005 1329 1030 1304 c 0,11,12
 1055 1279 1055 1279 1055 1245 c 2,13,-1
 1055 225 l 2,14,15
 1055 206 1055 206 1034 172 c 2,16,-1
 956 43 l 2,17,18
 932 0 932 0 883 0 c 2,19,-1
 725 0 l 2,20,21
 650 0 650 0 629 68 c 1,22,23
 606 0 606 0 537 0 c 2,24,-1
 389 0 l 2,25,26
 325 0 325 0 297 47 c 2,27,-1
 225 168 l 2,28,29
 205 201 205 201 205 225 c 2,30,-1
 205 1243 l 2,31,32
 205 1278 205 1278 230.5 1303.5 c 0,33,34
 256 1329 256 1329 291 1329 c 0,35,36
 324 1329 324 1329 348.5 1303.5 c 0,37,38
 373 1278 373 1278 373 1243 c 2,39,-1
 373 248 l 1,40,-1
 422 168 l 1,41,-1
 494 168 l 1,42,-1
 547 252 l 1,43,-1
 547 809 l 2,44,45
 547 844 547 844 571.5 868.5 c 0,46,47
 596 893 596 893 631 893 c 256,48,49
 666 893 666 893 690.5 868.5 c 0,50,51
 715 844 715 844 715 809 c 2,0,-1
EndSplineSet
Refer: 41 710 S 1 0 0 1 -9 364 2
EndChar

StartChar: wcircumflex
Encoding: 373 373 162
Width: 1237
Flags: W
LayerCount: 2
Fore
SplineSet
714 592 m 2,0,-1
 714 391 l 1,1,-1
 826 199 l 1,2,-1
 884 391 l 1,3,-1
 902 881 l 2,4,5
 904 915 904 915 928.5 940 c 0,6,7
 953 965 953 965 986 965 c 0,8,9
 1021 965 1021 965 1046 940.5 c 0,10,11
 1071 916 1071 916 1070 881 c 2,12,-1
 1052 358 l 1,13,-1
 962 61 l 2,14,15
 943 0 943 0 884 0 c 2,16,-1
 794 0 l 2,17,18
 747 0 747 0 720 47 c 2,19,-1
 628 205 l 1,20,-1
 536 49 l 2,21,22
 505 0 505 0 462 0 c 2,23,-1
 374 0 l 2,24,25
 345 0 345 0 321.5 17 c 0,26,27
 298 34 298 34 292 57 c 2,28,-1
 204 365 l 1,29,-1
 185 881 l 2,30,31
 184 914 184 914 210 939.5 c 0,32,33
 236 965 236 965 271 965 c 0,34,35
 303 965 303 965 327.5 941.5 c 0,36,37
 352 918 352 918 353 881 c 2,38,-1
 372 389 l 1,39,-1
 427 201 l 1,40,-1
 544 397 l 1,41,-1
 544 592 l 2,42,43
 544 627 544 627 569 651.5 c 0,44,45
 594 676 594 676 630 676 c 0,46,47
 664 676 664 676 689 651.5 c 0,48,49
 714 627 714 627 714 592 c 2,0,-1
EndSplineSet
Refer: 41 710 S 1 0 0 1 -7 0 2
EndChar

StartChar: Ycircumflex
Encoding: 374 374 163
Width: 1237
Flags: W
LayerCount: 2
Fore
SplineSet
717 637 m 1,0,-1
 717 84 l 2,1,2
 717 49 717 49 692 24.5 c 0,3,4
 667 0 667 0 633 0 c 0,5,6
 597 0 597 0 572 24.5 c 0,7,8
 547 49 547 49 547 84 c 2,9,-1
 547 637 l 1,10,-1
 209 1065 l 1,11,-1
 209 1243 l 2,12,13
 209 1279 209 1279 233.5 1304 c 0,14,15
 258 1329 258 1329 293 1329 c 256,16,17
 328 1329 328 1329 353.5 1303.5 c 0,18,19
 379 1278 379 1278 379 1243 c 2,20,-1
 379 1128 l 1,21,-1
 631 803 l 1,22,-1
 887 1126 l 1,23,-1
 887 1243 l 2,24,25
 887 1278 887 1278 912 1303.5 c 0,26,27
 937 1329 937 1329 971 1329 c 0,28,29
 1004 1329 1004 1329 1029.5 1305.5 c 0,30,31
 1055 1282 1055 1282 1055 1243 c 2,32,-1
 1055 1067 l 1,33,-1
 717 637 l 1,0,-1
EndSplineSet
Refer: 41 710 S 1 0 0 1 -9 364 2
EndChar

StartChar: ycircumflex
Encoding: 375 375 164
Width: 1237
Flags: W
LayerCount: 2
Fore
SplineSet
1055 719 m 1,0,-1
 602 -305 l 2,1,2
 579 -360 579 -360 522 -360 c 2,3,-1
 289 -360 l 2,4,5
 254 -360 254 -360 229.5 -336 c 0,6,7
 205 -312 205 -312 205 -276 c 0,8,9
 205 -241 205 -241 229.5 -217 c 0,10,11
 254 -193 254 -193 289 -193 c 2,12,-1
 469 -193 l 1,13,-1
 584 74 l 1,14,-1
 543 74 l 2,15,16
 486 74 486 74 461 133 c 2,17,-1
 209 719 l 1,18,-1
 209 881 l 2,19,20
 209 916 209 916 233 940.5 c 0,21,22
 257 965 257 965 291 965 c 0,23,24
 326 965 326 965 351.5 940.5 c 0,25,26
 377 916 377 916 377 881 c 2,27,-1
 377 756 l 1,28,-1
 598 244 l 1,29,-1
 657 244 l 1,30,-1
 885 754 l 1,31,-1
 885 883 l 2,32,33
 885 916 885 916 910.5 941.5 c 0,34,35
 936 967 936 967 971 967 c 0,36,37
 1005 967 1005 967 1030 942 c 0,38,39
 1055 917 1055 917 1055 883 c 2,40,-1
 1055 719 l 1,0,-1
EndSplineSet
Refer: 41 710 S 1 0 0 1 -7 0 2
EndChar

StartChar: Zacute
Encoding: 377 377 165
Width: 1237
Flags: W
LayerCount: 2
Fore
SplineSet
735 1685 m 2,0,1
 753 1693 753 1693 772 1693 c 0,2,3
 808 1693 808 1693 831 1666.5 c 0,4,5
 854 1640 854 1640 854 1607 c 0,6,7
 854 1553 854 1553 807 1531 c 2,8,-1
 502 1390 l 2,9,10
 484 1382 484 1382 465 1382 c 0,11,12
 429 1382 429 1382 406 1408.5 c 0,13,14
 383 1435 383 1435 383 1468 c 0,15,16
 383 1522 383 1522 430 1544 c 2,17,-1
 735 1685 l 2,0,1
287 1329 m 2,18,-1
 1053 1329 l 1,19,-1
 1053 1221 l 1,20,-1
 436 168 l 1,21,-1
 969 168 l 2,22,23
 1004 168 1004 168 1028.5 143.5 c 0,24,25
 1053 119 1053 119 1053 84 c 0,26,27
 1053 50 1053 50 1028 25 c 0,28,29
 1003 0 1003 0 969 0 c 2,30,-1
 205 0 l 1,31,-1
 205 111 l 1,32,-1
 821 1159 l 1,33,-1
 287 1159 l 2,34,35
 253 1159 253 1159 229 1184.5 c 0,36,37
 205 1210 205 1210 205 1245 c 0,38,39
 205 1279 205 1279 229 1304 c 0,40,41
 253 1329 253 1329 287 1329 c 2,18,-1
EndSplineSet
EndChar

StartChar: zacute
Encoding: 378 378 166
Width: 1237
Flags: W
LayerCount: 2
Fore
SplineSet
858 1321 m 2,0,1
 876 1329 876 1329 895 1329 c 0,2,3
 931 1329 931 1329 954 1302.5 c 0,4,5
 977 1276 977 1276 977 1243 c 0,6,7
 977 1189 977 1189 930 1167 c 2,8,-1
 625 1026 l 2,9,10
 607 1018 607 1018 588 1018 c 0,11,12
 552 1018 552 1018 529 1044.5 c 0,13,14
 506 1071 506 1071 506 1104 c 0,15,16
 506 1158 506 1158 553 1180 c 2,17,-1
 858 1321 l 2,0,1
1055 881 m 2,18,-1
 1055 813 l 2,19,20
 1055 773 1055 773 1026 745 c 2,21,-1
 430 168 l 1,22,-1
 969 168 l 2,23,24
 1004 168 1004 168 1028.5 143.5 c 0,25,26
 1053 119 1053 119 1053 84 c 256,27,28
 1053 49 1053 49 1028.5 24.5 c 0,29,30
 1004 0 1004 0 969 0 c 2,31,-1
 293 0 l 2,32,33
 257 0 257 0 232 24.5 c 0,34,35
 207 49 207 49 207 84 c 2,36,-1
 207 156 l 2,37,38
 207 192 207 192 252 236 c 2,39,-1
 836 797 l 1,40,-1
 332 797 l 2,41,42
 297 797 297 797 272.5 822 c 0,43,44
 248 847 248 847 248 883 c 0,45,46
 248 916 248 916 273 941.5 c 0,47,48
 298 967 298 967 332 967 c 2,49,-1
 971 967 l 2,50,51
 1006 967 1006 967 1030.5 941.5 c 0,52,53
 1055 916 1055 916 1055 881 c 2,18,-1
EndSplineSet
EndChar

StartChar: Zdotaccent
Encoding: 379 379 167
Width: 1237
Flags: W
LayerCount: 2
Fore
SplineSet
731 1477.5 m 6,0,1
 731 1444 731 1444 707 1418 c 4,2,3
 686 1396 686 1396 647 1396.5 c 4,4,5
 603 1396 603 1396 588 1421 c 4,6,7
 564 1460 564 1460 564 1477.5 c 6,8,-1
 564 1527 l 6,9,10
 564 1562 564 1562 588 1586.5 c 4,11,12
 610.595703125 1610.5078125 610.595703125 1610.5078125 647 1611 c 4,13,14
 684 1612 684 1612 707 1586.5 c 4,15,16
 731 1560 731 1560 731 1527 c 6,17,-1
 731 1477.5 l 6,0,1
287 1329 m 2,18,-1
 1053 1329 l 1,19,-1
 1053 1221 l 1,20,-1
 436 168 l 1,21,-1
 969 168 l 2,22,23
 1004 168 1004 168 1028.5 143.5 c 128,-1,24
 1053 119 1053 119 1053 84 c 0,25,26
 1053 50 1053 50 1028 25 c 128,-1,27
 1003 0 1003 0 969 0 c 2,28,-1
 205 0 l 1,29,-1
 205 111 l 1,30,-1
 821 1159 l 1,31,-1
 287 1159 l 2,32,33
 253 1159 253 1159 229 1184.5 c 128,-1,34
 205 1210 205 1210 205 1245 c 0,35,36
 205 1279 205 1279 229 1304 c 128,-1,37
 253 1329 253 1329 287 1329 c 2,18,-1
EndSplineSet
EndChar

StartChar: zdotaccent
Encoding: 380 380 168
Width: 1237
Flags: W
LayerCount: 2
Fore
SplineSet
670 1117.5 m 6,0,1
 670 1084 670 1084 646 1058 c 4,2,3
 625 1036 625 1036 586 1036.5 c 4,4,5
 542 1036 542 1036 527 1061 c 4,6,7
 503 1100 503 1100 503 1117.5 c 6,8,-1
 503 1167 l 6,9,10
 503 1202 503 1202 527 1226.5 c 4,11,12
 549.595703125 1250.5078125 549.595703125 1250.5078125 586 1251 c 4,13,14
 623 1252 623 1252 646 1226.5 c 4,15,16
 670 1200 670 1200 670 1167 c 6,17,-1
 670 1117.5 l 6,0,1
1055 881 m 2,18,-1
 1055 813 l 2,19,20
 1055 773 1055 773 1026 745 c 2,21,-1
 430 168 l 1,22,-1
 969 168 l 2,23,24
 1004 168 1004 168 1028.5 143.5 c 128,-1,25
 1053 119 1053 119 1053 84 c 256,26,27
 1053 49 1053 49 1028.5 24.5 c 128,-1,28
 1004 0 1004 0 969 0 c 2,29,-1
 293 0 l 2,30,31
 257 0 257 0 232 24.5 c 128,-1,32
 207 49 207 49 207 84 c 2,33,-1
 207 156 l 2,34,35
 207 192 207 192 252 236 c 2,36,-1
 836 797 l 1,37,-1
 332 797 l 2,38,39
 297 797 297 797 272.5 822 c 128,-1,40
 248 847 248 847 248 883 c 0,41,42
 248 916 248 916 273 941.5 c 128,-1,43
 298 967 298 967 332 967 c 2,44,-1
 971 967 l 2,45,46
 1006 967 1006 967 1030.5 941.5 c 128,-1,47
 1055 916 1055 916 1055 881 c 2,18,-1
EndSplineSet
EndChar

StartChar: longs
Encoding: 383 383 169
Width: 1237
Flags: W
LayerCount: 2
Fore
SplineSet
592 965 m 1,0,-1
 592 1030 l 2,1,2
 631.5 1094.5 l 0,3,4
 671 1159 671 1159 731 1159 c 2,5,-1
 928 1159 l 2,6,7
 962 1159 962 1159 987 1184 c 128,-1,8
 1012 1209 1012 1209 1012 1243 c 0,9,10
 1012 1279 1012 1279 987.5 1304 c 128,-1,11
 963 1329 963 1329 928 1329 c 2,12,-1
 731 1329 l 2,13,14
 599 1329 599 1329 510.5 1244 c 128,-1,15
 422 1159 422 1159 422 1030 c 2,16,-1
 422 965 l 1,17,-1
 334 965 l 2,18,19
 295 965 295 965 272.5 939.5 c 128,-1,20
 250 914 250 914 250 881 c 0,21,22
 250 847 250 847 274.5 822 c 128,-1,23
 299 797 299 797 334 797 c 2,24,-1
 420 797 l 1,25,-1
 420 84 l 2,26,27
 420 49 420 49 445 24.5 c 128,-1,28
 470 0 470 0 506 0 c 0,29,30
 540 0 540 0 565.146520828 24.501226849 c 0,31,32
 590 49 590 49 590 84 c 2,33,-1
 592 965 l 1,0,-1
EndSplineSet
EndChar

